SplineFontDB: 3.0
FontName: SignikaNegative-Regular
FullName: Signika Negative
FamilyName: Signika Negative
Weight: Book
Copyright: Copyright (c) 2011 by Anna Giedrys (http://ancymonic.com), with Reserved Font Names "Signika".
Version: 1.001
ItalicAngle: 0
UnderlinePosition: -100
UnderlineWidth: 50
Ascent: 800
Descent: 200
sfntRevision: 0x00010042
LayerCount: 2
Layer: 0 1 "Back"  1
Layer: 1 1 "Fore"  0
XUID: [1021 547 1774286933 13552712]
FSType: 0
OS2Version: 2
OS2_WeightWidthSlopeOnly: 0
OS2_UseTypoMetrics: 1
CreationTime: 1323970521
ModificationTime: 1323999444
PfmFamily: 17
TTFWeight: 400
TTFWidth: 5
LineGap: 0
VLineGap: 0
Panose: 2 1 0 3 2 6 0 0 0 4
OS2TypoAscent: 140
OS2TypoAOffset: 1
OS2TypoDescent: -92
OS2TypoDOffset: 1
OS2TypoLinegap: 0
OS2WinAscent: 41
OS2WinAOffset: 1
OS2WinDescent: 32
OS2WinDOffset: 1
HheadAscent: 41
HheadAOffset: 1
HheadDescent: -32
HheadDOffset: 1
OS2SubXSize: 700
OS2SubYSize: 650
OS2SubXOff: 0
OS2SubYOff: 140
OS2SupXSize: 700
OS2SupYSize: 650
OS2SupXOff: 0
OS2SupYOff: 477
OS2StrikeYSize: 50
OS2StrikeYPos: 250
OS2CodePages: 00000093.00000000
OS2UnicodeRanges: a00000ef.40000043.00000000.00000000
Lookup: 258 0 0 "'kern' Horizontal Kerning in Latin lookup 0"  {"'kern' Horizontal Kerning in Latin lookup 0 subtable"  } ['kern' ('DFLT' <'dflt' > 'latn' <'dflt' > ) ]
MarkAttachClasses: 1
DEI: 91125
TtTable: prep
PUSHW_1
 511
SCANCTRL
PUSHB_1
 4
SCANTYPE
EndTTInstrs
ShortTable: maxp 16
  1
  0
  385
  81
  5
  63
  4
  2
  0
  1
  1
  0
  64
  0
  2
  1
EndShort
LangName: 1033 "" "" "" "AnnaGiedrys: Signika Light: 2011" "" "Version 1.001" "" "Signika is a trademark of Anna Giedrys." "Anna Giedrys" "Anna Giedrys" "" "www.ancymonic.com" "www.ancymonic.com" "This Font Software is licensed under the SIL Open Font License, Version 1.1. This license is available with a FAQ at: http://scripts.sil.org/OFL" "http://scripts.sil.org/OFL" 
GaspTable: 1 65535 15 1
Encoding: UnicodeBmp
UnicodeInterp: none
NameList: Adobe Glyph List
DisplaySize: -24

StartChar: exclam
Encoding: 33 33 5
Width: 285
GlyphClass: 2
Flags: W
LayerCount: 2
Fore
SplineSet
103 193 m 1,0,-1
 92 662 l 1,1,2
 130 690 130 690 196 690 c 1,3,-1
 202 683 l 1,4,-1
 179 193 l 1,5,6
 164 188 164 188 141 188 c 128,-1,7
 118 188 118 188 103 193 c 1,0,-1
87 94 m 1,8,9
 107 106 107 106 141.5 106 c 128,-1,10
 176 106 176 106 196 94 c 1,11,12
 204 80 204 80 204 48.5 c 128,-1,13
 204 17 204 17 196 4 c 1,14,15
 176 -8 176 -8 141.5 -8 c 128,-1,16
 107 -8 107 -8 87 4 c 1,17,18
 79 17 79 17 79 48.5 c 128,-1,19
 79 80 79 80 87 94 c 1,8,9
EndSplineSet
EndChar

StartChar: quotedbl
Encoding: 34 34 6
Width: 382
GlyphClass: 2
Flags: W
LayerCount: 2
Fore
SplineSet
223 711 m 128,-1,1
 223 726 223 726 229 748 c 1,2,3
 250 760 250 760 279.5 760 c 128,-1,4
 309 760 309 760 328 748 c 1,5,6
 335 722 335 722 335 708.5 c 128,-1,7
 335 695 335 695 330 668 c 0,8,9
 311 569 311 569 304 510 c 1,10,11
 296 505 296 505 279.5 505 c 128,-1,12
 263 505 263 505 253 510 c 1,13,14
 245 577 245 577 234 636.5 c 128,-1,0
 223 696 223 696 223 711 c 128,-1,1
48 711 m 128,-1,16
 48 726 48 726 54 748 c 1,17,18
 75 760 75 760 104.5 760 c 128,-1,19
 134 760 134 760 153 748 c 1,20,21
 160 722 160 722 160 708.5 c 128,-1,22
 160 695 160 695 155 668 c 0,23,24
 136 569 136 569 129 510 c 1,25,26
 121 505 121 505 104.5 505 c 128,-1,27
 88 505 88 505 78 510 c 1,28,29
 70 577 70 577 59 636.5 c 128,-1,15
 48 696 48 696 48 711 c 128,-1,16
EndSplineSet
EndChar

StartChar: numbersign
Encoding: 35 35 7
Width: 637
GlyphClass: 2
Flags: W
LayerCount: 2
Fore
SplineSet
423 493 m 1,0,-1
 455 637 l 1,1,2
 472 644 472 644 499.5 644 c 128,-1,3
 527 644 527 644 544 637 c 1,4,-1
 511 493 l 1,5,-1
 609 493 l 1,6,7
 615 476 615 476 615 452 c 128,-1,8
 615 428 615 428 609 412 c 1,9,-1
 493 412 l 1,10,-1
 455 239 l 1,11,-1
 562 239 l 1,12,13
 568 222 568 222 568 198 c 128,-1,14
 568 174 568 174 562 157 c 1,15,-1
 436 157 l 1,16,-1
 404 13 l 1,17,18
 388 6 388 6 359.5 6 c 128,-1,19
 331 6 331 6 316 13 c 1,20,-1
 348 157 l 1,21,-1
 221 157 l 1,22,-1
 189 13 l 1,23,24
 173 6 173 6 144.5 6 c 128,-1,25
 116 6 116 6 101 13 c 1,26,-1
 133 157 l 1,27,-1
 30 157 l 1,28,29
 24 174 24 174 24 198 c 128,-1,30
 24 222 24 222 30 239 c 1,31,-1
 152 239 l 1,32,-1
 190 412 l 1,33,-1
 77 412 l 1,34,35
 71 428 71 428 71 452 c 128,-1,36
 71 476 71 476 77 493 c 1,37,-1
 208 493 l 1,38,-1
 241 637 l 1,39,40
 258 644 258 644 285.5 644 c 128,-1,41
 313 644 313 644 329 637 c 1,42,-1
 296 493 l 1,43,-1
 423 493 l 1,0,-1
278 412 m 1,44,-1
 240 239 l 1,45,-1
 366 239 l 1,46,-1
 405 412 l 1,47,-1
 278 412 l 1,44,-1
EndSplineSet
EndChar

StartChar: dollar
Encoding: 36 36 8
Width: 498
GlyphClass: 2
Flags: W
LayerCount: 2
Fore
SplineSet
34 99 m 1,0,1
 35 119 35 119 47 141.5 c 128,-1,2
 59 164 59 164 74 174 c 1,3,4
 173 118 173 118 255 118 c 0,5,6
 298 118 298 118 327 136.5 c 128,-1,7
 356 155 356 155 356 185 c 128,-1,8
 356 215 356 215 335.5 237 c 128,-1,9
 315 259 315 259 280 271 c 2,10,-1
 179 307 l 1,11,12
 57 353 57 353 57 451 c 0,13,14
 57 510 57 510 96.5 552 c 128,-1,15
 136 594 136 594 204 605 c 1,16,-1
 204 688 l 1,17,18
 219 691 219 691 243.5 691 c 128,-1,19
 268 691 268 691 283 688 c 1,20,-1
 283 607 l 1,21,22
 360 601 360 601 439 564 c 1,23,24
 439 517 439 517 404 487 c 1,25,26
 319 526 319 526 249 526 c 0,27,28
 207 526 207 526 182 508 c 128,-1,29
 157 490 157 490 157 461.5 c 128,-1,30
 157 433 157 433 173.5 419 c 128,-1,31
 190 405 190 405 228 392 c 2,32,-1
 326 356 l 2,33,34
 385 335 385 335 421.5 294.5 c 128,-1,35
 458 254 458 254 458 192.5 c 128,-1,36
 458 131 458 131 410 87.5 c 128,-1,37
 362 44 362 44 279 38 c 1,38,-1
 279 -39 l 1,39,40
 269 -41 269 -41 239.5 -41 c 128,-1,41
 210 -41 210 -41 200 -39 c 1,42,-1
 200 40 l 1,43,44
 103 54 103 54 34 99 c 1,0,1
EndSplineSet
EndChar

StartChar: percent
Encoding: 37 37 9
Width: 897
GlyphClass: 2
Flags: W
LayerCount: 2
Fore
SplineSet
849 192 m 128,-1,1
 849 79 849 79 800 29 c 0,2,3
 760 -12 760 -12 693 -12 c 128,-1,4
 626 -12 626 -12 585 29 c 1,5,6
 537 80 537 80 537 192.5 c 128,-1,7
 537 305 537 305 585 353 c 1,8,9
 624 395 624 395 692.5 395 c 128,-1,10
 761 395 761 395 800 353 c 1,11,0
 849 305 849 305 849 192 c 128,-1,1
693 330 m 128,-1,13
 621 330 621 330 621 191.5 c 128,-1,14
 621 53 621 53 693 53 c 128,-1,15
 765 53 765 53 765 191.5 c 128,-1,12
 765 330 765 330 693 330 c 128,-1,13
360 492 m 128,-1,17
 360 379 360 379 311 330 c 0,18,19
 270 288 270 288 204 288 c 128,-1,20
 138 288 138 288 97 330 c 0,21,22
 48 379 48 379 48 491.5 c 128,-1,23
 48 604 48 604 97 654 c 0,24,25
 137 695 137 695 205 695 c 128,-1,26
 273 695 273 695 311 654 c 1,27,16
 360 605 360 605 360 492 c 128,-1,17
205 630 m 0,28,29
 132 630 132 630 132 491.5 c 128,-1,30
 132 353 132 353 205 353 c 0,31,32
 276 353 276 353 276 491.5 c 128,-1,33
 276 630 276 630 205 630 c 0,28,29
212 0 m 1,34,-1
 589 683 l 1,35,36
 606 689 606 689 621 689 c 0,37,38
 668 689 668 689 684 683 c 1,39,-1
 308 0 l 1,40,41
 291 -6 291 -6 276 -6 c 0,42,43
 228 -6 228 -6 212 0 c 1,34,-1
EndSplineSet
EndChar

StartChar: ampersand
Encoding: 38 38 10
Width: 618
GlyphClass: 2
Flags: W
LayerCount: 2
Fore
SplineSet
495 320 m 1,0,-1
 496 258 l 1,1,-1
 496 150 l 2,2,3
 496 111 496 111 502 0 c 1,4,5
 482 -5 482 -5 457.5 -5 c 128,-1,6
 433 -5 433 -5 411 -1 c 1,7,-1
 403 40 l 1,8,9
 330 -13 330 -13 240.5 -13 c 128,-1,10
 151 -13 151 -13 101 40.5 c 128,-1,11
 51 94 51 94 51 180 c 0,12,13
 51 246 51 246 89.5 297.5 c 128,-1,14
 128 349 128 349 183 366 c 1,15,16
 138 382 138 382 109 424 c 128,-1,17
 80 466 80 466 80 518 c 0,18,19
 80 594 80 594 136 645 c 128,-1,20
 192 696 192 696 290 696 c 128,-1,21
 388 696 388 696 468 667 c 1,22,23
 468 664 468 664 468 661 c 0,24,25
 468 617 468 617 442 590 c 1,26,27
 357 615 357 615 300 615 c 128,-1,28
 243 615 243 615 213.5 586.5 c 128,-1,29
 184 558 184 558 184 510 c 128,-1,30
 184 462 184 462 215 433 c 128,-1,31
 246 404 246 404 310 404 c 2,32,-1
 493 404 l 2,33,34
 554 404 554 404 587 419 c 1,35,36
 600 403 600 403 600 372 c 0,37,38
 600 320 600 320 527 320 c 2,39,-1
 495 320 l 1,0,-1
399 257 m 2,40,41
 399 297 399 297 400 320 c 1,42,-1
 300 320 l 2,43,44
 227 320 227 320 191 280 c 128,-1,45
 155 240 155 240 155 184.5 c 128,-1,46
 155 129 155 129 184.5 98 c 128,-1,47
 214 67 214 67 264 67 c 0,48,49
 343 67 343 67 399 115 c 1,50,-1
 399 257 l 2,40,41
EndSplineSet
EndChar

StartChar: quotesingle
Encoding: 39 39 11
Width: 207
GlyphClass: 2
Flags: W
LayerCount: 2
Fore
SplineSet
44 711 m 128,-1,1
 44 726 44 726 50 748 c 1,2,3
 71 760 71 760 100.5 760 c 128,-1,4
 130 760 130 760 149 748 c 1,5,6
 156 722 156 722 156 708.5 c 128,-1,7
 156 695 156 695 151 668 c 0,8,9
 132 569 132 569 125 510 c 1,10,11
 117 505 117 505 100.5 505 c 128,-1,12
 84 505 84 505 74 510 c 1,13,14
 66 577 66 577 55 636.5 c 128,-1,0
 44 696 44 696 44 711 c 128,-1,1
EndSplineSet
EndChar

StartChar: parenleft
Encoding: 40 40 12
Width: 326
GlyphClass: 2
Flags: W
LayerCount: 2
Fore
SplineSet
311 774 m 1,0,1
 168 590 168 590 168 324.5 c 128,-1,2
 168 59 168 59 311 -125 c 1,3,4
 293 -164 293 -164 253 -178 c 1,5,6
 164 -90 164 -90 113.5 49 c 128,-1,7
 63 188 63 188 63 325 c 128,-1,8
 63 462 63 462 113.5 601 c 128,-1,9
 164 740 164 740 253 827 c 1,10,11
 293 815 293 815 311 774 c 1,0,1
EndSplineSet
EndChar

StartChar: parenright
Encoding: 41 41 13
Width: 326
GlyphClass: 2
Flags: W
LayerCount: 2
Fore
SplineSet
15 -125 m 1,0,1
 159 61 159 61 159 324.5 c 128,-1,2
 159 588 159 588 15 774 c 1,3,4
 33 815 33 815 74 827 c 1,5,6
 163 740 163 740 213 601 c 128,-1,7
 263 462 263 462 263 325 c 128,-1,8
 263 188 263 188 213 49 c 128,-1,9
 163 -90 163 -90 74 -178 c 1,10,11
 33 -164 33 -164 15 -125 c 1,0,1
EndSplineSet
EndChar

StartChar: asterisk
Encoding: 42 42 14
Width: 502
GlyphClass: 2
Flags: W
LayerCount: 2
Fore
SplineSet
46 551 m 1,0,1
 46 554 46 554 46 563 c 128,-1,2
 46 572 46 572 53.5 595 c 128,-1,3
 61 618 61 618 73 632 c 1,4,-1
 124 615 l 2,5,6
 159 603 159 603 226 562 c 1,7,8
 209 636 209 636 209 676 c 2,9,-1
 208 731 l 1,10,11
 224 738 224 738 251 738 c 128,-1,12
 278 738 278 738 294 731 c 1,13,-1
 294 676 l 1,14,15
 293 644 293 644 275 562 c 1,16,17
 331 598 331 598 378 615 c 1,18,-1
 430 631 l 1,19,20
 441 619 441 619 449.5 593.5 c 128,-1,21
 458 568 458 568 457 550 c 1,22,-1
 405 534 l 2,23,24
 371 523 371 523 290 516 c 1,25,26
 346 470 346 470 372 434 c 2,27,-1
 404 390 l 1,28,29
 396 375 396 375 374.5 359.5 c 128,-1,30
 353 344 353 344 335 340 c 1,31,-1
 304 384 l 1,32,33
 283 411 283 411 251 487 c 1,34,35
 222 416 222 416 198 384 c 1,36,-1
 167 340 l 1,37,38
 150 344 150 344 128.5 359.5 c 128,-1,39
 107 375 107 375 97 391 c 1,40,-1
 129 434 l 2,41,42
 155 468 155 468 211 516 c 1,43,44
 135 520 135 520 98 534 c 1,45,-1
 46 551 l 1,0,1
EndSplineSet
EndChar

StartChar: plus
Encoding: 43 43 15
Width: 530
GlyphClass: 2
Flags: W
LayerCount: 2
Fore
SplineSet
221 334 m 1,0,-1
 220 381 l 1,1,-1
 220 509 l 1,2,3
 241 512 241 512 265.5 512 c 128,-1,4
 290 512 290 512 310 509 c 1,5,-1
 310 381 l 1,6,7
 310 381 310 381 309 334 c 1,8,-1
 355 335 l 1,9,-1
 473 335 l 1,10,11
 477 316 477 316 477 291.5 c 128,-1,12
 477 267 477 267 473 251 c 1,13,-1
 355 251 l 1,14,-1
 309 252 l 1,15,-1
 310 206 l 1,16,-1
 310 77 l 1,17,18
 290 74 290 74 265.5 74 c 128,-1,19
 241 74 241 74 220 77 c 1,20,-1
 220 206 l 1,21,-1
 221 252 l 1,22,-1
 175 251 l 1,23,-1
 57 251 l 1,24,25
 53 267 53 267 53 292.5 c 128,-1,26
 53 318 53 318 57 335 c 1,27,-1
 175 335 l 1,28,-1
 221 334 l 1,0,-1
EndSplineSet
EndChar

StartChar: comma
Encoding: 44 44 16
Width: 266
GlyphClass: 2
Flags: W
LayerCount: 2
Fore
SplineSet
60 -159 m 1,0,1
 35 -145 35 -145 35 -116 c 0,2,3
 35 -112 35 -112 35 -109 c 1,4,5
 70 -93 70 -93 92.5 -66.5 c 128,-1,6
 115 -40 115 -40 116 -9 c 1,7,8
 86 -1 86 -1 77 5 c 1,9,10
 68 21 68 21 68 54.5 c 128,-1,11
 68 88 68 88 77 101 c 1,12,13
 101 114 101 114 138.5 114 c 128,-1,14
 176 114 176 114 194 101 c 1,15,16
 204 78 204 78 204 37 c 0,17,18
 204 -28 204 -28 167 -81 c 128,-1,19
 130 -134 130 -134 60 -159 c 1,0,1
EndSplineSet
EndChar

StartChar: hyphen
Encoding: 45 45 17
Width: 347
GlyphClass: 2
Flags: W
LayerCount: 2
Fore
SplineSet
295 224 m 1,0,-1
 51 224 l 1,1,2
 47 241 47 241 47 265.5 c 128,-1,3
 47 290 47 290 51 309 c 1,4,-1
 295 309 l 1,5,6
 300 292 300 292 300 266 c 128,-1,7
 300 240 300 240 295 224 c 1,0,-1
EndSplineSet
EndChar

StartChar: period
Encoding: 46 46 18
Width: 260
GlyphClass: 2
Flags: W
LayerCount: 2
Fore
SplineSet
62 53 m 128,-1,1
 62 84 62 84 71 102 c 1,2,3
 93 114 93 114 130.5 114 c 128,-1,4
 168 114 168 114 189 102 c 1,5,6
 198 84 198 84 198 53 c 128,-1,7
 198 22 198 22 189 4 c 1,8,9
 170 -8 170 -8 131.5 -8 c 128,-1,10
 93 -8 93 -8 71 4 c 1,11,0
 62 22 62 22 62 53 c 128,-1,1
EndSplineSet
EndChar

StartChar: slash
Encoding: 47 47 19
Width: 419
GlyphClass: 2
Flags: W
LayerCount: 2
Fore
SplineSet
8 -78 m 1,0,-1
 324 760 l 1,1,2
 373 756 373 756 408 729 c 1,3,-1
 92 -110 l 1,4,5
 44 -107 44 -107 8 -78 c 1,0,-1
EndSplineSet
EndChar

StartChar: zero
Encoding: 48 48 20
Width: 530
GlyphClass: 2
Flags: W
LayerCount: 2
Fore
SplineSet
63.5 155.5 m 128,-1,1
 48 221 48 221 48 324.5 c 128,-1,2
 48 428 48 428 63 493 c 128,-1,3
 78 558 78 558 121 604 c 0,4,5
 176 661 176 661 264 661 c 128,-1,6
 352 661 352 661 409 604 c 1,7,8
 451 558 451 558 466.5 492.5 c 128,-1,9
 482 427 482 427 482 324 c 128,-1,10
 482 221 482 221 466.5 155.5 c 128,-1,11
 451 90 451 90 409 44 c 1,12,13
 352 -13 352 -13 265 -13 c 128,-1,14
 178 -13 178 -13 121 44 c 1,15,0
 79 90 79 90 63.5 155.5 c 128,-1,1
150 324 m 128,-1,17
 150 151 150 151 191 99 c 1,18,19
 217 64 217 64 265 64 c 128,-1,20
 313 64 313 64 339 99 c 1,21,22
 380 151 380 151 380 324 c 128,-1,23
 380 497 380 497 339 549 c 1,24,25
 313 584 313 584 265 584 c 128,-1,26
 217 584 217 584 191 549 c 1,27,16
 150 497 150 497 150 324 c 128,-1,17
EndSplineSet
EndChar

StartChar: one
Encoding: 49 49 21
Width: 530
GlyphClass: 2
Flags: W
LayerCount: 2
Fore
SplineSet
246 81 m 1,0,-1
 245 147 l 1,1,-1
 245 387 l 2,2,3
 245 406 245 406 250 508 c 1,4,5
 192 436 192 436 104 399 c 1,6,7
 71 418 71 418 62 457 c 1,8,9
 204 545 204 545 249 648 c 1,10,11
 269 653 269 653 294.5 653 c 128,-1,12
 320 653 320 653 341 648 c 1,13,-1
 341 147 l 1,14,-1
 340 81 l 1,15,-1
 398 82 l 1,16,-1
 468 82 l 1,17,18
 473 60 473 60 473 41.5 c 128,-1,19
 473 23 473 23 468 0 c 1,20,-1
 97 0 l 1,21,22
 92 23 92 23 92 41.5 c 128,-1,23
 92 60 92 60 97 82 c 1,24,-1
 190 82 l 1,25,-1
 246 81 l 1,0,-1
EndSplineSet
EndChar

StartChar: two
Encoding: 50 50 22
Width: 530
GlyphClass: 2
Flags: W
LayerCount: 2
Fore
SplineSet
473 86 m 1,0,1
 473 61 473 61 471 48 c 0,2,3
 463 0 463 0 408 0 c 2,4,-1
 96 0 l 1,5,6
 56 35 56 35 56 62 c 0,7,8
 56 146 56 146 182 253 c 1,9,-1
 279 338 l 1,10,11
 357 405 357 405 357 477 c 0,12,13
 357 524 357 524 328.5 552 c 128,-1,14
 300 580 300 580 258 580 c 128,-1,15
 216 580 216 580 183.5 553.5 c 128,-1,16
 151 527 151 527 133 484 c 1,17,18
 81 488 81 488 63 518 c 1,19,20
 86 579 86 579 139.5 620 c 128,-1,21
 193 661 193 661 272.5 661 c 128,-1,22
 352 661 352 661 404.5 609.5 c 128,-1,23
 457 558 457 558 457 476 c 0,24,25
 457 429 457 429 437.5 388 c 128,-1,26
 418 347 418 347 395.5 323.5 c 128,-1,27
 373 300 373 300 332 265 c 2,28,-1
 255 198 l 1,29,30
 166 122 166 122 154 79 c 1,31,32
 221 86 221 86 284 86 c 2,33,-1
 473 86 l 1,0,1
EndSplineSet
EndChar

StartChar: three
Encoding: 51 51 23
Width: 530
GlyphClass: 2
Flags: W
LayerCount: 2
Fore
SplineSet
429 541 m 2,0,-1
 320 425 l 2,1,2
 301 405 301 405 283 393 c 1,3,4
 365 391 365 391 419 342.5 c 128,-1,5
 473 294 473 294 473 197 c 128,-1,6
 473 100 473 100 405.5 43.5 c 128,-1,7
 338 -13 338 -13 247 -13 c 0,8,9
 127 -13 127 -13 50 52 c 1,10,11
 59 92 59 92 93 118 c 1,12,13
 161 67 161 67 228 67 c 128,-1,14
 295 67 295 67 333 103.5 c 128,-1,15
 371 140 371 140 371 201.5 c 128,-1,16
 371 263 371 263 340 294.5 c 128,-1,17
 309 326 309 326 263 326 c 128,-1,18
 217 326 217 326 186 309 c 1,19,20
 157 322 157 322 146 362 c 1,21,-1
 275 502 l 2,22,23
 305 536 305 536 343 568 c 1,24,-1
 339 572 l 1,25,26
 298 563 298 563 222 563 c 2,27,-1
 78 563 l 1,28,29
 72 580 72 580 72 603 c 128,-1,30
 72 626 72 626 81 648 c 1,31,-1
 428 648 l 1,32,33
 449 610 449 610 449 586 c 128,-1,34
 449 562 449 562 429 541 c 2,0,-1
EndSplineSet
EndChar

StartChar: four
Encoding: 52 52 24
Width: 530
GlyphClass: 2
Flags: W
LayerCount: 2
Fore
SplineSet
388 141 m 1,0,-1
 389 91 l 1,1,-1
 389 0 l 1,2,3
 369 -4 369 -4 341.5 -4 c 128,-1,4
 314 -4 314 -4 294 0 c 1,5,-1
 294 91 l 1,6,-1
 295 141 l 1,7,-1
 244 140 l 1,8,-1
 63 140 l 1,9,10
 41 177 41 177 41 195.5 c 128,-1,11
 41 214 41 214 61 261 c 2,12,-1
 231 654 l 1,13,14
 241 656 241 656 253 656 c 0,15,16
 298 656 298 656 322 636 c 1,17,-1
 201 358 l 2,18,19
 160 262 160 262 136 222 c 1,20,-1
 138 219 l 1,21,22
 195 222 195 222 251 222 c 2,23,-1
 295 222 l 1,24,25
 294 233 294 233 294 256 c 2,26,-1
 294 340 l 2,27,28
 294 375 294 375 311 394.5 c 128,-1,29
 328 414 328 414 358 414 c 2,30,-1
 385 414 l 1,31,-1
 389 410 l 1,32,-1
 389 273 l 1,33,-1
 388 222 l 1,34,-1
 433 223 l 1,35,-1
 489 223 l 1,36,37
 492 210 492 210 492 186 c 128,-1,38
 492 162 492 162 485 141 c 1,39,-1
 388 141 l 1,0,-1
EndSplineSet
EndChar

StartChar: five
Encoding: 53 53 25
Width: 530
GlyphClass: 2
Flags: W
LayerCount: 2
Fore
SplineSet
437 648 m 1,0,1
 444 628 444 628 444 608 c 0,2,3
 444 564 444 564 401 564 c 2,4,-1
 185 564 l 1,5,6
 185 523 185 523 184 511 c 2,7,-1
 180 438 l 2,8,9
 180 428 180 428 177 410 c 1,10,11
 224 430 224 430 270 430 c 0,12,13
 362 430 362 430 416.5 375 c 128,-1,14
 471 320 471 320 471 214.5 c 128,-1,15
 471 109 471 109 404.5 48 c 128,-1,16
 338 -13 338 -13 236 -13 c 128,-1,17
 134 -13 134 -13 58 50 c 1,18,19
 66 90 66 90 100 116 c 1,20,21
 170 67 170 67 232 67 c 128,-1,22
 294 67 294 67 332 105.5 c 128,-1,23
 370 144 370 144 370 216.5 c 128,-1,24
 370 289 370 289 332.5 321 c 128,-1,25
 295 353 295 353 238.5 353 c 128,-1,26
 182 353 182 353 128 307 c 1,27,28
 115 309 115 309 101 319 c 128,-1,29
 87 329 87 329 81 340 c 1,30,-1
 95 641 l 1,31,-1
 102 648 l 1,32,-1
 437 648 l 1,0,1
EndSplineSet
EndChar

StartChar: six
Encoding: 54 54 26
Width: 530
GlyphClass: 2
Flags: W
LayerCount: 2
Fore
SplineSet
424.5 50.5 m 128,-1,1
 365 -13 365 -13 270 -13 c 128,-1,2
 175 -13 175 -13 123 50 c 0,3,4
 112 63 112 63 108 68.5 c 128,-1,5
 104 74 104 74 91 99 c 128,-1,6
 78 124 78 124 72 150 c 0,7,8
 52 230 52 230 52 328 c 0,9,10
 52 483 52 483 118 572 c 128,-1,11
 184 661 184 661 308 661 c 0,12,13
 396 661 396 661 450 629 c 1,14,15
 446 584 446 584 415 560 c 1,16,17
 365 582 365 582 313 582 c 0,18,19
 235 582 235 582 196 524.5 c 128,-1,20
 157 467 157 467 154 373 c 1,21,22
 218 432 218 432 302 432 c 128,-1,23
 386 432 386 432 435 377.5 c 128,-1,24
 484 323 484 323 484 218.5 c 128,-1,0
 484 114 484 114 424.5 50.5 c 128,-1,1
277 350 m 0,25,26
 210 350 210 350 154 291 c 1,27,-1
 154 275 l 2,28,29
 154 156 154 156 197 101 c 0,30,31
 226 63 226 63 276 63 c 128,-1,32
 326 63 326 63 355 102.5 c 128,-1,33
 384 142 384 142 384 209 c 0,34,35
 384 350 384 350 277 350 c 0,25,26
EndSplineSet
EndChar

StartChar: seven
Encoding: 55 55 27
Width: 530
GlyphClass: 2
Flags: W
LayerCount: 2
Fore
SplineSet
70 648 m 1,0,-1
 464 648 l 1,1,2
 483 612 483 612 483 589.5 c 128,-1,3
 483 567 483 567 467 545 c 2,4,-1
 434 497 l 2,5,6
 356 382 356 382 313.5 276.5 c 128,-1,7
 271 171 271 171 258 35 c 1,8,-1
 255 0 l 1,9,10
 233 -5 233 -5 205 -5 c 128,-1,11
 177 -5 177 -5 154 0 c 1,12,-1
 158 40 l 2,13,14
 181 276 181 276 323 482 c 2,15,-1
 334 498 l 2,16,17
 350 523 350 523 389 568 c 1,18,-1
 386 572 l 1,19,20
 346 563 346 563 231 563 c 2,21,-1
 66 563 l 1,22,23
 62 578 62 578 62 600 c 128,-1,24
 62 622 62 622 70 648 c 1,0,-1
EndSplineSet
EndChar

StartChar: eight
Encoding: 56 56 28
Width: 530
GlyphClass: 2
Flags: W
LayerCount: 2
Fore
SplineSet
46 163 m 0,0,1
 46 219 46 219 79.5 265 c 128,-1,2
 113 311 113 311 164 337 c 1,3,4
 64 392 64 392 64 490 c 0,5,6
 64 564 64 564 121.5 612.5 c 128,-1,7
 179 661 179 661 266 661 c 128,-1,8
 353 661 353 661 409 614.5 c 128,-1,9
 465 568 465 568 465 495 c 0,10,11
 465 447 465 447 438 409 c 128,-1,12
 411 371 411 371 367 347 c 1,13,14
 483 286 483 286 483 171 c 1,15,16
 482 87 482 87 418 37 c 128,-1,17
 354 -13 354 -13 258.5 -13 c 128,-1,18
 163 -13 163 -13 104.5 33.5 c 128,-1,19
 46 80 46 80 46 163 c 0,0,1
237 307 m 1,20,-1
 235 307 l 1,21,22
 192 284 192 284 169 247.5 c 128,-1,23
 146 211 146 211 146 164.5 c 128,-1,24
 146 118 146 118 179.5 88.5 c 128,-1,25
 213 59 213 59 263.5 59 c 128,-1,26
 314 59 314 59 348 90 c 128,-1,27
 382 121 382 121 382 172 c 0,28,29
 382 265 382 265 253 302 c 1,30,-1
 237 307 l 1,20,-1
162 492 m 0,31,32
 162 413 162 413 281 380 c 1,33,-1
 293 376 l 1,34,35
 368 417 368 417 368 491 c 0,36,37
 368 536 368 536 338.5 562 c 128,-1,38
 309 588 309 588 264.5 588 c 128,-1,39
 220 588 220 588 191 561.5 c 128,-1,40
 162 535 162 535 162 492 c 0,31,32
EndSplineSet
EndChar

StartChar: nine
Encoding: 57 57 29
Width: 530
GlyphClass: 2
Flags: W
LayerCount: 2
Fore
SplineSet
105.5 597.5 m 128,-1,1
 165 661 165 661 260 661 c 128,-1,2
 355 661 355 661 407 598 c 0,3,4
 418 585 418 585 422 579.5 c 128,-1,5
 426 574 426 574 439 549 c 128,-1,6
 452 524 452 524 458 498 c 0,7,8
 478 418 478 418 478 320 c 0,9,10
 478 165 478 165 412 76 c 128,-1,11
 346 -13 346 -13 222 -13 c 0,12,13
 134 -13 134 -13 80 19 c 1,14,15
 84 64 84 64 115 88 c 1,16,17
 165 66 165 66 217 66 c 0,18,19
 295 66 295 66 334 123 c 128,-1,20
 373 180 373 180 375 274 c 1,21,22
 312 216 312 216 228 216 c 128,-1,23
 144 216 144 216 95 270.5 c 128,-1,24
 46 325 46 325 46 429.5 c 128,-1,0
 46 534 46 534 105.5 597.5 c 128,-1,1
253 298 m 0,25,26
 320 298 320 298 376 357 c 1,27,-1
 376 373 l 2,28,29
 376 492 376 492 333 547 c 0,30,31
 304 585 304 585 254 585 c 128,-1,32
 204 585 204 585 175 545.5 c 128,-1,33
 146 506 146 506 146 439 c 0,34,35
 146 298 146 298 253 298 c 0,25,26
EndSplineSet
EndChar

StartChar: colon
Encoding: 58 58 30
Width: 265
GlyphClass: 2
Flags: W
LayerCount: 2
Fore
SplineSet
65 53 m 128,-1,1
 65 84 65 84 74 102 c 1,2,3
 96 114 96 114 133.5 114 c 128,-1,4
 171 114 171 114 192 102 c 1,5,6
 201 84 201 84 201 53 c 128,-1,7
 201 22 201 22 192 4 c 1,8,9
 173 -8 173 -8 134.5 -8 c 128,-1,10
 96 -8 96 -8 74 4 c 1,11,0
 65 22 65 22 65 53 c 128,-1,1
65 385 m 128,-1,13
 65 416 65 416 74 434 c 1,14,15
 96 446 96 446 133.5 446 c 128,-1,16
 171 446 171 446 192 434 c 1,17,18
 201 416 201 416 201 385 c 128,-1,19
 201 354 201 354 192 336 c 1,20,21
 173 324 173 324 134.5 324 c 128,-1,22
 96 324 96 324 74 336 c 1,23,12
 65 354 65 354 65 385 c 128,-1,13
EndSplineSet
EndChar

StartChar: semicolon
Encoding: 59 59 31
Width: 269
GlyphClass: 2
Flags: W
LayerCount: 2
Fore
SplineSet
59 -159 m 1,0,1
 34 -145 34 -145 34 -116 c 0,2,3
 34 -112 34 -112 34 -109 c 1,4,5
 69 -93 69 -93 91.5 -66.5 c 128,-1,6
 114 -40 114 -40 115 -9 c 1,7,8
 84 -1 84 -1 76 5 c 1,9,10
 67 21 67 21 67 54.5 c 128,-1,11
 67 88 67 88 76 101 c 1,12,13
 100 114 100 114 137.5 114 c 128,-1,14
 175 114 175 114 193 101 c 1,15,16
 203 78 203 78 203 37 c 0,17,18
 203 -28 203 -28 166 -81 c 128,-1,19
 129 -134 129 -134 59 -159 c 1,0,1
67 385 m 128,-1,21
 67 416 67 416 76 434 c 1,22,23
 98 446 98 446 135.5 446 c 128,-1,24
 173 446 173 446 194 434 c 1,25,26
 203 416 203 416 203 385 c 128,-1,27
 203 354 203 354 194 336 c 1,28,29
 175 324 175 324 136.5 324 c 128,-1,30
 98 324 98 324 76 336 c 1,31,20
 67 354 67 354 67 385 c 128,-1,21
EndSplineSet
EndChar

StartChar: less
Encoding: 60 60 32
Width: 530
GlyphClass: 2
Flags: W
LayerCount: 2
Fore
SplineSet
54 331 m 1,0,-1
 425 534 l 1,1,2
 465 510 465 510 470 458 c 1,3,-1
 226 329 l 1,4,5
 186 309 186 309 154 295 c 1,6,-1
 154 289 l 1,7,8
 205 267 205 267 226 255 c 2,9,-1
 470 127 l 1,10,11
 465 76 465 76 425 50 c 1,12,-1
 54 253 l 1,13,14
 48 276 48 276 48 295 c 128,-1,15
 48 314 48 314 54 331 c 1,0,-1
EndSplineSet
EndChar

StartChar: equal
Encoding: 61 61 33
Width: 530
GlyphClass: 2
Flags: W
LayerCount: 2
Fore
SplineSet
473 158 m 1,0,-1
 57 158 l 1,1,2
 53 175 53 175 53 199.5 c 128,-1,3
 53 224 53 224 57 243 c 1,4,-1
 473 243 l 1,5,6
 477 224 477 224 477 199.5 c 128,-1,7
 477 175 477 175 473 158 c 1,0,-1
473 346 m 1,8,-1
 57 346 l 1,9,10
 53 363 53 363 53 387.5 c 128,-1,11
 53 412 53 412 57 431 c 1,12,-1
 473 431 l 1,13,14
 477 412 477 412 477 387.5 c 128,-1,15
 477 363 477 363 473 346 c 1,8,-1
EndSplineSet
EndChar

StartChar: greater
Encoding: 62 62 34
Width: 530
GlyphClass: 2
Flags: W
LayerCount: 2
Fore
SplineSet
476 254 m 1,0,-1
 105 51 l 1,1,2
 65 75 65 75 60 127 c 1,3,-1
 304 256 l 1,4,5
 344 276 344 276 376 290 c 1,6,-1
 376 296 l 1,7,8
 325 318 325 318 304 330 c 2,9,-1
 60 458 l 1,10,11
 65 509 65 509 105 535 c 1,12,-1
 476 332 l 1,13,14
 482 310 482 310 482 290.5 c 128,-1,15
 482 271 482 271 476 254 c 1,0,-1
EndSplineSet
EndChar

StartChar: question
Encoding: 63 63 35
Width: 393
GlyphClass: 2
Flags: W
LayerCount: 2
Fore
SplineSet
12 646 m 1,0,1
 103 695 103 695 193.5 695 c 128,-1,2
 284 695 284 695 334 649 c 128,-1,3
 384 603 384 603 384 526 c 0,4,5
 384 406 384 406 254 333 c 2,6,-1
 191 298 l 1,7,-1
 183 193 l 1,8,9
 169 188 169 188 146 188 c 128,-1,10
 123 188 123 188 108 193 c 1,11,-1
 103 342 l 1,12,-1
 111 353 l 1,13,-1
 159 377 l 1,14,15
 280 440 280 440 280 517 c 0,16,17
 280 559 280 559 253.5 584 c 128,-1,18
 227 609 227 609 172.5 609 c 128,-1,19
 118 609 118 609 48 572 c 1,20,21
 35 584 35 584 24 605 c 128,-1,22
 13 626 13 626 12 646 c 1,0,1
92 93 m 1,23,24
 111 105 111 105 146.5 105 c 128,-1,25
 182 105 182 105 201 93 c 1,26,27
 210 77 210 77 210 47 c 128,-1,28
 210 17 210 17 201 3 c 1,29,30
 182 -9 182 -9 146.5 -9 c 128,-1,31
 111 -9 111 -9 92 3 c 1,32,33
 84 16 84 16 84 47.5 c 128,-1,34
 84 79 84 79 92 93 c 1,23,24
EndSplineSet
EndChar

StartChar: at
Encoding: 64 64 36
Width: 945
GlyphClass: 2
Flags: W
LayerCount: 2
Fore
SplineSet
659 412 m 1,0,-1
 658 156 l 2,1,2
 658 84 658 84 702 84 c 128,-1,3
 746 84 746 84 776 134.5 c 128,-1,4
 806 185 806 185 806 292 c 0,5,6
 806 433 806 433 719.5 518.5 c 128,-1,7
 633 604 633 604 485 604 c 128,-1,8
 337 604 337 604 243 497 c 128,-1,9
 149 390 149 390 149 227.5 c 128,-1,10
 149 65 149 65 231 -23 c 128,-1,11
 313 -111 313 -111 450 -111 c 0,12,13
 564 -111 564 -111 654 -74 c 1,14,15
 681 -99 681 -99 681 -143 c 1,16,17
 564 -187 564 -187 445 -187 c 0,18,19
 268 -187 268 -187 160 -79.5 c 128,-1,20
 52 28 52 28 52 224 c 128,-1,21
 52 420 52 420 175 548 c 128,-1,22
 298 676 298 676 485.5 676 c 128,-1,23
 673 676 673 676 787.5 570.5 c 128,-1,24
 902 465 902 465 902 289 c 0,25,26
 902 159 902 159 842 84.5 c 128,-1,27
 782 10 782 10 699 10 c 128,-1,28
 616 10 616 10 582 73 c 1,29,30
 520 6 520 6 444 6 c 128,-1,31
 368 6 368 6 325.5 65.5 c 128,-1,32
 283 125 283 125 283 230.5 c 128,-1,33
 283 336 283 336 337 408.5 c 128,-1,34
 391 481 391 481 488.5 481 c 128,-1,35
 586 481 586 481 659 412 c 1,0,-1
462 83 m 0,36,37
 488 83 488 83 517 101 c 128,-1,38
 546 119 546 119 566 146 c 1,39,-1
 566 378 l 1,40,41
 535 409 535 409 484.5 409 c 128,-1,42
 434 409 434 409 406 358 c 128,-1,43
 378 307 378 307 378 229 c 0,44,45
 378 83 378 83 462 83 c 0,36,37
EndSplineSet
EndChar

StartChar: A
Encoding: 65 65 37
Width: 608
GlyphClass: 2
Flags: W
LayerCount: 2
Fore
SplineSet
429 169 m 1,0,-1
 368 168 l 1,1,-1
 231 168 l 1,2,-1
 170 169 l 1,3,-1
 116 -1 l 1,4,5
 100 -5 100 -5 74.5 -5 c 128,-1,6
 49 -5 49 -5 24 2 c 1,7,-1
 21 7 l 1,8,-1
 248 683 l 1,9,10
 268 687 268 687 306 687 c 128,-1,11
 344 687 344 687 361 683 c 1,12,-1
 587 6 l 1,13,14
 565 -7 565 -7 534.5 -7 c 128,-1,15
 504 -7 504 -7 491.5 4 c 128,-1,16
 479 15 479 15 469 46 c 2,17,-1
 429 169 l 1,0,-1
196 250 m 1,18,-1
 249 251 l 1,19,-1
 352 251 l 2,20,21
 354 251 354 251 374 250.5 c 128,-1,22
 394 250 394 250 403 250 c 1,23,-1
 354 405 l 1,24,25
 324 496 324 496 302 583 c 1,26,-1
 296 583 l 1,27,28
 280 511 280 511 258 444 c 2,29,-1
 196 250 l 1,18,-1
EndSplineSet
EndChar

StartChar: B
Encoding: 66 66 38
Width: 604
GlyphClass: 2
Flags: W
LayerCount: 2
Fore
SplineSet
316 -4 m 1,0,-1
 99 -1 l 1,1,-1
 92 6 l 1,2,-1
 92 677 l 1,3,-1
 99 684 l 1,4,-1
 304 687 l 1,5,6
 412 687 412 687 466.5 639.5 c 128,-1,7
 521 592 521 592 521 506 c 0,8,9
 521 459 521 459 494.5 420 c 128,-1,10
 468 381 468 381 425 365 c 1,11,12
 479 350 479 350 516 302 c 128,-1,13
 553 254 553 254 553 191 c 0,14,15
 553 104 553 104 494.5 50 c 128,-1,16
 436 -4 436 -4 316 -4 c 1,0,-1
310 320 m 2,17,-1
 191 320 l 1,18,-1
 191 72 l 1,19,20
 235 73 235 73 296 73 c 128,-1,21
 357 73 357 73 385 84.5 c 128,-1,22
 413 96 413 96 426 116 c 0,23,24
 450 153 450 153 450 198.5 c 128,-1,25
 450 244 450 244 417.5 282 c 128,-1,26
 385 320 385 320 310 320 c 2,17,-1
191 610 m 1,27,-1
 191 398 l 1,28,-1
 300 398 l 2,29,30
 366 398 366 398 392.5 429 c 128,-1,31
 419 460 419 460 419 504 c 0,32,33
 419 609 419 609 302 609 c 0,34,35
 225 609 225 609 191 610 c 1,27,-1
EndSplineSet
EndChar

StartChar: C
Encoding: 67 67 39
Width: 603
GlyphClass: 2
Flags: W
LayerCount: 2
Fore
SplineSet
464 451 m 1,0,1
 464 454 464 454 464 474.5 c 128,-1,2
 464 495 464 495 452.5 528.5 c 128,-1,3
 441 562 441 562 407 588 c 128,-1,4
 373 614 373 614 321 614 c 0,5,6
 240 614 240 614 198 544 c 128,-1,7
 156 474 156 474 156 343.5 c 128,-1,8
 156 213 156 213 201 143.5 c 128,-1,9
 246 74 246 74 329 74 c 128,-1,10
 412 74 412 74 505 151 c 1,11,12
 545 125 545 125 555 86 c 1,13,14
 512 42 512 42 447 14.5 c 128,-1,15
 382 -13 382 -13 311.5 -13 c 128,-1,16
 241 -13 241 -13 189.5 16.5 c 128,-1,17
 138 46 138 46 108 96 c 1,18,19
 51 195 51 195 51 338 c 0,20,21
 51 515 51 515 128 605.5 c 128,-1,22
 205 696 205 696 317 696 c 128,-1,23
 429 696 429 696 495.5 638 c 128,-1,24
 562 580 562 580 562 502 c 0,25,26
 562 445 562 445 505 445 c 0,27,28
 487 445 487 445 464 451 c 1,0,1
EndSplineSet
EndChar

StartChar: D
Encoding: 68 68 40
Width: 646
GlyphClass: 2
Flags: W
LayerCount: 2
Fore
SplineSet
571 513 m 128,-1,1
 593 441 593 441 593 340.5 c 128,-1,2
 593 240 593 240 571.5 168.5 c 128,-1,3
 550 97 550 97 488 46 c 0,4,5
 458 21 458 21 408.5 8 c 128,-1,6
 359 -5 359 -5 316 -5 c 128,-1,7
 273 -5 273 -5 99 -1 c 1,8,-1
 92 6 l 1,9,-1
 92 677 l 1,10,-1
 99 684 l 1,11,12
 185 687 185 687 315 687 c 0,13,14
 359 687 359 687 408.5 674 c 128,-1,15
 458 661 458 661 488 636 c 0,16,0
 549 585 549 585 571 513 c 128,-1,1
192 77 m 1,17,-1
 314 76 l 2,18,19
 358 76 358 76 390.5 92.5 c 128,-1,20
 423 109 423 109 441.5 134 c 128,-1,21
 460 159 460 159 471 196 c 128,-1,22
 482 233 482 233 485.5 266.5 c 128,-1,23
 489 300 489 300 489 341 c 128,-1,24
 489 382 489 382 485.5 415.5 c 128,-1,25
 482 449 482 449 471 486 c 128,-1,26
 460 523 460 523 441.5 548 c 128,-1,27
 423 573 423 573 390.5 589.5 c 128,-1,28
 358 606 358 606 314 606 c 2,29,-1
 192 607 l 1,30,-1
 192 77 l 1,17,-1
EndSplineSet
EndChar

StartChar: E
Encoding: 69 69 41
Width: 565
GlyphClass: 2
Flags: W
LayerCount: 2
Fore
SplineSet
190 386 m 1,0,-1
 252 387 l 1,1,-1
 444 387 l 1,2,3
 449 364 449 364 449 345 c 128,-1,4
 449 326 449 326 444 303 c 1,5,-1
 252 303 l 2,6,7
 213 303 213 303 190 304 c 1,8,-1
 190 130 l 2,9,10
 190 122 190 122 189.5 106.5 c 128,-1,11
 189 91 189 91 189 82 c 1,12,13
 217 85 217 85 254 85 c 2,14,-1
 516 85 l 1,15,16
 516 59 516 59 514 46 c 0,17,18
 505 -1 505 -1 450 -1 c 2,19,-1
 149 -1 l 2,20,21
 123 -1 123 -1 107.5 15.5 c 128,-1,22
 92 32 92 32 92 61 c 2,23,-1
 92 677 l 1,24,-1
 98 683 l 1,25,-1
 497 683 l 1,26,27
 500 668 500 668 500 643.5 c 128,-1,28
 500 619 500 619 493 598 c 1,29,-1
 252 598 l 2,30,31
 212 598 212 598 189 599 c 1,32,-1
 190 534 l 1,33,-1
 190 386 l 1,0,-1
EndSplineSet
EndChar

StartChar: F
Encoding: 70 70 42
Width: 520
GlyphClass: 2
Flags: W
LayerCount: 2
Fore
SplineSet
191 598 m 1,0,-1
 192 476 l 1,1,-1
 192 385 l 1,2,3
 208 386 208 386 237 386 c 2,4,-1
 439 386 l 1,5,6
 444 364 444 364 444 344.5 c 128,-1,7
 444 325 444 325 439 302 c 1,8,-1
 237 302 l 2,9,10
 208 302 208 302 192 303 c 1,11,-1
 192 0 l 1,12,13
 172 -4 172 -4 142 -4 c 128,-1,14
 112 -4 112 -4 92 0 c 1,15,-1
 92 677 l 1,16,-1
 99 683 l 1,17,-1
 491 683 l 1,18,19
 497 665 497 665 497 643 c 0,20,21
 497 597 497 597 440 597 c 2,22,-1
 290 597 l 2,23,24
 219 597 219 597 191 598 c 1,0,-1
EndSplineSet
EndChar

StartChar: G
Encoding: 71 71 43
Width: 642
GlyphClass: 2
Flags: W
LayerCount: 2
Fore
SplineSet
351 356 m 1,0,-1
 505 356 l 2,1,2
 544 356 544 356 560.5 339.5 c 128,-1,3
 577 323 577 323 577 290 c 2,4,-1
 577 30 l 1,5,6
 465 -13 465 -13 332 -13 c 0,7,8
 257 -13 257 -13 201 15.5 c 128,-1,9
 145 44 145 44 114 94 c 0,10,11
 51 192 51 192 51 337 c 0,12,13
 51 429 51 429 76 500 c 128,-1,14
 101 571 101 571 144 612 c 1,15,16
 229 696 229 696 344 696 c 0,17,18
 481 696 481 696 576 622 c 1,19,20
 568 575 568 575 526 547 c 1,21,22
 445 610 445 610 343 610 c 0,23,24
 259 610 259 610 207 544 c 128,-1,25
 155 478 155 478 155 336 c 0,26,27
 155 71 155 71 350 71 c 0,28,29
 420 71 420 71 481 89 c 1,30,-1
 481 206 l 2,31,32
 481 250 481 250 482 269 c 1,33,-1
 390 269 l 2,34,35
 343 269 343 269 343 314 c 0,36,37
 343 332 343 332 351 356 c 1,0,-1
EndSplineSet
EndChar

StartChar: H
Encoding: 72 72 44
Width: 673
GlyphClass: 2
Flags: W
LayerCount: 2
Fore
SplineSet
482 395 m 1,0,-1
 481 469 l 1,1,-1
 481 683 l 1,2,3
 500 687 500 687 530.5 687 c 128,-1,4
 561 687 561 687 581 683 c 1,5,-1
 581 0 l 1,6,7
 560 -4 560 -4 530.5 -4 c 128,-1,8
 501 -4 501 -4 481 0 c 1,9,-1
 481 237 l 1,10,-1
 482 311 l 1,11,-1
 424 310 l 1,12,-1
 249 310 l 1,13,-1
 191 311 l 1,14,-1
 192 237 l 1,15,-1
 192 0 l 1,16,17
 172 -4 172 -4 142 -4 c 128,-1,18
 112 -4 112 -4 92 0 c 1,19,-1
 92 683 l 1,20,21
 112 687 112 687 142 687 c 128,-1,22
 172 687 172 687 192 683 c 1,23,-1
 192 469 l 1,24,-1
 191 395 l 1,25,-1
 249 396 l 1,26,-1
 424 396 l 1,27,-1
 482 395 l 1,0,-1
EndSplineSet
EndChar

StartChar: I
Encoding: 73 73 45
Width: 292
GlyphClass: 2
Flags: W
LayerCount: 2
Fore
SplineSet
96 0 m 1,0,-1
 96 683 l 1,1,2
 115 687 115 687 145.5 687 c 128,-1,3
 176 687 176 687 196 683 c 1,4,-1
 196 0 l 1,5,6
 176 -4 176 -4 145.5 -4 c 128,-1,7
 115 -4 115 -4 96 0 c 1,0,-1
EndSplineSet
EndChar

StartChar: J
Encoding: 74 74 46
Width: 446
GlyphClass: 2
Flags: W
LayerCount: 2
Fore
SplineSet
48 107 m 1,0,1
 103 74 103 74 160.5 74 c 128,-1,2
 218 74 218 74 242 110.5 c 128,-1,3
 266 147 266 147 266 232 c 2,4,-1
 266 683 l 1,5,6
 286 687 286 687 316.5 687 c 128,-1,7
 347 687 347 687 366 683 c 1,8,-1
 366 247 l 2,9,10
 366 187 366 187 358.5 144.5 c 128,-1,11
 351 102 351 102 330 65 c 0,12,13
 287 -10 287 -10 165 -10 c 0,14,15
 77 -10 77 -10 10 32 c 1,16,17
 18 75 18 75 48 107 c 1,0,1
EndSplineSet
EndChar

StartChar: K
Encoding: 75 75 47
Width: 594
GlyphClass: 2
Flags: W
LayerCount: 2
Fore
SplineSet
576 26 m 1,0,1
 555 -6 555 -6 508 -6 c 0,2,3
 480 -6 480 -6 466 8 c 128,-1,4
 452 22 452 22 441 56 c 1,5,-1
 385 205 l 2,6,7
 363 263 363 263 336 286.5 c 128,-1,8
 309 310 309 310 263 310 c 0,9,10
 242 310 242 310 192 307 c 1,11,-1
 192 0 l 1,12,13
 172 -4 172 -4 142 -4 c 128,-1,14
 112 -4 112 -4 92 0 c 1,15,-1
 92 683 l 1,16,17
 112 687 112 687 142 687 c 128,-1,18
 172 687 172 687 192 683 c 1,19,-1
 192 394 l 1,20,-1
 252 395 l 2,21,22
 274 395 274 395 289 423 c 1,23,-1
 422 644 l 1,24,25
 434 667 434 667 446.5 676.5 c 128,-1,26
 459 686 459 686 484.5 686 c 128,-1,27
 510 686 510 686 540 683 c 1,28,-1
 546 674 l 1,29,-1
 391 414 l 2,30,31
 373 384 373 384 353 367 c 1,32,33
 401 359 401 359 427.5 329.5 c 128,-1,34
 454 300 454 300 476 243 c 2,35,-1
 532 96 l 2,36,37
 551 47 551 47 576 26 c 1,0,1
EndSplineSet
EndChar

StartChar: L
Encoding: 76 76 48
Width: 511
GlyphClass: 2
Flags: W
LayerCount: 2
Fore
SplineSet
280 86 m 2,0,-1
 482 86 l 1,1,2
 482 59 482 59 480 46 c 0,3,4
 471 -1 471 -1 415 -1 c 2,5,-1
 150 -1 l 2,6,7
 124 -1 124 -1 108 15.5 c 128,-1,8
 92 32 92 32 92 62 c 2,9,-1
 92 681 l 1,10,-1
 98 687 l 1,11,-1
 137 687 l 2,12,13
 167 687 167 687 179.5 672 c 128,-1,14
 192 657 192 657 192 623 c 2,15,-1
 192 83 l 1,16,17
 239 86 239 86 280 86 c 2,0,-1
EndSplineSet
EndChar

StartChar: M
Encoding: 77 77 49
Width: 804
GlyphClass: 2
Flags: W
LayerCount: 2
Fore
SplineSet
76 1 m 1,0,-1
 129 683 l 1,1,2
 152 687 152 687 195 687 c 128,-1,3
 238 687 238 687 260 683 c 1,4,-1
 360 361 l 2,5,6
 368 338 368 338 382 281 c 128,-1,7
 396 224 396 224 399 205 c 1,8,-1
 405 205 l 1,9,10
 415 268 415 268 445 361 c 1,11,-1
 544 683 l 1,12,13
 569 687 569 687 610 687 c 128,-1,14
 651 687 651 687 675 683 c 1,15,-1
 728 1 l 1,16,17
 707 -5 707 -5 679.5 -5 c 128,-1,18
 652 -5 652 -5 633 -1 c 1,19,-1
 608 376 l 2,20,21
 601 489 601 489 600 576 c 1,22,-1
 594 576 l 1,23,-1
 453 105 l 1,24,25
 432 101 432 101 401.5 101 c 128,-1,26
 371 101 371 101 352 105 c 1,27,-1
 210 576 l 1,28,-1
 204 576 l 1,29,30
 198 404 198 404 196 376 c 2,31,-1
 172 -1 l 1,32,33
 152 -5 152 -5 124 -5 c 128,-1,34
 96 -5 96 -5 76 1 c 1,0,-1
EndSplineSet
EndChar

StartChar: N
Encoding: 78 78 50
Width: 678
GlyphClass: 2
Flags: W
LayerCount: 2
Fore
SplineSet
181 565 m 1,0,-1
 177 565 l 1,1,2
 185 429 185 429 185 326 c 2,3,-1
 185 0 l 1,4,5
 162 -4 162 -4 138.5 -4 c 128,-1,6
 115 -4 115 -4 92 0 c 1,7,-1
 92 682 l 1,8,9
 120 687 120 687 153.5 687 c 128,-1,10
 187 687 187 687 212 683 c 1,11,-1
 430 256 l 2,12,13
 445 227 445 227 468 176.5 c 128,-1,14
 491 126 491 126 498 113 c 1,15,-1
 498 112 l 1,16,-1
 501 113 l 1,17,18
 493 239 493 239 493 360 c 2,19,-1
 493 624 l 2,20,21
 493 658 493 658 504.5 672.5 c 128,-1,22
 516 687 516 687 547 687 c 2,23,-1
 579 687 l 1,24,-1
 586 682 l 1,25,-1
 586 1 l 1,26,27
 558 -4 558 -4 524 -4 c 128,-1,28
 490 -4 490 -4 465 0 c 1,29,-1
 246 427 l 2,30,31
 216 486 216 486 181 565 c 1,0,-1
EndSplineSet
EndChar

StartChar: O
Encoding: 79 79 51
Width: 657
GlyphClass: 2
Flags: W
LayerCount: 2
Fore
SplineSet
156 342 m 128,-1,1
 156 290 156 290 163.5 246 c 128,-1,2
 171 202 171 202 188.5 159.5 c 128,-1,3
 206 117 206 117 241.5 92.5 c 128,-1,4
 277 68 277 68 323 68 c 128,-1,5
 369 68 369 68 400.5 85 c 128,-1,6
 432 102 432 102 450.5 128.5 c 128,-1,7
 469 155 469 155 480 192 c 0,8,9
 500 256 500 256 500 325 c 128,-1,10
 500 394 500 394 493 437.5 c 128,-1,11
 486 481 486 481 468.5 523.5 c 128,-1,12
 451 566 451 566 415 590.5 c 128,-1,13
 379 615 379 615 328 615 c 128,-1,14
 277 615 277 615 241.5 590.5 c 128,-1,15
 206 566 206 566 188.5 523.5 c 128,-1,16
 171 481 171 481 163.5 437.5 c 128,-1,0
 156 394 156 394 156 342 c 128,-1,1
157 47 m 0,17,18
 51 139 51 139 51 341.5 c 128,-1,19
 51 544 51 544 157 636 c 0,20,21
 225 696 225 696 328 696 c 128,-1,22
 431 696 431 696 499 636 c 1,23,24
 606 544 606 544 606 341.5 c 128,-1,25
 606 139 606 139 499 47 c 1,26,27
 431 -13 431 -13 328 -13 c 128,-1,28
 225 -13 225 -13 157 47 c 0,17,18
EndSplineSet
EndChar

StartChar: P
Encoding: 80 80 52
Width: 565
GlyphClass: 2
Flags: W
LayerCount: 2
Fore
SplineSet
99 684 m 1,0,-1
 301 687 l 1,1,2
 404 687 404 687 466.5 630 c 128,-1,3
 529 573 529 573 529 466.5 c 128,-1,4
 529 360 529 360 466.5 302.5 c 128,-1,5
 404 245 404 245 301 245 c 2,6,-1
 192 245 l 1,7,-1
 192 0 l 1,8,9
 172 -4 172 -4 142 -4 c 128,-1,10
 112 -4 112 -4 92 0 c 1,11,-1
 92 677 l 1,12,-1
 99 684 l 1,0,-1
192 324 m 1,13,-1
 299 325 l 2,14,15
 347 325 347 325 376.5 348.5 c 128,-1,16
 406 372 406 372 415 401 c 128,-1,17
 424 430 424 430 424 477 c 128,-1,18
 424 524 424 524 396 565 c 128,-1,19
 368 606 368 606 297 606 c 128,-1,20
 226 606 226 606 192 607 c 1,21,-1
 192 324 l 1,13,-1
EndSplineSet
EndChar

StartChar: Q
Encoding: 81 81 53
Width: 650
GlyphClass: 2
Flags: W
LayerCount: 2
Fore
SplineSet
455 -100 m 2,0,-1
 340 -12 l 1,1,2
 336 -13 336 -13 329 -13 c 0,3,4
 222 -13 222 -13 154 45 c 1,5,6
 51 136 51 136 51 341.5 c 128,-1,7
 51 547 51 547 154 638 c 0,8,9
 220 696 220 696 324.5 696 c 128,-1,10
 429 696 429 696 495 638 c 0,11,12
 598 547 598 547 598 346.5 c 128,-1,13
 598 146 598 146 506 59 c 1,14,15
 478 31 478 31 448 19 c 1,16,-1
 470 4 l 1,17,18
 547 -52 547 -52 597 -53 c 1,19,20
 595 -88 595 -88 575 -107 c 128,-1,21
 555 -126 555 -126 522 -126 c 128,-1,22
 489 -126 489 -126 455 -100 c 2,0,-1
325 615 m 0,23,24
 155 615 155 615 155 342.5 c 128,-1,25
 155 70 155 70 325 70 c 0,26,27
 493 70 493 70 493 342.5 c 128,-1,28
 493 615 493 615 325 615 c 0,23,24
EndSplineSet
EndChar

StartChar: R
Encoding: 82 82 54
Width: 599
GlyphClass: 2
Flags: W
LayerCount: 2
Fore
SplineSet
99 684 m 1,0,-1
 311 687 l 1,1,2
 416 687 416 687 476 633.5 c 128,-1,3
 536 580 536 580 536 483 c 0,4,5
 536 416 536 416 500 368 c 128,-1,6
 464 320 464 320 407 301 c 1,7,8
 452 285 452 285 477 217 c 2,9,-1
 523 96 l 2,10,11
 543 43 543 43 567 24 c 1,12,13
 547 -7 547 -7 500 -7 c 0,14,15
 473 -7 473 -7 459 7.5 c 128,-1,16
 445 22 445 22 433 55 c 2,17,-1
 381 194 l 2,18,19
 366 235 366 235 343.5 256 c 128,-1,20
 321 277 321 277 278 277 c 2,21,-1
 192 277 l 1,22,-1
 192 0 l 1,23,24
 172 -4 172 -4 142 -4 c 128,-1,25
 112 -4 112 -4 92 0 c 1,26,-1
 92 677 l 1,27,-1
 99 684 l 1,0,-1
192 608 m 1,28,-1
 192 357 l 1,29,30
 251 360 251 360 313.5 360 c 128,-1,31
 376 360 376 360 404 395 c 128,-1,32
 432 430 432 430 432 483 c 0,33,34
 432 607 432 607 307 607 c 0,35,36
 226 607 226 607 192 608 c 1,28,-1
EndSplineSet
EndChar

StartChar: S
Encoding: 83 83 55
Width: 556
GlyphClass: 2
Flags: W
LayerCount: 2
Fore
SplineSet
32 62 m 1,0,1
 37 110 37 110 75 139 c 1,2,3
 179 71 179 71 276 71 c 0,4,5
 337 71 337 71 373 98.5 c 128,-1,6
 409 126 409 126 409 170 c 0,7,8
 409 239 409 239 314 281 c 1,9,-1
 197 331 l 1,10,11
 60 391 60 391 60 504 c 0,12,13
 60 586 60 586 122.5 641 c 128,-1,14
 185 696 185 696 288 696 c 128,-1,15
 391 696 391 696 493 645 c 1,16,17
 491 597 491 597 456 566 c 1,18,19
 362 613 362 613 296 613 c 128,-1,20
 230 613 230 613 196 585.5 c 128,-1,21
 162 558 162 558 162 520.5 c 128,-1,22
 162 483 162 483 184 461 c 128,-1,23
 206 439 206 439 248 421 c 2,24,-1
 364 372 l 1,25,26
 513 306 513 306 513 186 c 0,27,28
 513 97 513 97 451 42 c 128,-1,29
 389 -13 389 -13 264.5 -13 c 128,-1,30
 140 -13 140 -13 32 62 c 1,0,1
EndSplineSet
EndChar

StartChar: T
Encoding: 84 84 56
Width: 490
GlyphClass: 2
Flags: W
LayerCount: 2
Fore
SplineSet
295 600 m 1,0,-1
 296 526 l 1,1,-1
 296 0 l 1,2,3
 275 -4 275 -4 245.5 -4 c 128,-1,4
 216 -4 216 -4 196 0 c 1,5,-1
 196 600 l 1,6,-1
 139 599 l 1,7,-1
 18 599 l 1,8,9
 14 618 14 618 14 640.5 c 128,-1,10
 14 663 14 663 18 683 c 1,11,-1
 473 683 l 1,12,13
 479 666 479 666 479 643 c 0,14,15
 479 599 479 599 423 599 c 2,16,-1
 353 599 l 1,17,-1
 296 600 l 1,18,-1
 295 600 l 1,0,-1
EndSplineSet
EndChar

StartChar: U
Encoding: 85 85 57
Width: 668
GlyphClass: 2
Flags: W
LayerCount: 2
Fore
SplineSet
584 683 m 1,0,-1
 584 238 l 2,1,2
 584 117 584 117 516.5 52 c 128,-1,3
 449 -13 449 -13 334 -13 c 128,-1,4
 219 -13 219 -13 151.5 52 c 128,-1,5
 84 117 84 117 84 238 c 2,6,-1
 84 681 l 1,7,-1
 90 687 l 1,8,-1
 128 687 l 2,9,10
 159 687 159 687 171.5 672 c 128,-1,11
 184 657 184 657 184 623 c 2,12,-1
 184 239 l 2,13,14
 184 155 184 155 222 111.5 c 128,-1,15
 260 68 260 68 334 68 c 128,-1,16
 408 68 408 68 446.5 111.5 c 128,-1,17
 485 155 485 155 485 239 c 2,18,-1
 485 683 l 1,19,20
 504 687 504 687 534.5 687 c 128,-1,21
 565 687 565 687 584 683 c 1,0,-1
EndSplineSet
EndChar

StartChar: V
Encoding: 86 86 58
Width: 571
GlyphClass: 2
Flags: W
LayerCount: 2
Fore
SplineSet
298 91 m 1,0,-1
 460 683 l 1,1,2
 477 687 477 687 503.5 687 c 128,-1,3
 530 687 530 687 549 681 c 1,4,-1
 553 674 l 1,5,-1
 353 -1 l 1,6,7
 305 -5 305 -5 277 -5 c 128,-1,8
 249 -5 249 -5 232.5 4.5 c 128,-1,9
 216 14 216 14 208 44 c 2,10,-1
 22 674 l 1,11,12
 56 690 56 690 83 690 c 0,13,14
 124 690 124 690 138 641 c 2,15,-1
 245 271 l 2,16,17
 254 241 254 241 289 100 c 0,18,19
 291 91 291 91 298 91 c 1,0,-1
EndSplineSet
EndChar

StartChar: W
Encoding: 87 87 59
Width: 844
GlyphClass: 2
Flags: W
LayerCount: 2
Fore
SplineSet
158 46 m 2,0,-1
 32 678 l 1,1,2
 57 690 57 690 84.5 690 c 128,-1,3
 112 690 112 690 124 678 c 128,-1,4
 136 666 136 666 141 636 c 2,5,-1
 206 287 l 1,6,-1
 239 94 l 2,7,8
 240 86 240 86 241.5 84.5 c 128,-1,9
 243 83 243 83 247 83 c 1,10,-1
 360 669 l 1,11,12
 385 673 385 673 426.5 673 c 128,-1,13
 468 673 468 673 489 669 c 1,14,-1
 592 94 l 2,15,16
 593 86 593 86 595 84.5 c 128,-1,17
 597 83 597 83 601 83 c 1,18,19
 614 169 614 169 637 288 c 1,20,-1
 717 683 l 1,21,22
 734 687 734 687 761 687 c 128,-1,23
 788 687 788 687 810 681 c 1,24,-1
 815 674 l 1,25,-1
 670 1 l 1,26,27
 634 -5 634 -5 594 -5 c 128,-1,28
 554 -5 554 -5 539 5 c 128,-1,29
 524 15 524 15 518 45 c 2,30,-1
 469 319 l 1,31,32
 451 413 451 413 427 568 c 1,33,-1
 420 568 l 1,34,35
 396 426 396 426 375 319 c 2,36,-1
 311 0 l 1,37,38
 271 -5 271 -5 225 -5 c 0,39,40
 168 -5 168 -5 158 46 c 2,0,-1
EndSplineSet
EndChar

StartChar: X
Encoding: 88 88 60
Width: 584
GlyphClass: 2
Flags: W
LayerCount: 2
Fore
SplineSet
447 683 m 1,0,1
 460 688 460 688 490 688 c 128,-1,2
 520 688 520 688 540 679 c 1,3,-1
 543 672 l 1,4,-1
 351 361 l 1,5,-1
 565 15 l 1,6,7
 534 -7 534 -7 497 -7 c 128,-1,8
 460 -7 460 -7 435 33 c 2,9,-1
 285 276 l 1,10,-1
 118 0 l 1,11,12
 103 -5 103 -5 73.5 -5 c 128,-1,13
 44 -5 44 -5 22 4 c 1,14,-1
 19 11 l 1,15,-1
 235 358 l 1,16,-1
 44 668 l 1,17,18
 75 690 75 690 111.5 690 c 128,-1,19
 148 690 148 690 173 650 c 2,20,-1
 301 442 l 1,21,-1
 447 683 l 1,0,1
EndSplineSet
EndChar

StartChar: Y
Encoding: 89 89 61
Width: 498
GlyphClass: 2
Flags: W
LayerCount: 2
Fore
SplineSet
301 447 m 2,0,-1
 394 683 l 1,1,2
 411 688 411 688 435.5 688 c 128,-1,3
 460 688 460 688 485 681 c 1,4,-1
 490 674 l 1,5,-1
 300 220 l 1,6,-1
 300 0 l 1,7,8
 280 -4 280 -4 249.5 -4 c 128,-1,9
 219 -4 219 -4 200 0 c 1,10,-1
 200 222 l 1,11,-1
 10 672 l 1,12,13
 42 690 42 690 67.5 690 c 128,-1,14
 93 690 93 690 105.5 679.5 c 128,-1,15
 118 669 118 669 127 646 c 2,16,-1
 210 445 l 2,17,18
 226 405 226 405 252 322 c 1,19,-1
 257 322 l 1,20,21
 273 377 273 377 301 447 c 2,0,-1
EndSplineSet
EndChar

StartChar: Z
Encoding: 90 90 62
Width: 560
GlyphClass: 2
Flags: W
LayerCount: 2
Fore
SplineSet
62 108 m 1,0,-1
 319 496 l 2,1,2
 348 539 348 539 397 603 c 1,3,-1
 394 606 l 1,4,5
 353 598 353 598 238 598 c 2,6,-1
 75 598 l 1,7,8
 71 614 71 614 71 636.5 c 128,-1,9
 71 659 71 659 78 683 c 1,10,-1
 487 683 l 1,11,12
 502 632 502 632 502 615 c 128,-1,13
 502 598 502 598 488 577 c 2,14,-1
 233 193 l 2,15,16
 197 138 197 138 155 84 c 1,17,-1
 158 81 l 1,18,19
 221 87 221 87 275 87 c 2,20,-1
 385 87 l 2,21,22
 464 87 464 87 503 105 c 1,23,24
 511 83 511 83 511 56 c 0,25,26
 511 0 511 0 441 0 c 2,27,-1
 62 0 l 1,28,29
 49 48 49 48 49 67 c 128,-1,30
 49 86 49 86 62 108 c 1,0,-1
EndSplineSet
EndChar

StartChar: bracketleft
Encoding: 91 91 63
Width: 337
GlyphClass: 2
Flags: W
LayerCount: 2
Fore
SplineSet
303 -140 m 1,0,-1
 106 -148 l 1,1,-1
 99 -141 l 1,2,-1
 99 807 l 1,3,-1
 106 814 l 1,4,-1
 303 806 l 1,5,6
 307 795 307 795 307 777.5 c 128,-1,7
 307 760 307 760 299 736 c 1,8,-1
 197 733 l 1,9,-1
 197 -67 l 1,10,-1
 299 -69 l 1,11,12
 307 -96 307 -96 307 -112 c 128,-1,13
 307 -128 307 -128 303 -140 c 1,0,-1
EndSplineSet
EndChar

StartChar: backslash
Encoding: 92 92 64
Width: 419
GlyphClass: 2
Flags: W
LayerCount: 2
Fore
SplineSet
327 -110 m 1,0,-1
 11 729 l 1,1,2
 48 758 48 758 95 760 c 1,3,-1
 411 -78 l 1,4,5
 376 -105 376 -105 327 -110 c 1,0,-1
EndSplineSet
EndChar

StartChar: bracketright
Encoding: 93 93 65
Width: 337
GlyphClass: 2
Flags: W
LayerCount: 2
Fore
SplineSet
231 -148 m 1,0,-1
 34 -140 l 1,1,2
 31 -131 31 -131 31 -110 c 128,-1,3
 31 -89 31 -89 39 -69 c 1,4,-1
 141 -67 l 1,5,-1
 141 733 l 1,6,-1
 39 736 l 1,7,8
 31 754 31 754 31 776 c 128,-1,9
 31 798 31 798 34 806 c 1,10,-1
 231 814 l 1,11,-1
 238 807 l 1,12,-1
 238 -141 l 1,13,-1
 231 -148 l 1,0,-1
EndSplineSet
EndChar

StartChar: asciicircum
Encoding: 94 94 66
Width: 530
GlyphClass: 2
Flags: W
LayerCount: 2
Fore
SplineSet
317 648 m 1,0,-1
 484 306 l 1,1,2
 468 301 468 301 437.5 301 c 128,-1,3
 407 301 407 301 388 306 c 1,4,-1
 302 489 l 2,5,6
 296 501 296 501 268 570 c 1,7,-1
 262 570 l 1,8,9
 234 501 234 501 228 489 c 2,10,-1
 142 306 l 1,11,12
 123 301 123 301 92.5 301 c 128,-1,13
 62 301 62 301 46 306 c 1,14,-1
 213 648 l 1,15,16
 231 652 231 652 264.5 652 c 128,-1,17
 298 652 298 652 317 648 c 1,0,-1
EndSplineSet
EndChar

StartChar: underscore
Encoding: 95 95 67
Width: 525
GlyphClass: 2
Flags: W
LayerCount: 2
Fore
SplineSet
526 -152 m 1,0,-1
 0 -152 l 1,1,2
 -4 -137 -4 -137 -4 -114.5 c 128,-1,3
 -4 -92 -4 -92 0 -76 c 1,4,-1
 526 -76 l 1,5,6
 530 -100 530 -100 530 -115 c 128,-1,7
 530 -130 530 -130 526 -152 c 1,0,-1
EndSplineSet
EndChar

StartChar: grave
Encoding: 96 96 68
Width: 398
GlyphClass: 2
Flags: W
LayerCount: 2
Fore
SplineSet
135 735 m 1,0,-1
 277 577 l 1,1,2
 266 548 266 548 234 537 c 1,3,-1
 65 670 l 1,4,5
 73 691 73 691 93 709.5 c 128,-1,6
 113 728 113 728 135 735 c 1,0,-1
EndSplineSet
EndChar

StartChar: a
Encoding: 97 97 69
Width: 506
GlyphClass: 2
Flags: W
LayerCount: 2
Fore
SplineSet
458 43 m 1,0,1
 448 8 448 8 420 -7 c 1,2,3
 365 4 365 4 344 57 c 1,4,5
 272 -13 272 -13 197 -13 c 128,-1,6
 122 -13 122 -13 83.5 31 c 128,-1,7
 45 75 45 75 45 134 c 0,8,9
 45 216 45 216 97.5 257.5 c 128,-1,10
 150 299 150 299 236 299 c 0,11,12
 287 299 287 299 335 292 c 1,13,-1
 335 333 l 2,14,15
 335 424 335 424 251 424 c 0,16,17
 186 424 186 424 92 385 c 1,18,19
 65 412 65 412 63 457 c 1,20,21
 168 503 168 503 268 503 c 0,22,23
 345 503 345 503 387.5 461 c 128,-1,24
 430 419 430 419 430 336 c 2,25,-1
 430 131 l 2,26,27
 430 67 430 67 458 43 c 1,0,1
212 65 m 0,28,29
 279 65 279 65 335 130 c 1,30,-1
 335 226 l 1,31,32
 296 231 296 231 245 231 c 128,-1,33
 194 231 194 231 168 207 c 128,-1,34
 142 183 142 183 142 145 c 128,-1,35
 142 107 142 107 160.5 86 c 128,-1,36
 179 65 179 65 212 65 c 0,28,29
EndSplineSet
EndChar

StartChar: b
Encoding: 98 98 70
Width: 527
GlyphClass: 2
Flags: W
LayerCount: 2
Fore
SplineSet
437 433 m 128,-1,1
 482 365 482 365 482 246 c 128,-1,2
 482 127 482 127 419 59.5 c 128,-1,3
 356 -8 356 -8 262 -8 c 128,-1,4
 168 -8 168 -8 80 25 c 1,5,-1
 80 729 l 1,6,-1
 87 735 l 1,7,-1
 122 735 l 2,8,9
 152 735 152 735 163.5 721 c 128,-1,10
 175 707 175 707 175 673 c 2,11,-1
 175 448 l 1,12,13
 236 501 236 501 314 501 c 128,-1,0
 392 501 392 501 437 433 c 128,-1,1
289 420 m 0,14,15
 223 420 223 420 175 360 c 1,16,-1
 175 78 l 1,17,18
 213 65 213 65 264.5 65 c 128,-1,19
 316 65 316 65 349.5 113 c 128,-1,20
 383 161 383 161 383 249 c 128,-1,21
 383 337 383 337 357 378.5 c 128,-1,22
 331 420 331 420 289 420 c 0,14,15
EndSplineSet
EndChar

StartChar: c
Encoding: 99 99 71
Width: 471
GlyphClass: 2
Flags: W
LayerCount: 2
Fore
SplineSet
343 306 m 1,0,1
 343 311 343 311 343 316 c 0,2,3
 343 431 343 431 251 431 c 0,4,5
 201 431 201 431 173.5 383 c 128,-1,6
 146 335 146 335 146 243 c 0,7,8
 146 67 146 67 262 67 c 0,9,10
 315 67 315 67 385 119 c 1,11,12
 399 111 399 111 411 94 c 128,-1,13
 423 77 423 77 427 61 c 1,14,15
 353 -13 353 -13 250 -13 c 128,-1,16
 147 -13 147 -13 96.5 60 c 128,-1,17
 46 133 46 133 46 253 c 128,-1,18
 46 373 46 373 106 439.5 c 128,-1,19
 166 506 166 506 252 506 c 128,-1,20
 338 506 338 506 385.5 459.5 c 128,-1,21
 433 413 433 413 433 357.5 c 128,-1,22
 433 302 433 302 383 302 c 0,23,24
 360 302 360 302 343 306 c 1,0,1
EndSplineSet
EndChar

StartChar: d
Encoding: 100 100 72
Width: 529
GlyphClass: 2
Flags: W
LayerCount: 2
Fore
SplineSet
90 56 m 128,-1,1
 46 125 46 125 46 245.5 c 128,-1,2
 46 366 46 366 102.5 433.5 c 128,-1,3
 159 501 159 501 236 501 c 0,4,5
 292 501 292 501 352 467 c 1,6,-1
 352 729 l 1,7,-1
 358 735 l 1,8,-1
 395 735 l 2,9,10
 425 735 425 735 436 720.5 c 128,-1,11
 447 706 447 706 447 673 c 2,12,-1
 447 140 l 2,13,14
 447 68 447 68 475 43 c 1,15,16
 465 8 465 8 437 -7 c 1,17,18
 383 4 383 4 363 56 c 1,19,20
 303 -13 303 -13 218.5 -13 c 128,-1,0
 134 -13 134 -13 90 56 c 128,-1,1
238 68 m 0,21,22
 304 68 304 68 352 134 c 1,23,-1
 352 385 l 1,24,25
 296 423 296 423 249.5 423 c 128,-1,26
 203 423 203 423 173.5 376.5 c 128,-1,27
 144 330 144 330 144 242 c 128,-1,28
 144 154 144 154 170.5 111 c 128,-1,29
 197 68 197 68 238 68 c 0,21,22
EndSplineSet
EndChar

StartChar: e
Encoding: 101 101 73
Width: 501
GlyphClass: 2
Flags: W
LayerCount: 2
Fore
SplineSet
443 216 m 1,0,-1
 146 216 l 1,1,2
 149 145 149 145 176 106 c 128,-1,3
 203 67 203 67 266 67 c 128,-1,4
 329 67 329 67 405 106 c 1,5,6
 430 82 430 82 436 43 c 1,7,8
 356 -13 356 -13 248.5 -13 c 128,-1,9
 141 -13 141 -13 93.5 59 c 128,-1,10
 46 131 46 131 46 246.5 c 128,-1,11
 46 362 46 362 99.5 434 c 128,-1,12
 153 506 153 506 249.5 506 c 128,-1,13
 346 506 346 506 398 445.5 c 128,-1,14
 450 385 450 385 450 292 c 0,15,16
 450 254 450 254 443 216 c 1,0,-1
330.5 396.5 m 128,-1,18
 305 434 305 434 254 434 c 128,-1,19
 203 434 203 434 176 395.5 c 128,-1,20
 149 357 149 357 146 287 c 1,21,-1
 356 287 l 1,22,-1
 356 300 l 2,23,17
 356 359 356 359 330.5 396.5 c 128,-1,18
EndSplineSet
EndChar

StartChar: f
Encoding: 102 102 74
Width: 331
GlyphClass: 2
Flags: W
LayerCount: 2
Fore
SplineSet
102 0 m 1,0,-1
 102 423 l 1,1,-1
 16 422 l 1,2,3
 12 444 12 444 12 457 c 128,-1,4
 12 470 12 470 16 494 c 1,5,-1
 98 493 l 1,6,7
 91 549 91 549 91 586 c 0,8,9
 91 653 91 653 131.5 696 c 128,-1,10
 172 739 172 739 241 739 c 128,-1,11
 310 739 310 739 368 716 c 1,12,13
 368 675 368 675 346 651 c 1,14,15
 295 666 295 666 259 666 c 128,-1,16
 223 666 223 666 203 643.5 c 128,-1,17
 183 621 183 621 183 581.5 c 128,-1,18
 183 542 183 542 191 492 c 1,19,-1
 333 494 l 1,20,21
 337 470 337 470 337 457 c 128,-1,22
 337 444 337 444 333 422 c 1,23,-1
 197 423 l 1,24,-1
 197 0 l 1,25,26
 178 -4 178 -4 150 -4 c 128,-1,27
 122 -4 122 -4 102 0 c 1,0,-1
EndSplineSet
EndChar

StartChar: g
Encoding: 103 103 75
Width: 527
GlyphClass: 2
Flags: W
LayerCount: 2
Fore
SplineSet
90.5 59.5 m 128,-1,1
 46 128 46 128 46 249.5 c 128,-1,2
 46 371 46 371 102.5 438.5 c 128,-1,3
 159 506 159 506 236.5 506 c 128,-1,4
 314 506 314 506 374 453 c 1,5,6
 395 490 395 490 438 500 c 1,7,8
 466 485 466 485 476 450 c 1,9,10
 448 425 448 425 448 353 c 2,11,-1
 448 53 l 2,12,13
 448 -98 448 -98 401 -155 c 0,14,15
 348 -220 348 -220 238 -220 c 0,16,17
 149 -220 149 -220 67 -187 c 1,18,19
 67 -142 67 -142 93 -113 c 1,20,21
 159 -145 159 -145 230 -145 c 128,-1,22
 301 -145 301 -145 328 -106.5 c 128,-1,23
 355 -68 355 -68 355 -1 c 2,24,-1
 355 48 l 1,25,26
 294 -9 294 -9 214.5 -9 c 128,-1,0
 135 -9 135 -9 90.5 59.5 c 128,-1,1
355 136 m 1,27,-1
 355 380 l 1,28,29
 303 427 303 427 253 427 c 128,-1,30
 203 427 203 427 173.5 381 c 128,-1,31
 144 335 144 335 144 246.5 c 128,-1,32
 144 158 144 158 170 115.5 c 128,-1,33
 196 73 196 73 237 73 c 0,34,35
 305 73 305 73 355 136 c 1,27,-1
EndSplineSet
EndChar

StartChar: h
Encoding: 104 104 76
Width: 544
GlyphClass: 2
Flags: W
LayerCount: 2
Fore
SplineSet
468 339 m 2,0,-1
 468 103 l 2,1,2
 468 45 468 45 484 14 c 1,3,4
 458 -7 458 -7 423 -7 c 0,5,6
 372 -7 372 -7 372 55 c 2,7,-1
 372 314 l 2,8,9
 372 368 372 368 358 391 c 128,-1,10
 344 414 344 414 309.5 414 c 128,-1,11
 275 414 275 414 238.5 396 c 128,-1,12
 202 378 202 378 175 349 c 1,13,-1
 175 0 l 1,14,15
 158 -4 158 -4 128.5 -4 c 128,-1,16
 99 -4 99 -4 80 0 c 1,17,-1
 80 729 l 1,18,-1
 87 735 l 1,19,-1
 123 735 l 2,20,21
 153 735 153 735 164 720.5 c 128,-1,22
 175 706 175 706 175 673 c 2,23,-1
 175 434 l 1,24,25
 249 501 249 501 336 501 c 0,26,27
 403 501 403 501 435.5 456 c 128,-1,28
 468 411 468 411 468 339 c 2,0,-1
EndSplineSet
EndChar

StartChar: j
Encoding: 106 106 78
Width: 275
GlyphClass: 2
Flags: W
LayerCount: 2
Fore
SplineSet
196 411 m 2,0,-1
 196 17 l 2,1,2
 196 -69 196 -69 187 -105.5 c 128,-1,3
 178 -142 178 -142 164 -160 c 0,4,5
 130 -200 130 -200 57 -219 c 1,6,7
 34 -198 34 -198 28 -159 c 1,8,9
 70 -138 70 -138 85 -112 c 128,-1,10
 100 -86 100 -86 100 -36 c 2,11,-1
 100 371 l 2,12,13
 100 399 100 399 90.5 410.5 c 128,-1,14
 81 422 81 422 57 422 c 2,15,-1
 37 422 l 1,16,17
 33 444 33 444 33 455 c 128,-1,18
 33 466 33 466 37 492 c 1,19,20
 73 496 73 496 108 496 c 2,21,-1
 120 496 l 2,22,23
 155 496 155 496 175.5 473.5 c 128,-1,24
 196 451 196 451 196 411 c 2,0,-1
68 630 m 128,-1,26
 68 655 68 655 76 673 c 1,27,28
 97 685 97 685 131 685 c 128,-1,29
 165 685 165 685 182 673 c 1,30,31
 190 655 190 655 190 630 c 128,-1,32
 190 605 190 605 182 587 c 1,33,34
 165 575 165 575 130 575 c 128,-1,35
 95 575 95 575 76 587 c 1,36,25
 68 605 68 605 68 630 c 128,-1,26
EndSplineSet
EndChar

StartChar: k
Encoding: 107 107 79
Width: 499
GlyphClass: 2
Flags: W
LayerCount: 2
Fore
SplineSet
398 185 m 1,0,-1
 433 101 l 2,1,2
 457 41 457 41 481 23 c 1,3,4
 457 -7 457 -7 416 -7 c 0,5,6
 391 -7 391 -7 378.5 6 c 128,-1,7
 366 19 366 19 353 50 c 2,8,-1
 311 149 l 2,9,10
 294 189 294 189 276.5 203 c 128,-1,11
 259 217 259 217 229.5 217 c 128,-1,12
 200 217 200 217 175 214 c 1,13,-1
 175 0 l 1,14,15
 158 -4 158 -4 128.5 -4 c 128,-1,16
 99 -4 99 -4 80 0 c 1,17,-1
 80 729 l 1,18,-1
 87 735 l 1,19,-1
 123 735 l 2,20,21
 153 735 153 735 164 720.5 c 128,-1,22
 175 706 175 706 175 673 c 2,23,-1
 175 295 l 1,24,-1
 211 297 l 2,25,26
 224 297 224 297 235 312 c 1,27,-1
 327 454 l 1,28,29
 340 476 340 476 354 486 c 128,-1,30
 368 496 368 496 396.5 496 c 128,-1,31
 425 496 425 496 443 495 c 1,32,-1
 449 487 l 1,33,-1
 336 311 l 2,34,35
 323 290 323 290 305 275 c 1,36,37
 366 259 366 259 398 185 c 1,0,-1
EndSplineSet
EndChar

StartChar: l
Encoding: 108 108 80
Width: 291
GlyphClass: 2
Flags: W
LayerCount: 2
Fore
SplineSet
212 73 m 2,0,-1
 251 73 l 1,1,2
 259 51 259 51 259 33 c 128,-1,3
 259 15 259 15 257 3 c 1,4,5
 217 -4 217 -4 174 -4 c 0,6,7
 79 -4 79 -4 79 94 c 2,8,-1
 79 729 l 1,9,-1
 85 735 l 1,10,-1
 121 735 l 2,11,12
 151 735 151 735 162 721 c 128,-1,13
 173 707 173 707 173 673 c 2,14,-1
 173 117 l 2,15,16
 173 73 173 73 212 73 c 2,0,-1
EndSplineSet
EndChar

StartChar: m
Encoding: 109 109 81
Width: 796
GlyphClass: 2
Flags: W
LayerCount: 2
Fore
SplineSet
352 315 m 2,0,1
 352 368 352 368 337 391 c 128,-1,2
 322 414 322 414 290 414 c 0,3,4
 233 414 233 414 177 350 c 1,5,-1
 177 0 l 1,6,7
 160 -4 160 -4 129.5 -4 c 128,-1,8
 99 -4 99 -4 80 0 c 1,9,-1
 80 490 l 1,10,-1
 87 497 l 1,11,-1
 123 497 l 2,12,13
 174 497 174 497 177 434 c 1,14,15
 243 502 243 502 322 502 c 128,-1,16
 401 502 401 502 433 428 c 1,17,18
 512 502 512 502 593 502 c 0,19,20
 655 502 655 502 687.5 458 c 128,-1,21
 720 414 720 414 720 346 c 2,22,-1
 720 103 l 2,23,24
 720 45 720 45 736 14 c 1,25,26
 712 -7 712 -7 675 -7 c 0,27,28
 624 -7 624 -7 624 55 c 2,29,-1
 624 316 l 2,30,31
 624 369 624 369 609 391.5 c 128,-1,32
 594 414 594 414 562 414 c 0,33,34
 503 414 503 414 448 349 c 1,35,-1
 448 0 l 1,36,37
 431 -4 431 -4 400 -4 c 128,-1,38
 369 -4 369 -4 352 0 c 1,39,-1
 352 315 l 2,0,1
EndSplineSet
EndChar

StartChar: n
Encoding: 110 110 82
Width: 546
GlyphClass: 2
Flags: W
LayerCount: 2
Fore
SplineSet
470 340 m 2,0,-1
 470 103 l 2,1,2
 470 43 470 43 485 14 c 1,3,4
 460 -7 460 -7 425 -7 c 0,5,6
 373 -7 373 -7 373 55 c 2,7,-1
 373 315 l 2,8,9
 373 369 373 369 359.5 391.5 c 128,-1,10
 346 414 346 414 311.5 414 c 128,-1,11
 277 414 277 414 240.5 396 c 128,-1,12
 204 378 204 378 177 349 c 1,13,-1
 177 0 l 1,14,15
 160 -4 160 -4 129.5 -4 c 128,-1,16
 99 -4 99 -4 80 0 c 1,17,-1
 80 491 l 1,18,-1
 87 497 l 1,19,-1
 123 497 l 2,20,21
 174 497 174 497 177 434 c 1,22,23
 252 502 252 502 338 502 c 0,24,25
 405 502 405 502 437.5 457 c 128,-1,26
 470 412 470 412 470 340 c 2,0,-1
EndSplineSet
EndChar

StartChar: o
Encoding: 111 111 83
Width: 520
GlyphClass: 2
Flags: W
LayerCount: 2
Fore
SplineSet
404 451 m 0,0,1
 474 380 474 380 474 246.5 c 128,-1,2
 474 113 474 113 404 42 c 0,3,4
 349 -13 349 -13 260 -13 c 128,-1,5
 171 -13 171 -13 116 42 c 0,6,7
 46 113 46 113 46 246.5 c 128,-1,8
 46 380 46 380 116 451 c 0,9,10
 171 506 171 506 260 506 c 128,-1,11
 349 506 349 506 404 451 c 0,0,1
146 246 m 0,12,13
 146 62 146 62 260 62 c 128,-1,14
 374 62 374 62 374 246 c 0,15,16
 374 298 374 298 364.5 337 c 128,-1,17
 355 376 355 376 328.5 404 c 128,-1,18
 302 432 302 432 260 432 c 128,-1,19
 218 432 218 432 191.5 404 c 128,-1,20
 165 376 165 376 155.5 337 c 128,-1,21
 146 298 146 298 146 246 c 0,12,13
EndSplineSet
EndChar

StartChar: p
Encoding: 112 112 84
Width: 529
GlyphClass: 2
Flags: W
LayerCount: 2
Fore
SplineSet
439 437 m 128,-1,1
 483 368 483 368 483 247 c 128,-1,2
 483 126 483 126 426.5 58.5 c 128,-1,3
 370 -9 370 -9 293 -9 c 0,4,5
 233 -9 233 -9 175 26 c 1,6,-1
 175 -153 l 2,7,8
 175 -186 175 -186 164 -200.5 c 128,-1,9
 153 -215 153 -215 123 -215 c 2,10,-1
 87 -215 l 1,11,-1
 80 -209 l 1,12,-1
 80 491 l 1,13,-1
 87 497 l 1,14,-1
 117 497 l 2,15,16
 165 497 165 497 173 445 c 1,17,18
 232 506 232 506 313.5 506 c 128,-1,0
 395 506 395 506 439 437 c 128,-1,1
291 424 m 0,19,20
 221 424 221 424 175 355 c 1,21,-1
 175 109 l 1,22,23
 230 70 230 70 278 70 c 128,-1,24
 326 70 326 70 355.5 116.5 c 128,-1,25
 385 163 385 163 385 251 c 128,-1,26
 385 339 385 339 358.5 381.5 c 128,-1,27
 332 424 332 424 291 424 c 0,19,20
EndSplineSet
EndChar

StartChar: q
Encoding: 113 113 85
Width: 528
GlyphClass: 2
Flags: W
LayerCount: 2
Fore
SplineSet
353 -153 m 2,0,-1
 353 46 l 1,1,2
 292 -9 292 -9 213.5 -9 c 128,-1,3
 135 -9 135 -9 90.5 59.5 c 128,-1,4
 46 128 46 128 46 249.5 c 128,-1,5
 46 371 46 371 102.5 438.5 c 128,-1,6
 159 506 159 506 237 506 c 128,-1,7
 315 506 315 506 373 455 c 1,8,9
 396 490 396 490 438 500 c 1,10,11
 464 485 464 485 476 450 c 1,12,13
 448 426 448 426 448 353 c 2,14,-1
 448 -209 l 1,15,-1
 441 -215 l 1,16,-1
 405 -215 l 2,17,18
 375 -215 375 -215 364 -200.5 c 128,-1,19
 353 -186 353 -186 353 -153 c 2,0,-1
237 73 m 0,20,21
 303 73 303 73 353 133 c 1,22,-1
 353 382 l 1,23,24
 301 427 301 427 252.5 427 c 128,-1,25
 204 427 204 427 174 380.5 c 128,-1,26
 144 334 144 334 144 246.5 c 128,-1,27
 144 159 144 159 170.5 116 c 128,-1,28
 197 73 197 73 237 73 c 0,20,21
EndSplineSet
EndChar

StartChar: r
Encoding: 114 114 86
Width: 365
GlyphClass: 2
Flags: W
LayerCount: 2
Fore
SplineSet
53 448 m 1,0,1
 61 482 61 482 89 500 c 1,2,3
 155 484 155 484 176 411 c 1,4,5
 217 500 217 500 307 500 c 0,6,7
 331 500 331 500 359 494 c 1,8,9
 359 440 359 440 336 403 c 1,10,11
 330 404 330 404 296 407 c 1,12,13
 226 407 226 407 186 329 c 1,14,-1
 186 0 l 1,15,16
 169 -4 169 -4 137.5 -4 c 128,-1,17
 106 -4 106 -4 89 0 c 1,18,-1
 89 346 l 2,19,20
 89 414 89 414 53 448 c 1,0,1
EndSplineSet
EndChar

StartChar: s
Encoding: 115 115 87
Width: 437
GlyphClass: 2
Flags: W
LayerCount: 2
Fore
SplineSet
32 37 m 1,0,1
 33 54 33 54 42.5 74 c 128,-1,2
 52 94 52 94 65 105 c 1,3,4
 147 60 147 60 197.5 60 c 128,-1,5
 248 60 248 60 273 78.5 c 128,-1,6
 298 97 298 97 299 126 c 1,7,8
 299 172 299 172 234 197 c 2,9,-1
 178 219 l 1,10,11
 50 267 50 267 50 360 c 0,12,13
 50 427 50 427 99.5 466.5 c 128,-1,14
 149 506 149 506 229.5 506 c 128,-1,15
 310 506 310 506 386 471 c 1,16,17
 387 452 387 452 378.5 431 c 128,-1,18
 370 410 370 410 357 399 c 1,19,20
 284 431 284 431 224 431 c 0,21,22
 190 431 190 431 169 414.5 c 128,-1,23
 148 398 148 398 148 373 c 128,-1,24
 148 348 148 348 163.5 333.5 c 128,-1,25
 179 319 179 319 213 306 c 2,26,-1
 273 284 l 1,27,28
 399 235 399 235 399 134 c 0,29,30
 399 67 399 67 346.5 27 c 128,-1,31
 294 -13 294 -13 204.5 -13 c 128,-1,32
 115 -13 115 -13 32 37 c 1,0,1
EndSplineSet
EndChar

StartChar: t
Encoding: 116 116 88
Width: 348
GlyphClass: 2
Flags: W
LayerCount: 2
Fore
SplineSet
318 494 m 1,0,1
 322 477 322 477 322 457.5 c 128,-1,2
 322 438 322 438 318 422 c 1,3,-1
 193 423 l 1,4,-1
 193 116 l 2,5,6
 193 73 193 73 234 73 c 2,7,-1
 304 73 l 1,8,9
 312 54 312 54 312 31.5 c 128,-1,10
 312 9 312 9 311 3 c 1,11,12
 253 -4 253 -4 201 -4 c 0,13,14
 99 -4 99 -4 99 94 c 2,15,-1
 99 423 l 1,16,-1
 26 422 l 1,17,18
 22 438 22 438 22 457.5 c 128,-1,19
 22 477 22 477 26 494 c 1,20,-1
 99 493 l 1,21,-1
 99 584 l 2,22,23
 99 618 99 618 110 632 c 128,-1,24
 121 646 121 646 151 646 c 2,25,-1
 187 646 l 1,26,-1
 193 640 l 1,27,-1
 193 492 l 1,28,-1
 318 494 l 1,0,1
EndSplineSet
EndChar

StartChar: u
Encoding: 117 117 89
Width: 547
GlyphClass: 2
Flags: W
LayerCount: 2
Fore
SplineSet
76 153 m 2,0,-1
 76 390 l 2,1,2
 76 448 76 448 60 479 c 1,3,4
 83 499 83 499 116 499 c 128,-1,5
 149 499 149 499 160.5 484 c 128,-1,6
 172 469 172 469 172 437 c 2,7,-1
 172 178 l 2,8,9
 172 124 172 124 186 101 c 128,-1,10
 200 78 200 78 234.5 78 c 128,-1,11
 269 78 269 78 305 96 c 128,-1,12
 341 114 341 114 369 144 c 1,13,-1
 369 493 l 1,14,15
 395 497 395 497 417 497 c 128,-1,16
 439 497 439 497 465 493 c 1,17,-1
 465 139 l 2,18,19
 465 67 465 67 493 42 c 1,20,21
 484 9 484 9 456 -7 c 1,22,23
 395 6 395 6 377 66 c 1,24,25
 302 -9 302 -9 207 -9 c 0,26,27
 141 -9 141 -9 108.5 36 c 128,-1,28
 76 81 76 81 76 153 c 2,0,-1
EndSplineSet
EndChar

StartChar: v
Encoding: 118 118 90
Width: 453
GlyphClass: 2
Flags: W
LayerCount: 2
Fore
SplineSet
235 79 m 1,0,-1
 356 493 l 1,1,2
 369 497 369 497 395 497 c 128,-1,3
 421 497 421 497 442 490 c 1,4,-1
 445 486 l 1,5,6
 346 167 346 167 288 0 c 1,7,8
 262 -5 262 -5 225 -5 c 128,-1,9
 188 -5 188 -5 173.5 5.5 c 128,-1,10
 159 16 159 16 148 50 c 2,11,-1
 7 486 l 1,12,13
 38 500 38 500 63 500 c 0,14,15
 104 500 104 500 115 460 c 1,16,-1
 185 236 l 2,17,18
 208 164 208 164 225 87 c 0,19,20
 227 79 227 79 235 79 c 1,0,-1
EndSplineSet
EndChar

StartChar: w
Encoding: 119 119 91
Width: 718
GlyphClass: 2
Flags: W
LayerCount: 2
Fore
SplineSet
129 50 m 2,0,-1
 25 487 l 1,1,2
 54 500 54 500 82 500 c 0,3,4
 119 500 119 500 127 461 c 2,5,-1
 174 248 l 1,6,7
 192 160 192 160 207 81 c 0,8,9
 209 72 209 72 215 72 c 1,10,-1
 303 491 l 1,11,12
 328 496 328 496 362 496 c 128,-1,13
 396 496 396 496 419 491 c 1,14,-1
 503 81 l 2,15,16
 505 72 505 72 511 72 c 1,17,18
 516 93 516 93 523 128 c 0,19,20
 534 183 534 183 549 248 c 2,21,-1
 604 493 l 1,22,23
 619 497 619 497 648 497 c 128,-1,24
 677 497 677 497 694 490 c 1,25,-1
 697 485 l 1,26,-1
 575 -1 l 1,27,28
 550 -5 550 -5 510.5 -5 c 128,-1,29
 471 -5 471 -5 455 5.5 c 128,-1,30
 439 16 439 16 433 49 c 2,31,-1
 403 192 l 1,32,-1
 363 402 l 1,33,-1
 358 402 l 1,34,35
 348 346 348 346 316 193 c 1,36,-1
 274 0 l 1,37,38
 237 -5 237 -5 202.5 -5 c 128,-1,39
 168 -5 168 -5 152.5 6 c 128,-1,40
 137 17 137 17 129 50 c 2,0,-1
EndSplineSet
EndChar

StartChar: x
Encoding: 120 120 92
Width: 458
GlyphClass: 2
Flags: W
LayerCount: 2
Fore
SplineSet
332 493 m 1,0,1
 348 497 348 497 374 497 c 128,-1,2
 400 497 400 497 419 490 c 1,3,-1
 422 483 l 1,4,-1
 281 262 l 1,5,-1
 443 15 l 1,6,7
 407 -8 407 -8 376 -8 c 128,-1,8
 345 -8 345 -8 326 22 c 2,9,-1
 222 181 l 1,10,-1
 110 -1 l 1,11,12
 98 -5 98 -5 68.5 -5 c 128,-1,13
 39 -5 39 -5 20 3 c 1,14,-1
 16 10 l 1,15,-1
 174 256 l 1,16,-1
 29 479 l 1,17,18
 61 501 61 501 93 501 c 128,-1,19
 125 501 125 501 145 472 c 2,20,-1
 234 335 l 1,21,-1
 332 493 l 1,0,1
EndSplineSet
EndChar

StartChar: y
Encoding: 121 121 93
Width: 464
GlyphClass: 2
Flags: W
LayerCount: 2
Fore
SplineSet
452 485 m 1,0,-1
 318 16 l 2,1,2
 282 -109 282 -109 236 -163.5 c 128,-1,3
 190 -218 190 -218 98 -218 c 0,4,5
 49 -218 49 -218 6 -203 c 1,6,7
 6 -199 6 -199 6 -194 c 0,8,9
 6 -160 6 -160 27 -133 c 1,10,11
 59 -145 59 -145 103.5 -145 c 128,-1,12
 148 -145 148 -145 175 -113 c 128,-1,13
 202 -81 202 -81 222 -16 c 1,14,-1
 225 -5 l 1,15,16
 194 -3 194 -3 177 8 c 128,-1,17
 160 19 160 19 151 48 c 2,18,-1
 18 486 l 1,19,20
 49 500 49 500 76 500 c 0,21,22
 113 500 113 500 126 457 c 2,23,-1
 196 222 l 2,24,25
 202 203 202 203 235 73 c 0,26,27
 237 66 237 66 244 66 c 1,28,-1
 357 493 l 1,29,30
 373 497 373 497 400 497 c 128,-1,31
 427 497 427 497 448 490 c 1,32,-1
 452 485 l 1,0,-1
EndSplineSet
EndChar

StartChar: z
Encoding: 122 122 94
Width: 446
GlyphClass: 2
Flags: W
LayerCount: 2
Fore
SplineSet
52 93 m 2,0,-1
 220 323 l 1,1,2
 261 376 261 376 299 420 c 1,3,-1
 296 423 l 1,4,5
 242 417 242 417 163 417 c 2,6,-1
 54 417 l 1,7,8
 51 433 51 433 51 450.5 c 128,-1,9
 51 468 51 468 56 493 c 1,10,-1
 389 493 l 1,11,12
 404 451 404 451 404 435.5 c 128,-1,13
 404 420 404 420 391 401 c 2,14,-1
 223 174 l 2,15,16
 217 165 217 165 146 76 c 1,17,-1
 149 72 l 1,18,19
 193 76 193 76 243 76 c 2,20,-1
 292 76 l 2,21,22
 370 76 370 76 401 89 c 1,23,24
 411 68 411 68 411 46 c 0,25,26
 411 0 411 0 348 0 c 2,27,-1
 50 0 l 1,28,29
 36 41 36 41 36 56.5 c 128,-1,30
 36 72 36 72 52 93 c 2,0,-1
EndSplineSet
EndChar

StartChar: braceleft
Encoding: 123 123 95
Width: 340
GlyphClass: 2
Flags: W
LayerCount: 2
Fore
SplineSet
313 817 m 1,0,1
 332 796 332 796 332 763 c 0,2,3
 332 755 332 755 330 749 c 1,4,-1
 282 734 l 2,5,6
 222 715 222 715 222 646 c 2,7,-1
 222 478 l 2,8,9
 222 430 222 430 199.5 388.5 c 128,-1,10
 177 347 177 347 140 329 c 1,11,-1
 140 321 l 1,12,13
 177 303 177 303 199.5 261.5 c 128,-1,14
 222 220 222 220 222 172 c 2,15,-1
 222 4 l 2,16,17
 222 -67 222 -67 282 -84 c 1,18,-1
 330 -100 l 1,19,20
 332 -106 332 -106 332 -114.5 c 128,-1,21
 332 -123 332 -123 327.5 -139.5 c 128,-1,22
 323 -156 323 -156 313 -167 c 1,23,-1
 264 -159 l 2,24,25
 200 -148 200 -148 162 -107 c 128,-1,26
 124 -66 124 -66 124 3 c 2,27,-1
 124 174 l 2,28,29
 124 218 124 218 101 249.5 c 128,-1,30
 78 281 78 281 42 293 c 1,31,32
 38 304 38 304 38 325 c 128,-1,33
 38 346 38 346 42 357 c 1,34,35
 78 369 78 369 101 400.5 c 128,-1,36
 124 432 124 432 124 476 c 2,37,-1
 124 647 l 2,38,39
 124 716 124 716 162 757 c 128,-1,40
 200 798 200 798 264 809 c 2,41,-1
 313 817 l 1,0,1
EndSplineSet
EndChar

StartChar: bar
Encoding: 124 124 96
Width: 254
GlyphClass: 2
Flags: W
LayerCount: 2
Fore
SplineSet
81 -141 m 1,0,-1
 81 774 l 1,1,2
 98 779 98 779 126 779 c 128,-1,3
 154 779 154 779 172 774 c 1,4,-1
 172 -141 l 1,5,6
 153 -145 153 -145 126.5 -145 c 128,-1,7
 100 -145 100 -145 81 -141 c 1,0,-1
EndSplineSet
EndChar

StartChar: braceright
Encoding: 125 125 97
Width: 340
GlyphClass: 2
Flags: W
LayerCount: 2
Fore
SplineSet
27 -167 m 1,0,1
 8 -146 8 -146 8 -113 c 0,2,3
 8 -106 8 -106 10 -100 c 1,4,-1
 58 -84 l 1,5,6
 118 -67 118 -67 118 4 c 2,7,-1
 118 172 l 2,8,9
 118 220 118 220 140.5 261.5 c 128,-1,10
 163 303 163 303 200 321 c 1,11,-1
 200 329 l 1,12,13
 163 347 163 347 140.5 388.5 c 128,-1,14
 118 430 118 430 118 478 c 2,15,-1
 118 646 l 2,16,17
 118 715 118 715 58 734 c 2,18,-1
 10 749 l 1,19,20
 8 755 8 755 8 764 c 128,-1,21
 8 773 8 773 12.5 789.5 c 128,-1,22
 17 806 17 806 27 817 c 1,23,-1
 77 809 l 2,24,25
 140 798 140 798 178 756.5 c 128,-1,26
 216 715 216 715 216 647 c 2,27,-1
 216 476 l 2,28,29
 216 432 216 432 239 400.5 c 128,-1,30
 262 369 262 369 298 357 c 1,31,32
 302 346 302 346 302 325 c 128,-1,33
 302 304 302 304 298 293 c 1,34,35
 262 281 262 281 239 249.5 c 128,-1,36
 216 218 216 218 216 174 c 2,37,-1
 216 3 l 2,38,39
 216 -65 216 -65 178 -106.5 c 128,-1,40
 140 -148 140 -148 77 -159 c 2,41,-1
 27 -167 l 1,0,1
EndSplineSet
EndChar

StartChar: asciitilde
Encoding: 126 126 98
Width: 580
GlyphClass: 2
Flags: W
LayerCount: 2
Fore
SplineSet
272 352 m 1,0,-1
 351 317 l 2,1,2
 378 305 378 305 407.5 305 c 128,-1,3
 437 305 437 305 464 338 c 2,4,-1
 482 359 l 1,5,6
 499 357 499 357 516.5 347 c 128,-1,7
 534 337 534 337 540 321 c 1,8,-1
 527 299 l 1,9,10
 480 213 480 213 392 213 c 0,11,12
 353 213 353 213 308 234 c 2,13,-1
 229 269 l 2,14,15
 202 281 202 281 172.5 281 c 128,-1,16
 143 281 143 281 116 248 c 2,17,-1
 98 227 l 1,18,19
 82 228 82 228 65 238.5 c 128,-1,20
 48 249 48 249 41 264 c 1,21,-1
 53 287 l 1,22,23
 99 372 99 372 188 372 c 0,24,25
 230 372 230 372 272 352 c 1,0,-1
EndSplineSet
EndChar

StartChar: exclamdown
Encoding: 161 161 99
Width: 285
GlyphClass: 2
Flags: W
LayerCount: 2
Fore
SplineSet
182 300 m 1,0,-1
 193 -169 l 1,1,2
 155 -197 155 -197 89 -197 c 1,3,-1
 83 -190 l 1,4,-1
 107 300 l 1,5,6
 122 305 122 305 145 305 c 128,-1,7
 168 305 168 305 182 300 c 1,0,-1
144 386 m 128,-1,9
 110 386 110 386 90 399 c 1,10,11
 81 413 81 413 81 443 c 128,-1,12
 81 473 81 473 90 489 c 1,13,14
 111 501 111 501 144 501 c 128,-1,15
 177 501 177 501 199 489 c 1,16,17
 207 475 207 475 207 443.5 c 128,-1,18
 207 412 207 412 199 399 c 1,19,8
 178 386 178 386 144 386 c 128,-1,9
EndSplineSet
EndChar

StartChar: cent
Encoding: 162 162 100
Width: 469
GlyphClass: 2
Flags: W
LayerCount: 2
Fore
SplineSet
208 -31 m 1,0,-1
 208 69 l 1,1,2
 123 83 123 83 83.5 154.5 c 128,-1,3
 44 226 44 226 44 331 c 128,-1,4
 44 436 44 436 91 501.5 c 128,-1,5
 138 567 138 567 211 582 c 1,6,-1
 211 681 l 1,7,8
 225 684 225 684 249.5 684 c 128,-1,9
 274 684 274 684 290 681 c 1,10,-1
 290 583 l 1,11,12
 357 573 357 573 393 530 c 128,-1,13
 429 487 429 487 429 440 c 0,14,15
 429 382 429 382 378 382 c 0,16,17
 356 382 356 382 340 386 c 1,18,19
 340 392 340 392 340 398 c 0,20,21
 340 441 340 441 320 475.5 c 128,-1,22
 300 510 300 510 248 510 c 0,23,24
 146 510 146 510 146 328.5 c 128,-1,25
 146 147 146 147 261 147 c 0,26,27
 320 147 320 147 382 200 c 1,28,29
 414 179 414 179 426 145 c 1,30,31
 372 83 372 83 287 69 c 1,32,-1
 287 -31 l 1,33,34
 276 -33 276 -33 246.5 -33 c 128,-1,35
 217 -33 217 -33 208 -31 c 1,0,-1
EndSplineSet
EndChar

StartChar: sterling
Encoding: 163 163 101
Width: 528
GlyphClass: 2
Flags: W
LayerCount: 2
Fore
SplineSet
212 342 m 1,0,-1
 397 343 l 1,1,2
 402 325 402 325 402 306.5 c 128,-1,3
 402 288 402 288 397 269 c 1,4,5
 284 269 284 269 227 270 c 1,6,-1
 227 263 l 2,7,8
 227 176 227 176 159 81 c 1,9,-1
 162 78 l 1,10,11
 252 83 252 83 297 83 c 2,12,-1
 489 83 l 1,13,14
 489 60 489 60 487 47 c 0,15,16
 480 -1 480 -1 423 -1 c 2,17,-1
 69 -1 l 1,18,19
 56 47 56 47 56 67.5 c 128,-1,20
 56 88 56 88 69 106 c 2,21,-1
 86 131 l 2,22,23
 135 204 135 204 135 265 c 2,24,-1
 135 269 l 1,25,-1
 59 269 l 1,26,27
 53 286 53 286 53 305 c 128,-1,28
 53 324 53 324 59 343 c 1,29,30
 68 343 68 343 88 342.5 c 128,-1,31
 108 342 108 342 118 342 c 1,32,33
 115 351 115 351 105 374.5 c 128,-1,34
 95 398 95 398 90 411 c 0,35,36
 77 450 77 450 77 483 c 0,37,38
 77 553 77 553 128 607 c 128,-1,39
 179 661 179 661 274 661 c 0,40,41
 389 661 389 661 471 588 c 1,42,43
 469 568 469 568 454 548.5 c 128,-1,44
 439 529 439 529 420 523 c 1,45,46
 354 578 354 578 281 578 c 0,47,48
 235 578 235 578 205 551.5 c 128,-1,49
 175 525 175 525 175 478 c 0,50,51
 175 442 175 442 192 396.5 c 128,-1,52
 209 351 209 351 212 342 c 1,0,-1
EndSplineSet
EndChar

StartChar: currency
Encoding: 164 164 102
Width: 573
GlyphClass: 2
Flags: W
LayerCount: 2
Fore
SplineSet
104 213 m 1,0,1
 69 267 69 267 69 335.5 c 128,-1,2
 69 404 69 404 104 456 c 1,3,-1
 33 533 l 1,4,5
 49 563 49 563 87 587 c 1,6,-1
 164 515 l 1,7,8
 219 549 219 549 286.5 549 c 128,-1,9
 354 549 354 549 407 515 c 1,10,-1
 486 588 l 1,11,12
 519 570 519 570 539 535 c 1,13,-1
 467 456 l 1,14,15
 503 403 503 403 503 334.5 c 128,-1,16
 503 266 503 266 467 213 c 1,17,-1
 539 135 l 1,18,19
 522 104 522 104 486 82 c 1,20,-1
 407 154 l 1,21,22
 354 121 354 121 286 121 c 128,-1,23
 218 121 218 121 165 154 c 1,24,-1
 87 82 l 1,25,26
 54 101 54 101 33 136 c 1,27,-1
 104 213 l 1,0,1
199.5 434 m 128,-1,29
 167 393 167 393 167 334.5 c 128,-1,30
 167 276 167 276 199.5 235.5 c 128,-1,31
 232 195 232 195 286.5 195 c 128,-1,32
 341 195 341 195 373 235 c 128,-1,33
 405 275 405 275 405 334.5 c 128,-1,34
 405 394 405 394 373 434.5 c 128,-1,35
 341 475 341 475 286.5 475 c 128,-1,28
 232 475 232 475 199.5 434 c 128,-1,29
EndSplineSet
EndChar

StartChar: yen
Encoding: 165 165 103
Width: 512
GlyphClass: 2
Flags: W
LayerCount: 2
Fore
SplineSet
454 174 m 1,0,-1
 303 174 l 1,1,-1
 303 0 l 1,2,3
 283 -4 283 -4 254.5 -4 c 128,-1,4
 226 -4 226 -4 207 0 c 1,5,-1
 207 174 l 1,6,-1
 56 174 l 1,7,8
 51 194 51 194 51 206.5 c 128,-1,9
 51 219 51 219 56 241 c 1,10,-1
 202 241 l 1,11,-1
 166 322 l 1,12,-1
 56 322 l 1,13,14
 51 344 51 344 51 356 c 128,-1,15
 51 368 51 368 56 390 c 1,16,-1
 136 390 l 1,17,-1
 25 639 l 1,18,19
 62 658 62 658 91.5 658 c 128,-1,20
 121 658 121 658 138 620 c 1,21,-1
 215 432 l 1,22,23
 232 395 232 395 256 319 c 1,24,-1
 262 319 l 1,25,26
 291 406 291 406 304 433 c 1,27,-1
 395 650 l 1,28,29
 416 656 416 656 437 656 c 128,-1,30
 458 656 458 656 484 650 c 1,31,-1
 488 644 l 1,32,-1
 374 390 l 1,33,-1
 454 390 l 1,34,35
 458 373 458 373 458 356 c 128,-1,36
 458 339 458 339 454 322 c 1,37,-1
 344 322 l 1,38,-1
 307 241 l 1,39,-1
 454 241 l 1,40,41
 458 224 458 224 458 207 c 128,-1,42
 458 190 458 190 454 174 c 1,0,-1
EndSplineSet
EndChar

StartChar: brokenbar
Encoding: 166 166 104
Width: 248
GlyphClass: 2
Flags: W
LayerCount: 2
Fore
SplineSet
79 -141 m 1,0,-1
 79 246 l 1,1,2
 95 251 95 251 123.5 251 c 128,-1,3
 152 251 152 251 169 246 c 1,4,-1
 169 -141 l 1,5,6
 150 -145 150 -145 123 -145 c 128,-1,7
 96 -145 96 -145 79 -141 c 1,0,-1
79 387 m 1,8,-1
 79 774 l 1,9,10
 95 779 95 779 123.5 779 c 128,-1,11
 152 779 152 779 169 774 c 1,12,-1
 169 387 l 1,13,14
 150 383 150 383 123 383 c 128,-1,15
 96 383 96 383 79 387 c 1,8,-1
EndSplineSet
EndChar

StartChar: section
Encoding: 167 167 105
Width: 484
GlyphClass: 2
Flags: W
LayerCount: 2
Fore
SplineSet
410 401 m 128,-1,1
 452 364 452 364 452 310 c 0,2,3
 452 213 452 213 345 155 c 1,4,5
 415 109 415 109 415 41 c 128,-1,6
 415 -27 415 -27 363.5 -67 c 128,-1,7
 312 -107 312 -107 222.5 -107 c 128,-1,8
 133 -107 133 -107 67 -65 c 1,9,10
 66 -47 66 -47 76 -26 c 128,-1,11
 86 -5 86 -5 99 5 c 1,12,13
 169 -32 169 -32 233 -32 c 0,14,15
 271 -32 271 -32 294 -15 c 128,-1,16
 317 2 317 2 317 30 c 0,17,18
 317 72 317 72 252 97 c 1,19,-1
 193 121 l 2,20,21
 117 151 117 151 74.5 188 c 128,-1,22
 32 225 32 225 32 286 c 0,23,24
 32 375 32 375 139 434 c 1,25,26
 70 479 70 479 70 547.5 c 128,-1,27
 70 616 70 616 120.5 656 c 128,-1,28
 171 696 171 696 248 696 c 128,-1,29
 325 696 325 696 401 661 c 1,30,31
 402 642 402 642 394 621.5 c 128,-1,32
 386 601 386 601 373 590 c 1,33,34
 303 621 303 621 257.5 621 c 128,-1,35
 212 621 212 621 190 604 c 128,-1,36
 168 587 168 587 168 559 c 0,37,38
 168 519 168 519 233 492 c 1,39,-1
 292 469 l 1,40,0
 368 438 368 438 410 401 c 128,-1,1
251 383 m 2,41,-1
 208 400 l 1,42,43
 129 361 129 361 129 300 c 0,44,45
 129 268 129 268 156.5 247 c 128,-1,46
 184 226 184 226 234 206 c 2,47,-1
 276 190 l 1,48,49
 356 227 356 227 356 289 c 0,50,51
 356 321 356 321 328 342.5 c 128,-1,52
 300 364 300 364 251 383 c 2,41,-1
EndSplineSet
EndChar

StartChar: dieresis
Encoding: 168 168 106
Width: 398
GlyphClass: 2
Flags: W
LayerCount: 2
Fore
SplineSet
237 611 m 128,-1,1
 237 631 237 631 245 649 c 1,2,3
 262 660 262 660 291.5 660 c 128,-1,4
 321 660 321 660 338 649 c 1,5,6
 345 630 345 630 345 610 c 128,-1,7
 345 590 345 590 338 573 c 1,8,9
 319 561 319 561 290.5 561 c 128,-1,10
 262 561 262 561 245 573 c 1,11,0
 237 591 237 591 237 611 c 128,-1,1
53 611 m 128,-1,13
 53 630 53 630 60 649 c 1,14,15
 77 660 77 660 106.5 660 c 128,-1,16
 136 660 136 660 153 649 c 1,17,18
 161 631 161 631 161 610 c 128,-1,19
 161 589 161 589 153 573 c 1,20,21
 136 561 136 561 107.5 561 c 128,-1,22
 79 561 79 561 60 573 c 1,23,12
 53 592 53 592 53 611 c 128,-1,13
EndSplineSet
EndChar

StartChar: copyright
Encoding: 169 169 107
Width: 804
GlyphClass: 2
Flags: W
LayerCount: 2
Fore
SplineSet
41 341 m 128,-1,1
 41 494 41 494 145 598 c 128,-1,2
 249 702 249 702 401.5 702 c 128,-1,3
 554 702 554 702 658.5 598 c 128,-1,4
 763 494 763 494 763 341 c 128,-1,5
 763 188 763 188 659 84.5 c 128,-1,6
 555 -19 555 -19 402 -19 c 128,-1,7
 249 -19 249 -19 145 84.5 c 128,-1,0
 41 188 41 188 41 341 c 128,-1,1
203.5 547.5 m 128,-1,9
 124 463 124 463 124 341.5 c 128,-1,10
 124 220 124 220 203.5 135.5 c 128,-1,11
 283 51 283 51 402 51 c 128,-1,12
 521 51 521 51 600.5 135.5 c 128,-1,13
 680 220 680 220 680 341 c 128,-1,14
 680 462 680 462 600.5 547 c 128,-1,15
 521 632 521 632 402 632 c 128,-1,8
 283 632 283 632 203.5 547.5 c 128,-1,9
476 382 m 1,16,17
 476 387 476 387 476 392 c 0,18,19
 476 424 476 424 459 450.5 c 128,-1,20
 442 477 442 477 401 477 c 128,-1,21
 360 477 360 477 337 442 c 128,-1,22
 314 407 314 407 314 342.5 c 128,-1,23
 314 278 314 278 340 243.5 c 128,-1,24
 366 209 366 209 414.5 209 c 128,-1,25
 463 209 463 209 513 250 c 1,26,27
 539 237 539 237 549 203 c 1,28,29
 523 177 523 177 481.5 160 c 128,-1,30
 440 143 440 143 400 143 c 0,31,32
 318 143 318 143 273 198 c 128,-1,33
 228 253 228 253 228 346 c 128,-1,34
 228 439 228 439 280.5 490 c 128,-1,35
 333 541 333 541 403.5 541 c 128,-1,36
 474 541 474 541 513.5 503.5 c 128,-1,37
 553 466 553 466 553 421.5 c 128,-1,38
 553 377 553 377 510 377 c 0,39,40
 491 377 491 377 476 382 c 1,16,17
EndSplineSet
EndChar

StartChar: ordfeminine
Encoding: 170 170 108
Width: 420
GlyphClass: 2
Flags: W
LayerCount: 2
Fore
SplineSet
374 341 m 1,0,1
 372 330 372 330 361 317.5 c 128,-1,2
 350 305 350 305 338 299 c 1,3,4
 295 306 295 306 277 345 c 1,5,6
 219 295 219 295 160.5 295 c 128,-1,7
 102 295 102 295 71 329 c 128,-1,8
 40 363 40 363 40 410 c 0,9,10
 40 474 40 474 81 505.5 c 128,-1,11
 122 537 122 537 191 537 c 0,12,13
 215 537 215 537 267 533 c 1,14,-1
 267 562 l 2,15,16
 267 627 267 627 207 627 c 0,17,18
 150 627 150 627 80 600 c 1,19,20
 57 622 57 622 55 660 c 1,21,22
 143 696 143 696 212 696 c 0,23,24
 350 696 350 696 350 565 c 2,25,-1
 350 411 l 2,26,27
 350 360 350 360 374 341 c 1,0,1
175 360 m 0,28,29
 223 360 223 360 267 406 c 1,30,-1
 267 475 l 1,31,32
 219 479 219 479 190 479 c 128,-1,33
 161 479 161 479 142 462 c 128,-1,34
 123 445 123 445 123 418.5 c 128,-1,35
 123 392 123 392 137 376 c 128,-1,36
 151 360 151 360 175 360 c 0,28,29
EndSplineSet
EndChar

StartChar: guillemotleft
Encoding: 171 171 109
Width: 551
GlyphClass: 2
Flags: W
LayerCount: 2
Fore
SplineSet
509 419 m 1,0,-1
 368 257 l 1,1,-1
 514 90 l 1,2,3
 508 74 508 74 492 58.5 c 128,-1,4
 476 43 476 43 459 38 c 1,5,-1
 262 224 l 1,6,7
 257 236 257 236 257 255 c 128,-1,8
 257 274 257 274 262 286 c 1,9,-1
 454 470 l 1,10,11
 471 465 471 465 487 450 c 128,-1,12
 503 435 503 435 509 419 c 1,0,-1
287 419 m 1,13,-1
 146 257 l 1,14,-1
 292 90 l 1,15,16
 286 74 286 74 270 58.5 c 128,-1,17
 254 43 254 43 237 38 c 1,18,-1
 40 224 l 1,19,20
 35 236 35 236 35 255 c 128,-1,21
 35 274 35 274 40 286 c 1,22,-1
 232 470 l 1,23,24
 249 465 249 465 265 450 c 128,-1,25
 281 435 281 435 287 419 c 1,13,-1
EndSplineSet
EndChar

StartChar: logicalnot
Encoding: 172 172 110
Width: 530
GlyphClass: 2
Flags: W
LayerCount: 2
Fore
SplineSet
383 257 m 1,0,-1
 337 256 l 1,1,-1
 52 256 l 1,2,3
 48 273 48 273 48 297.5 c 128,-1,4
 48 322 48 322 52 341 c 1,5,-1
 466 341 l 1,6,-1
 472 335 l 1,7,-1
 472 114 l 1,8,9
 455 110 455 110 428.5 110 c 128,-1,10
 402 110 402 110 382 114 c 1,11,-1
 382 213 l 1,12,-1
 383 257 l 1,0,-1
EndSplineSet
EndChar

StartChar: uni00AD
Encoding: 173 173 111
Width: 347
GlyphClass: 2
Flags: W
LayerCount: 2
Fore
SplineSet
295 224 m 1,0,-1
 51 224 l 1,1,2
 47 241 47 241 47 265.5 c 128,-1,3
 47 290 47 290 51 309 c 1,4,-1
 295 309 l 1,5,6
 300 292 300 292 300 266 c 128,-1,7
 300 240 300 240 295 224 c 1,0,-1
EndSplineSet
EndChar

StartChar: registered
Encoding: 174 174 112
Width: 592
GlyphClass: 2
Flags: W
LayerCount: 2
Fore
SplineSet
35 482 m 128,-1,1
 35 591 35 591 110.5 667 c 128,-1,2
 186 743 186 743 295 743 c 128,-1,3
 404 743 404 743 480 667.5 c 128,-1,4
 556 592 556 592 556 482.5 c 128,-1,5
 556 373 556 373 480.5 297.5 c 128,-1,6
 405 222 405 222 295.5 222 c 128,-1,7
 186 222 186 222 110.5 297.5 c 128,-1,0
 35 373 35 373 35 482 c 128,-1,1
157 624.5 m 128,-1,9
 101 566 101 566 101 482.5 c 128,-1,10
 101 399 101 399 157 340.5 c 128,-1,11
 213 282 213 282 295.5 282 c 128,-1,12
 378 282 378 282 434 340.5 c 128,-1,13
 490 399 490 399 490 482.5 c 128,-1,14
 490 566 490 566 434 624.5 c 128,-1,15
 378 683 378 683 295.5 683 c 128,-1,8
 213 683 213 683 157 624.5 c 128,-1,9
397 537 m 0,16,17
 397 487 397 487 346 471 c 1,18,19
 362 465 362 465 379 432 c 2,20,-1
 393 405 l 2,21,22
 404 384 404 384 415 377 c 1,23,24
 400 355 400 355 376 355 c 128,-1,25
 352 355 352 355 338 386 c 1,26,-1
 313 433 l 2,27,28
 302 452 302 452 282 452 c 2,29,-1
 258 452 l 1,30,-1
 258 360 l 1,31,32
 243 356 243 356 228.5 356 c 128,-1,33
 214 356 214 356 199 360 c 1,34,-1
 199 607 l 1,35,-1
 202 610 l 1,36,37
 266 612 266 612 307.5 612 c 128,-1,38
 349 612 349 612 373 592 c 128,-1,39
 397 572 397 572 397 537 c 0,16,17
258 567 m 1,40,-1
 258 499 l 1,41,-1
 295 499 l 2,42,43
 336 499 336 499 336 533 c 0,44,45
 336 548 336 548 326 557.5 c 128,-1,46
 316 567 316 567 298 567 c 2,47,-1
 258 567 l 1,40,-1
EndSplineSet
EndChar

StartChar: macron
Encoding: 175 175 113
Width: 398
GlyphClass: 2
Flags: W
LayerCount: 2
Fore
SplineSet
338 576 m 1,0,-1
 60 576 l 1,1,2
 56 592 56 592 56 615 c 128,-1,3
 56 638 56 638 60 655 c 1,4,-1
 338 655 l 1,5,6
 342 638 342 638 342 615 c 128,-1,7
 342 592 342 592 338 576 c 1,0,-1
EndSplineSet
EndChar

StartChar: degree
Encoding: 176 176 114
Width: 324
GlyphClass: 2
Flags: W
LayerCount: 2
Fore
SplineSet
18 526 m 128,-1,1
 18 588 18 588 59 629.5 c 128,-1,2
 100 671 100 671 162 671 c 128,-1,3
 224 671 224 671 265 629.5 c 128,-1,4
 306 588 306 588 306 526 c 128,-1,5
 306 464 306 464 265 422.5 c 128,-1,6
 224 381 224 381 162 381 c 128,-1,7
 100 381 100 381 59 422.5 c 128,-1,0
 18 464 18 464 18 526 c 128,-1,1
93 526 m 128,-1,9
 93 492 93 492 112 470 c 128,-1,10
 131 448 131 448 161.5 448 c 128,-1,11
 192 448 192 448 211 470 c 128,-1,12
 230 492 230 492 230 526 c 128,-1,13
 230 560 230 560 211 582 c 128,-1,14
 192 604 192 604 161.5 604 c 128,-1,15
 131 604 131 604 112 582 c 128,-1,8
 93 560 93 560 93 526 c 128,-1,9
EndSplineSet
EndChar

StartChar: plusminus
Encoding: 177 177 115
Width: 530
GlyphClass: 2
Flags: W
LayerCount: 2
Fore
SplineSet
222 382 m 1,0,-1
 221 429 l 1,1,-1
 221 536 l 1,2,3
 238 540 238 540 265.5 540 c 128,-1,4
 293 540 293 540 310 536 c 1,5,-1
 310 429 l 1,6,7
 310 429 310 429 309 382 c 1,8,-1
 354 383 l 1,9,-1
 463 383 l 1,10,11
 467 364 467 364 467 342.5 c 128,-1,12
 467 321 467 321 463 302 c 1,13,-1
 354 302 l 1,14,-1
 309 303 l 1,15,-1
 310 256 l 1,16,-1
 310 148 l 1,17,18
 293 144 293 144 265.5 144 c 128,-1,19
 238 144 238 144 221 148 c 1,20,-1
 221 256 l 1,21,-1
 222 303 l 1,22,-1
 176 302 l 1,23,-1
 67 302 l 1,24,25
 63 321 63 321 63 342.5 c 128,-1,26
 63 364 63 364 67 383 c 1,27,-1
 176 383 l 1,28,-1
 222 382 l 1,0,-1
463 0 m 1,29,-1
 67 0 l 1,30,31
 63 19 63 19 63 40.5 c 128,-1,32
 63 62 63 62 67 82 c 1,33,-1
 463 82 l 1,34,35
 467 62 467 62 467 40.5 c 128,-1,36
 467 19 467 19 463 0 c 1,29,-1
EndSplineSet
EndChar

StartChar: twosuperior
Encoding: 178 178 116
Width: 420
GlyphClass: 2
Flags: W
LayerCount: 2
Fore
SplineSet
351 416 m 1,0,1
 351 390 351 390 350 380 c 0,2,3
 344 341 344 341 304 341 c 2,4,-1
 85 341 l 1,5,6
 57 375 57 375 57 392 c 0,7,8
 57 446 57 446 134 509 c 2,9,-1
 205 567 l 1,10,11
 252 604 252 604 252 642 c 0,12,13
 252 666 252 666 236.5 682 c 128,-1,14
 221 698 221 698 196 698 c 0,15,16
 151 698 151 698 126 640 c 1,17,18
 109 642 109 642 89.5 651 c 128,-1,19
 70 660 70 660 63 671 c 1,20,21
 77 714 77 714 114 743 c 128,-1,22
 151 772 151 772 207.5 772 c 128,-1,23
 264 772 264 772 302 735.5 c 128,-1,24
 340 699 340 699 340 651 c 128,-1,25
 340 603 340 603 320 571.5 c 128,-1,26
 300 540 300 540 258 508 c 2,27,-1
 202 464 l 2,28,29
 155 427 155 427 146 410 c 1,30,31
 191 416 191 416 228 416 c 2,32,-1
 351 416 l 1,0,1
EndSplineSet
EndChar

StartChar: threesuperior
Encoding: 179 179 117
Width: 420
GlyphClass: 2
Flags: W
LayerCount: 2
Fore
SplineSet
316 685 m 2,0,-1
 256 626 l 2,1,2
 245 615 245 615 226 603 c 1,3,-1
 228 603 l 2,4,5
 280 603 280 603 314.5 568 c 128,-1,6
 349 533 349 533 349 471.5 c 128,-1,7
 349 410 349 410 302 373.5 c 128,-1,8
 255 337 255 337 181 337 c 128,-1,9
 107 337 107 337 53 379 c 1,10,11
 59 415 59 415 86 438 c 1,12,13
 135 405 135 405 176 405 c 128,-1,14
 217 405 217 405 239.5 423.5 c 128,-1,15
 262 442 262 442 262 475.5 c 128,-1,16
 262 509 262 509 244 529 c 128,-1,17
 226 549 226 549 199 549 c 128,-1,18
 172 549 172 549 150 539 c 1,19,20
 139 544 139 544 129.5 557 c 128,-1,21
 120 570 120 570 118 584 c 1,22,-1
 198 666 l 2,23,24
 218 686 218 686 236 697 c 1,25,-1
 233 700 l 1,26,27
 206 695 206 695 155 695 c 2,28,-1
 73 695 l 1,29,30
 68 712 68 712 68 732 c 128,-1,31
 68 752 68 752 74 765 c 1,32,-1
 316 765 l 1,33,34
 332 735 332 735 332 717.5 c 128,-1,35
 332 700 332 700 316 685 c 2,0,-1
EndSplineSet
EndChar

StartChar: acute
Encoding: 180 180 118
Width: 398
GlyphClass: 2
Flags: W
LayerCount: 2
Fore
SplineSet
126 577 m 1,0,-1
 268 735 l 1,1,2
 290 728 290 728 310 709.5 c 128,-1,3
 330 691 330 691 338 670 c 1,4,-1
 169 537 l 1,5,6
 137 548 137 548 126 577 c 1,0,-1
EndSplineSet
EndChar

StartChar: paragraph
Encoding: 182 182 119
Width: 661
GlyphClass: 2
Flags: W
LayerCount: 2
Fore
SplineSet
288 60 m 2,0,-1
 288 253 l 1,1,-1
 269 253 l 2,2,3
 168 253 168 253 106 309.5 c 128,-1,4
 44 366 44 366 44 472 c 128,-1,5
 44 578 44 578 106.5 633 c 128,-1,6
 169 688 169 688 272 688 c 0,7,8
 297 688 297 688 381 684 c 1,9,-1
 387 678 l 1,10,-1
 387 75 l 2,11,12
 387 11 387 11 378 -30.5 c 128,-1,13
 369 -72 369 -72 343 -102 c 0,14,15
 296 -155 296 -155 200 -155 c 0,16,17
 128 -155 128 -155 72 -131 c 1,18,19
 72 -89 72 -89 96 -56 c 1,20,21
 148 -78 148 -78 196 -78 c 128,-1,22
 244 -78 244 -78 266 -49 c 128,-1,23
 288 -20 288 -20 288 60 c 2,0,-1
453 -133 m 1,24,-1
 453 677 l 1,25,-1
 459 683 l 1,26,-1
 632 683 l 1,27,28
 637 668 637 668 637 640 c 128,-1,29
 637 612 637 612 632 597 c 1,30,-1
 591 597 l 2,31,32
 564 597 564 597 552 598 c 1,33,-1
 552 -133 l 1,34,35
 532 -137 532 -137 502 -137 c 128,-1,36
 472 -137 472 -137 453 -133 c 1,24,-1
EndSplineSet
EndChar

StartChar: periodcentered
Encoding: 183 183 120
Width: 302
GlyphClass: 2
Flags: W
LayerCount: 2
Fore
SplineSet
87 283 m 128,-1,1
 87 314 87 314 96 332 c 1,2,3
 117 344 117 344 151.5 344 c 128,-1,4
 186 344 186 344 207 332 c 1,5,6
 215 313 215 313 215 283 c 128,-1,7
 215 253 215 253 207 234 c 1,8,9
 188 222 188 222 152.5 222 c 128,-1,10
 117 222 117 222 96 234 c 1,11,0
 87 252 87 252 87 283 c 128,-1,1
EndSplineSet
EndChar

StartChar: cedilla
Encoding: 184 184 121
Width: 398
GlyphClass: 2
Flags: W
LayerCount: 2
Fore
SplineSet
146 -74 m 1,0,1
 157 -33 157 -33 172 0 c 1,2,-1
 236 0 l 1,3,4
 219 -33 219 -33 218 -37 c 1,5,6
 259 -40 259 -40 285 -63.5 c 128,-1,7
 311 -87 311 -87 311 -127 c 128,-1,8
 311 -167 311 -167 277.5 -194.5 c 128,-1,9
 244 -222 244 -222 194.5 -222 c 128,-1,10
 145 -222 145 -222 115 -203 c 1,11,12
 116 -176 116 -176 135 -152 c 1,13,14
 158 -166 158 -166 183 -166 c 128,-1,15
 208 -166 208 -166 219.5 -154.5 c 128,-1,16
 231 -143 231 -143 231 -125.5 c 128,-1,17
 231 -108 231 -108 219.5 -97 c 128,-1,18
 208 -86 208 -86 192 -86 c 128,-1,19
 176 -86 176 -86 164 -91 c 1,20,21
 151 -86 151 -86 146 -74 c 1,0,1
EndSplineSet
EndChar

StartChar: onesuperior
Encoding: 185 185 122
Width: 420
GlyphClass: 2
Flags: W
LayerCount: 2
Fore
SplineSet
143 415 m 1,0,-1
 190 414 l 1,1,-1
 190 582 l 2,2,3
 190 591 190 591 191.5 615 c 128,-1,4
 193 639 193 639 193 645 c 1,5,6
 162 604 162 604 99 576 c 1,7,8
 69 590 69 590 63 629 c 1,9,10
 155 681 155 681 194 765 c 1,11,12
 211 769 211 769 231 769 c 128,-1,13
 251 769 251 769 272 765 c 1,14,-1
 272 414 l 1,15,-1
 321 415 l 1,16,-1
 354 415 l 1,17,18
 358 400 358 400 358 379.5 c 128,-1,19
 358 359 358 359 354 343 c 1,20,-1
 88 343 l 1,21,22
 84 369 84 369 84 381 c 128,-1,23
 84 393 84 393 88 415 c 1,24,-1
 143 415 l 1,0,-1
EndSplineSet
EndChar

StartChar: ordmasculine
Encoding: 186 186 123
Width: 407
GlyphClass: 2
Flags: W
LayerCount: 2
Fore
SplineSet
316 655 m 1,0,1
 372 596 372 596 372 494.5 c 128,-1,2
 372 393 372 393 316 336 c 1,3,4
 273 295 273 295 203.5 295 c 128,-1,5
 134 295 134 295 91 336 c 1,6,7
 35 393 35 393 35 494.5 c 128,-1,8
 35 596 35 596 91 655 c 1,9,10
 134 696 134 696 203.5 696 c 128,-1,11
 273 696 273 696 316 655 c 1,0,1
120 496 m 0,12,13
 120 361 120 361 204 361 c 0,14,15
 247 361 247 361 267 398.5 c 128,-1,16
 287 436 287 436 287 495.5 c 128,-1,17
 287 555 287 555 267 592.5 c 128,-1,18
 247 630 247 630 203.5 630 c 128,-1,19
 160 630 160 630 140 592.5 c 128,-1,20
 120 555 120 555 120 496 c 0,12,13
EndSplineSet
EndChar

StartChar: guillemotright
Encoding: 187 187 124
Width: 551
GlyphClass: 2
Flags: W
LayerCount: 2
Fore
SplineSet
43 90 m 1,0,-1
 183 252 l 1,1,-1
 37 419 l 1,2,3
 43 435 43 435 59 450 c 128,-1,4
 75 465 75 465 92 470 c 1,5,-1
 290 285 l 1,6,7
 296 269 296 269 296 253.5 c 128,-1,8
 296 238 296 238 290 223 c 1,9,-1
 97 38 l 1,10,11
 80 43 80 43 64 58.5 c 128,-1,12
 48 74 48 74 43 90 c 1,0,-1
265 90 m 1,13,-1
 405 252 l 1,14,-1
 259 419 l 1,15,16
 265 435 265 435 281 450 c 128,-1,17
 297 465 297 465 314 470 c 1,18,-1
 512 285 l 1,19,20
 518 269 518 269 518 253.5 c 128,-1,21
 518 238 518 238 512 223 c 1,22,-1
 319 38 l 1,23,24
 302 43 302 43 286 58.5 c 128,-1,25
 270 74 270 74 265 90 c 1,13,-1
EndSplineSet
EndChar

StartChar: onequarter
Encoding: 188 188 125
Width: 932
GlyphClass: 2
Flags: W
LayerCount: 2
Fore
SplineSet
117 333 m 1,0,-1
 164 332 l 1,1,-1
 164 500 l 2,2,3
 164 509 164 509 165.5 533 c 128,-1,4
 167 557 167 557 167 563 c 1,5,6
 136 522 136 522 73 494 c 1,7,8
 43 508 43 508 37 547 c 1,9,10
 129 599 129 599 168 683 c 1,11,12
 185 687 185 687 205 687 c 128,-1,13
 225 687 225 687 246 683 c 1,14,-1
 246 332 l 1,15,-1
 295 333 l 1,16,-1
 328 333 l 1,17,18
 332 318 332 318 332 297.5 c 128,-1,19
 332 277 332 277 328 261 c 1,20,-1
 62 261 l 1,21,22
 58 287 58 287 58 299 c 128,-1,23
 58 311 58 311 62 333 c 1,24,-1
 117 333 l 1,0,-1
266 0 m 1,25,-1
 642 683 l 1,26,27
 659 689 659 689 674 689 c 0,28,29
 722 689 722 689 738 683 c 1,30,-1
 361 0 l 1,31,32
 344 -6 344 -6 329 -6 c 0,33,34
 282 -6 282 -6 266 0 c 1,25,-1
858 81 m 1,35,-1
 827 82 l 1,36,-1
 827 3 l 1,37,38
 813 -2 813 -2 787.5 -2 c 128,-1,39
 762 -2 762 -2 747 3 c 1,40,-1
 747 82 l 1,41,-1
 708 81 l 1,42,-1
 587 81 l 1,43,44
 569 111 569 111 569 130.5 c 128,-1,45
 569 150 569 150 584 176 c 1,46,-1
 701 428 l 1,47,48
 708 429 708 429 718 429 c 128,-1,49
 728 429 728 429 747.5 424.5 c 128,-1,50
 767 420 767 420 780 410 c 1,51,-1
 701 239 l 1,52,53
 669 173 669 173 654 152 c 1,54,-1
 655 150 l 1,55,56
 679 152 679 152 723 152 c 2,57,-1
 747 152 l 1,58,-1
 747 212 l 2,59,60
 747 240 747 240 761.5 255.5 c 128,-1,61
 776 271 776 271 801 271 c 2,62,-1
 825 271 l 1,63,-1
 827 268 l 1,64,-1
 827 152 l 1,65,-1
 889 152 l 1,66,67
 892 139 892 139 892 118.5 c 128,-1,68
 892 98 892 98 885 81 c 1,69,-1
 858 81 l 1,35,-1
EndSplineSet
EndChar

StartChar: onehalf
Encoding: 189 189 126
Width: 932
GlyphClass: 2
Flags: W
LayerCount: 2
Fore
SplineSet
252 0 m 1,0,-1
 628 683 l 1,1,2
 645 689 645 689 660 689 c 0,3,4
 708 689 708 689 724 683 c 1,5,-1
 347 0 l 1,6,7
 330 -6 330 -6 315 -6 c 0,8,9
 268 -6 268 -6 252 0 c 1,0,-1
117 333 m 1,10,-1
 164 332 l 1,11,-1
 164 500 l 2,12,13
 164 509 164 509 165.5 533 c 128,-1,14
 167 557 167 557 167 563 c 1,15,16
 136 522 136 522 73 494 c 1,17,18
 43 508 43 508 37 547 c 1,19,20
 129 599 129 599 168 683 c 1,21,22
 185 687 185 687 205 687 c 128,-1,23
 225 687 225 687 246 683 c 1,24,-1
 246 332 l 1,25,-1
 295 333 l 1,26,-1
 328 333 l 1,27,28
 332 318 332 318 332 297.5 c 128,-1,29
 332 277 332 277 328 261 c 1,30,-1
 62 261 l 1,31,32
 58 287 58 287 58 299 c 128,-1,33
 58 311 58 311 62 333 c 1,34,-1
 117 333 l 1,10,-1
883 75 m 1,35,36
 883 49 883 49 882 39 c 0,37,38
 876 0 876 0 836 0 c 2,39,-1
 617 0 l 1,40,41
 589 34 589 34 589 51 c 0,42,43
 589 105 589 105 666 168 c 2,44,-1
 737 226 l 1,45,46
 784 263 784 263 784 301 c 0,47,48
 784 325 784 325 768.5 341 c 128,-1,49
 753 357 753 357 728 357 c 0,50,51
 683 357 683 357 658 299 c 1,52,53
 641 301 641 301 621.5 310 c 128,-1,54
 602 319 602 319 595 330 c 1,55,56
 609 373 609 373 646 402 c 128,-1,57
 683 431 683 431 739.5 431 c 128,-1,58
 796 431 796 431 834 394.5 c 128,-1,59
 872 358 872 358 872 310 c 128,-1,60
 872 262 872 262 852 230.5 c 128,-1,61
 832 199 832 199 790 167 c 2,62,-1
 734 123 l 2,63,64
 687 86 687 86 678 69 c 1,65,66
 723 75 723 75 760 75 c 2,67,-1
 883 75 l 1,35,36
EndSplineSet
EndChar

StartChar: threequarters
Encoding: 190 190 127
Width: 932
GlyphClass: 2
Flags: W
LayerCount: 2
Fore
SplineSet
253 0 m 1,0,-1
 629 683 l 1,1,2
 646 689 646 689 661 689 c 0,3,4
 709 689 709 689 725 683 c 1,5,-1
 348 0 l 1,6,7
 331 -6 331 -6 316 -6 c 0,8,9
 269 -6 269 -6 253 0 c 1,0,-1
315 605 m 2,10,-1
 255 546 l 2,11,12
 244 535 244 535 225 523 c 1,13,-1
 227 523 l 2,14,15
 279 523 279 523 313.5 488 c 128,-1,16
 348 453 348 453 348 391.5 c 128,-1,17
 348 330 348 330 301 293.5 c 128,-1,18
 254 257 254 257 180 257 c 128,-1,19
 106 257 106 257 52 299 c 1,20,21
 58 335 58 335 85 358 c 1,22,23
 134 325 134 325 175 325 c 128,-1,24
 216 325 216 325 238.5 343.5 c 128,-1,25
 261 362 261 362 261 395.5 c 128,-1,26
 261 429 261 429 243 449 c 128,-1,27
 225 469 225 469 198 469 c 128,-1,28
 171 469 171 469 149 459 c 1,29,30
 138 464 138 464 128.5 477 c 128,-1,31
 119 490 119 490 117 504 c 1,32,-1
 197 586 l 2,33,34
 217 606 217 606 235 617 c 1,35,-1
 232 620 l 1,36,37
 205 615 205 615 154 615 c 2,38,-1
 72 615 l 1,39,40
 67 632 67 632 67 652 c 128,-1,41
 67 672 67 672 73 685 c 1,42,-1
 315 685 l 1,43,44
 331 655 331 655 331 637.5 c 128,-1,45
 331 620 331 620 315 605 c 2,10,-1
855 81 m 1,46,-1
 824 82 l 1,47,-1
 824 3 l 1,48,49
 810 -2 810 -2 784.5 -2 c 128,-1,50
 759 -2 759 -2 744 3 c 1,51,-1
 744 82 l 1,52,-1
 705 81 l 1,53,-1
 584 81 l 1,54,55
 566 111 566 111 566 130.5 c 128,-1,56
 566 150 566 150 581 176 c 1,57,-1
 698 428 l 1,58,59
 705 429 705 429 715 429 c 128,-1,60
 725 429 725 429 744.5 424.5 c 128,-1,61
 764 420 764 420 777 410 c 1,62,-1
 698 239 l 1,63,64
 666 173 666 173 651 152 c 1,65,-1
 652 150 l 1,66,67
 676 152 676 152 720 152 c 2,68,-1
 744 152 l 1,69,-1
 744 212 l 2,70,71
 744 240 744 240 758.5 255.5 c 128,-1,72
 773 271 773 271 798 271 c 2,73,-1
 822 271 l 1,74,-1
 824 268 l 1,75,-1
 824 152 l 1,76,-1
 886 152 l 1,77,78
 889 139 889 139 889 118.5 c 128,-1,79
 889 98 889 98 882 81 c 1,80,-1
 855 81 l 1,46,-1
EndSplineSet
EndChar

StartChar: questiondown
Encoding: 191 191 128
Width: 393
GlyphClass: 2
Flags: W
LayerCount: 2
Fore
SplineSet
383 -154 m 1,0,1
 290 -204 290 -204 200.5 -204 c 128,-1,2
 111 -204 111 -204 61 -158 c 128,-1,3
 11 -112 11 -112 11 -35 c 0,4,5
 11 85 11 85 141 159 c 1,6,-1
 204 194 l 1,7,-1
 212 299 l 1,8,9
 226 304 226 304 249 304 c 128,-1,10
 272 304 272 304 287 299 c 1,11,-1
 292 150 l 1,12,-1
 284 139 l 1,13,-1
 236 115 l 1,14,15
 115 51 115 51 115 -25 c 0,16,17
 115 -67 115 -67 142 -92.5 c 128,-1,18
 169 -118 169 -118 222 -118 c 128,-1,19
 275 -118 275 -118 347 -80 c 1,20,21
 360 -92 360 -92 371 -113 c 128,-1,22
 382 -134 382 -134 383 -154 c 1,0,1
303 399 m 1,23,24
 282 386 282 386 248.5 386 c 128,-1,25
 215 386 215 386 194 399 c 1,26,27
 186 412 186 412 186 443.5 c 128,-1,28
 186 475 186 475 194 489 c 1,29,30
 216 501 216 501 248.5 501 c 128,-1,31
 281 501 281 501 303 489 c 1,32,33
 311 475 311 475 311 443.5 c 128,-1,34
 311 412 311 412 303 399 c 1,23,24
EndSplineSet
EndChar

StartChar: Agrave
Encoding: 192 192 129
Width: 608
GlyphClass: 2
Flags: W
LayerCount: 2
Fore
SplineSet
429 169 m 1,0,-1
 368 168 l 1,1,-1
 231 168 l 1,2,-1
 170 169 l 1,3,-1
 116 -1 l 1,4,5
 100 -5 100 -5 74.5 -5 c 128,-1,6
 49 -5 49 -5 24 2 c 1,7,-1
 21 7 l 1,8,-1
 248 683 l 1,9,10
 268 687 268 687 306 687 c 128,-1,11
 344 687 344 687 361 683 c 1,12,-1
 587 6 l 1,13,14
 565 -7 565 -7 534.5 -7 c 128,-1,15
 504 -7 504 -7 491.5 4 c 128,-1,16
 479 15 479 15 469 46 c 2,17,-1
 429 169 l 1,0,-1
196 250 m 1,18,-1
 249 251 l 1,19,-1
 352 251 l 2,20,21
 354 251 354 251 374 250.5 c 128,-1,22
 394 250 394 250 403 250 c 1,23,-1
 354 405 l 1,24,25
 324 496 324 496 302 583 c 1,26,-1
 296 583 l 1,27,28
 280 511 280 511 258 444 c 2,29,-1
 196 250 l 1,18,-1
216 898 m 1,30,-1
 416 779 l 1,31,32
 410 743 410 743 387 728 c 1,33,-1
 172 817 l 1,34,35
 175 841 175 841 188 864 c 128,-1,36
 201 887 201 887 216 898 c 1,30,-1
EndSplineSet
EndChar

StartChar: Aacute
Encoding: 193 193 130
Width: 608
GlyphClass: 2
Flags: W
LayerCount: 2
Fore
SplineSet
429 169 m 1,0,-1
 368 168 l 1,1,-1
 231 168 l 1,2,-1
 170 169 l 1,3,-1
 116 -1 l 1,4,5
 100 -5 100 -5 74.5 -5 c 128,-1,6
 49 -5 49 -5 24 2 c 1,7,-1
 21 7 l 1,8,-1
 248 683 l 1,9,10
 268 687 268 687 306 687 c 128,-1,11
 344 687 344 687 361 683 c 1,12,-1
 587 6 l 1,13,14
 565 -7 565 -7 534.5 -7 c 128,-1,15
 504 -7 504 -7 491.5 4 c 128,-1,16
 479 15 479 15 469 46 c 2,17,-1
 429 169 l 1,0,-1
196 250 m 1,18,-1
 249 251 l 1,19,-1
 352 251 l 2,20,21
 354 251 354 251 374 250.5 c 128,-1,22
 394 250 394 250 403 250 c 1,23,-1
 354 405 l 1,24,25
 324 496 324 496 302 583 c 1,26,-1
 296 583 l 1,27,28
 280 511 280 511 258 444 c 2,29,-1
 196 250 l 1,18,-1
207 779 m 1,30,-1
 407 898 l 1,31,32
 422 887 422 887 435 864 c 128,-1,33
 448 841 448 841 451 817 c 1,34,-1
 236 728 l 1,35,36
 211 745 211 745 207 779 c 1,30,-1
EndSplineSet
EndChar

StartChar: Acircumflex
Encoding: 194 194 131
Width: 608
GlyphClass: 2
Flags: W
LayerCount: 2
Fore
SplineSet
429 169 m 1,0,-1
 368 168 l 1,1,-1
 231 168 l 1,2,-1
 170 169 l 1,3,-1
 116 -1 l 1,4,5
 100 -5 100 -5 74.5 -5 c 128,-1,6
 49 -5 49 -5 24 2 c 1,7,-1
 21 7 l 1,8,-1
 248 683 l 1,9,10
 268 687 268 687 306 687 c 128,-1,11
 344 687 344 687 361 683 c 1,12,-1
 587 6 l 1,13,14
 565 -7 565 -7 534.5 -7 c 128,-1,15
 504 -7 504 -7 491.5 4 c 128,-1,16
 479 15 479 15 469 46 c 2,17,-1
 429 169 l 1,0,-1
196 250 m 1,18,-1
 249 251 l 1,19,-1
 352 251 l 2,20,21
 354 251 354 251 374 250.5 c 128,-1,22
 394 250 394 250 403 250 c 1,23,-1
 354 405 l 1,24,25
 324 496 324 496 302 583 c 1,26,-1
 296 583 l 1,27,28
 280 511 280 511 258 444 c 2,29,-1
 196 250 l 1,18,-1
416 737 m 1,30,-1
 304 812 l 1,31,-1
 190 730 l 1,32,33
 177 735 177 735 164 747.5 c 128,-1,34
 151 760 151 760 147 774 c 1,35,-1
 261 885 l 1,36,37
 282 890 282 890 304 890 c 128,-1,38
 326 890 326 890 348 885 c 1,39,-1
 459 780 l 1,40,41
 454 765 454 765 441.5 753 c 128,-1,42
 429 741 429 741 416 737 c 1,30,-1
EndSplineSet
EndChar

StartChar: Atilde
Encoding: 195 195 132
Width: 608
GlyphClass: 2
Flags: W
LayerCount: 2
Fore
SplineSet
429 169 m 1,0,-1
 368 168 l 1,1,-1
 231 168 l 1,2,-1
 170 169 l 1,3,-1
 116 -1 l 1,4,5
 100 -5 100 -5 74.5 -5 c 128,-1,6
 49 -5 49 -5 24 2 c 1,7,-1
 21 7 l 1,8,-1
 248 683 l 1,9,10
 268 687 268 687 306 687 c 128,-1,11
 344 687 344 687 361 683 c 1,12,-1
 587 6 l 1,13,14
 565 -7 565 -7 534.5 -7 c 128,-1,15
 504 -7 504 -7 491.5 4 c 128,-1,16
 479 15 479 15 469 46 c 2,17,-1
 429 169 l 1,0,-1
196 250 m 1,18,-1
 249 251 l 1,19,-1
 352 251 l 2,20,21
 354 251 354 251 374 250.5 c 128,-1,22
 394 250 394 250 403 250 c 1,23,-1
 354 405 l 1,24,25
 324 496 324 496 302 583 c 1,26,-1
 296 583 l 1,27,28
 280 511 280 511 258 444 c 2,29,-1
 196 250 l 1,18,-1
317 756 m 2,30,-1
 260 783 l 2,31,32
 240 792 240 792 222.5 792 c 128,-1,33
 205 792 205 792 187 767 c 1,34,-1
 175 753 l 1,35,36
 160 753 160 753 146 761.5 c 128,-1,37
 132 770 132 770 127 782 c 1,38,-1
 135 802 l 2,39,40
 149 835 149 835 176 854 c 128,-1,41
 203 873 203 873 233 873 c 128,-1,42
 263 873 263 873 293 858 c 2,43,-1
 350 831 l 1,44,45
 366 822 366 822 385 822 c 128,-1,46
 404 822 404 822 423 847 c 1,47,-1
 435 861 l 1,48,49
 449 861 449 861 463 852.5 c 128,-1,50
 477 844 477 844 483 831 c 1,51,-1
 475 812 l 1,52,53
 459 778 459 778 432.5 759.5 c 128,-1,54
 406 741 406 741 378.5 741 c 128,-1,55
 351 741 351 741 317 756 c 2,30,-1
EndSplineSet
EndChar

StartChar: Adieresis
Encoding: 196 196 133
Width: 608
GlyphClass: 2
Flags: W
LayerCount: 2
Fore
SplineSet
429 169 m 1,0,-1
 368 168 l 1,1,-1
 231 168 l 1,2,-1
 170 169 l 1,3,-1
 116 -1 l 1,4,5
 100 -5 100 -5 74.5 -5 c 128,-1,6
 49 -5 49 -5 24 2 c 1,7,-1
 21 7 l 1,8,-1
 248 683 l 1,9,10
 268 687 268 687 306 687 c 128,-1,11
 344 687 344 687 361 683 c 1,12,-1
 587 6 l 1,13,14
 565 -7 565 -7 534.5 -7 c 128,-1,15
 504 -7 504 -7 491.5 4 c 128,-1,16
 479 15 479 15 469 46 c 2,17,-1
 429 169 l 1,0,-1
196 250 m 1,18,-1
 249 251 l 1,19,-1
 352 251 l 2,20,21
 354 251 354 251 374 250.5 c 128,-1,22
 394 250 394 250 403 250 c 1,23,-1
 354 405 l 1,24,25
 324 496 324 496 302 583 c 1,26,-1
 296 583 l 1,27,28
 280 511 280 511 258 444 c 2,29,-1
 196 250 l 1,18,-1
409 839 m 128,-1,31
 436 839 436 839 456 828 c 1,32,33
 464 811 464 811 464 787.5 c 128,-1,34
 464 764 464 764 456 747 c 1,35,36
 439 736 439 736 409 736 c 128,-1,37
 379 736 379 736 362 747 c 1,38,39
 353 764 353 764 353 787.5 c 128,-1,40
 353 811 353 811 362 828 c 1,41,30
 382 839 382 839 409 839 c 128,-1,31
201 839 m 128,-1,43
 228 839 228 839 248 828 c 1,44,45
 257 811 257 811 257 787.5 c 128,-1,46
 257 764 257 764 248 747 c 1,47,48
 231 736 231 736 201 736 c 128,-1,49
 171 736 171 736 154 747 c 1,50,51
 146 764 146 764 146 787.5 c 128,-1,52
 146 811 146 811 154 828 c 1,53,42
 174 839 174 839 201 839 c 128,-1,43
EndSplineSet
EndChar

StartChar: Aring
Encoding: 197 197 134
Width: 608
GlyphClass: 2
Flags: W
LayerCount: 2
Fore
SplineSet
429 169 m 1,0,-1
 368 168 l 1,1,-1
 231 168 l 1,2,-1
 170 169 l 1,3,-1
 116 -1 l 1,4,5
 100 -5 100 -5 74.5 -5 c 128,-1,6
 49 -5 49 -5 24 2 c 1,7,-1
 21 7 l 1,8,-1
 247 681 l 1,9,10
 186 712 186 712 186 780 c 0,11,12
 186 827 186 827 219.5 859 c 128,-1,13
 253 891 253 891 304.5 891 c 128,-1,14
 356 891 356 891 389.5 858.5 c 128,-1,15
 423 826 423 826 423 787 c 0,16,17
 423 711 423 711 361 681 c 1,18,-1
 587 6 l 1,19,20
 565 -7 565 -7 534.5 -7 c 128,-1,21
 504 -7 504 -7 491.5 4 c 128,-1,22
 479 15 479 15 469 46 c 2,23,-1
 429 169 l 1,0,-1
196 250 m 1,24,-1
 249 251 l 1,25,-1
 352 251 l 2,26,27
 354 251 354 251 374 250.5 c 128,-1,28
 394 250 394 250 403 250 c 1,29,-1
 354 405 l 1,30,31
 324 496 324 496 302 583 c 1,32,-1
 296 583 l 1,33,34
 280 511 280 511 258 444 c 2,35,-1
 196 250 l 1,24,-1
268.5 819 m 128,-1,37
 254 803 254 803 254 779.5 c 128,-1,38
 254 756 254 756 268.5 740.5 c 128,-1,39
 283 725 283 725 305 725 c 128,-1,40
 327 725 327 725 341 740.5 c 128,-1,41
 355 756 355 756 355 779.5 c 128,-1,42
 355 803 355 803 341 819 c 128,-1,43
 327 835 327 835 305 835 c 128,-1,36
 283 835 283 835 268.5 819 c 128,-1,37
EndSplineSet
EndChar

StartChar: AE
Encoding: 198 198 135
Width: 875
GlyphClass: 2
Flags: W
LayerCount: 2
Fore
SplineSet
402 169 m 1,0,-1
 345 168 l 1,1,-1
 256 168 l 1,2,-1
 201 169 l 1,3,-1
 118 -1 l 1,4,5
 99 -5 99 -5 71 -5 c 128,-1,6
 43 -5 43 -5 20 2 c 1,7,-1
 16 7 l 1,8,-1
 349 673 l 1,9,10
 368 683 368 683 408 683 c 2,11,-1
 807 683 l 1,12,13
 810 668 810 668 810 643.5 c 128,-1,14
 810 619 810 619 803 598 c 1,15,-1
 561 598 l 2,16,17
 521 598 521 598 498 599 c 1,18,-1
 499 534 l 1,19,-1
 499 386 l 1,20,-1
 561 387 l 1,21,-1
 753 387 l 1,22,23
 758 369 758 369 758 344.5 c 128,-1,24
 758 320 758 320 753 303 c 1,25,-1
 561 303 l 2,26,27
 522 303 522 303 499 304 c 1,28,-1
 499 131 l 2,29,30
 499 123 499 123 498.5 107 c 128,-1,31
 498 91 498 91 498 82 c 1,32,33
 526 85 526 85 563 85 c 2,34,-1
 826 85 l 1,35,36
 826 59 826 59 824 46 c 0,37,38
 815 -1 815 -1 760 -1 c 2,39,-1
 459 -1 l 2,40,41
 433 -1 433 -1 417.5 15.5 c 128,-1,42
 402 32 402 32 402 61 c 2,43,-1
 402 169 l 1,0,-1
346 251 m 1,44,-1
 402 250 l 1,45,-1
 402 583 l 1,46,-1
 397 583 l 1,47,48
 370 516 370 516 336 444 c 1,49,-1
 241 250 l 1,50,-1
 282 251 l 1,51,-1
 346 251 l 1,44,-1
EndSplineSet
EndChar

StartChar: Ccedilla
Encoding: 199 199 136
Width: 603
GlyphClass: 2
Flags: W
LayerCount: 2
Fore
SplineSet
263 -74 m 1,0,1
 273 -40 273 -40 284 -11 c 1,2,3
 223 -6 223 -6 176.5 25 c 128,-1,4
 130 56 130 56 104 106 c 0,5,6
 51 204 51 204 51 338 c 0,7,8
 51 515 51 515 128 605.5 c 128,-1,9
 205 696 205 696 317 696 c 128,-1,10
 429 696 429 696 495.5 638 c 128,-1,11
 562 580 562 580 562 502 c 0,12,13
 562 445 562 445 505 445 c 0,14,15
 487 445 487 445 464 451 c 1,16,17
 464 454 464 454 464 474.5 c 128,-1,18
 464 495 464 495 452.5 528.5 c 128,-1,19
 441 562 441 562 407 588 c 128,-1,20
 373 614 373 614 321 614 c 0,21,22
 240 614 240 614 198 544 c 128,-1,23
 156 474 156 474 156 343.5 c 128,-1,24
 156 213 156 213 201 143.5 c 128,-1,25
 246 74 246 74 329 74 c 128,-1,26
 412 74 412 74 505 151 c 1,27,28
 545 125 545 125 555 86 c 1,29,30
 471 2 471 2 346 -11 c 1,31,32
 337 -29 337 -29 335 -37 c 1,33,34
 376 -40 376 -40 401.5 -64 c 128,-1,35
 427 -88 427 -88 427 -128 c 128,-1,36
 427 -168 427 -168 393.5 -195 c 128,-1,37
 360 -222 360 -222 311.5 -222 c 128,-1,38
 263 -222 263 -222 231 -203 c 1,39,40
 232 -177 232 -177 252 -152 c 1,41,42
 273 -166 273 -166 299 -166 c 128,-1,43
 325 -166 325 -166 336.5 -154.5 c 128,-1,44
 348 -143 348 -143 348 -126 c 128,-1,45
 348 -109 348 -109 336.5 -97.5 c 128,-1,46
 325 -86 325 -86 308.5 -86 c 128,-1,47
 292 -86 292 -86 280 -91 c 1,48,49
 268 -86 268 -86 263 -74 c 1,0,1
EndSplineSet
EndChar

StartChar: Egrave
Encoding: 200 200 137
Width: 565
GlyphClass: 2
Flags: W
LayerCount: 2
Fore
SplineSet
190 386 m 1,0,-1
 252 387 l 1,1,-1
 444 387 l 1,2,3
 449 364 449 364 449 345 c 128,-1,4
 449 326 449 326 444 303 c 1,5,-1
 252 303 l 2,6,7
 213 303 213 303 190 304 c 1,8,-1
 190 130 l 2,9,10
 190 122 190 122 189.5 106.5 c 128,-1,11
 189 91 189 91 189 82 c 1,12,13
 217 85 217 85 254 85 c 2,14,-1
 516 85 l 1,15,16
 516 59 516 59 514 46 c 0,17,18
 505 -1 505 -1 450 -1 c 2,19,-1
 149 -1 l 2,20,21
 123 -1 123 -1 107.5 15.5 c 128,-1,22
 92 32 92 32 92 61 c 2,23,-1
 92 677 l 1,24,-1
 98 683 l 1,25,-1
 497 683 l 1,26,27
 500 668 500 668 500 643.5 c 128,-1,28
 500 619 500 619 493 598 c 1,29,-1
 252 598 l 2,30,31
 212 598 212 598 189 599 c 1,32,-1
 190 534 l 1,33,-1
 190 386 l 1,0,-1
210 898 m 1,34,-1
 410 779 l 1,35,36
 404 743 404 743 381 728 c 1,37,-1
 166 817 l 1,38,39
 169 841 169 841 182 864 c 128,-1,40
 195 887 195 887 210 898 c 1,34,-1
EndSplineSet
EndChar

StartChar: Eacute
Encoding: 201 201 138
Width: 565
GlyphClass: 2
Flags: W
LayerCount: 2
Fore
SplineSet
190 386 m 1,0,-1
 252 387 l 1,1,-1
 444 387 l 1,2,3
 449 364 449 364 449 345 c 128,-1,4
 449 326 449 326 444 303 c 1,5,-1
 252 303 l 2,6,7
 213 303 213 303 190 304 c 1,8,-1
 190 130 l 2,9,10
 190 122 190 122 189.5 106.5 c 128,-1,11
 189 91 189 91 189 82 c 1,12,13
 217 85 217 85 254 85 c 2,14,-1
 516 85 l 1,15,16
 516 59 516 59 514 46 c 0,17,18
 505 -1 505 -1 450 -1 c 2,19,-1
 149 -1 l 2,20,21
 123 -1 123 -1 107.5 15.5 c 128,-1,22
 92 32 92 32 92 61 c 2,23,-1
 92 677 l 1,24,-1
 98 683 l 1,25,-1
 497 683 l 1,26,27
 500 668 500 668 500 643.5 c 128,-1,28
 500 619 500 619 493 598 c 1,29,-1
 252 598 l 2,30,31
 212 598 212 598 189 599 c 1,32,-1
 190 534 l 1,33,-1
 190 386 l 1,0,-1
201 779 m 1,34,-1
 401 898 l 1,35,36
 416 887 416 887 429 864 c 128,-1,37
 442 841 442 841 445 817 c 1,38,-1
 230 728 l 1,39,40
 205 745 205 745 201 779 c 1,34,-1
EndSplineSet
EndChar

StartChar: Ecircumflex
Encoding: 202 202 139
Width: 565
GlyphClass: 2
Flags: W
LayerCount: 2
Fore
SplineSet
190 386 m 1,0,-1
 252 387 l 1,1,-1
 444 387 l 1,2,3
 449 364 449 364 449 345 c 128,-1,4
 449 326 449 326 444 303 c 1,5,-1
 252 303 l 2,6,7
 213 303 213 303 190 304 c 1,8,-1
 190 130 l 2,9,10
 190 122 190 122 189.5 106.5 c 128,-1,11
 189 91 189 91 189 82 c 1,12,13
 217 85 217 85 254 85 c 2,14,-1
 516 85 l 1,15,16
 516 59 516 59 514 46 c 0,17,18
 505 -1 505 -1 450 -1 c 2,19,-1
 149 -1 l 2,20,21
 123 -1 123 -1 107.5 15.5 c 128,-1,22
 92 32 92 32 92 61 c 2,23,-1
 92 677 l 1,24,-1
 98 683 l 1,25,-1
 497 683 l 1,26,27
 500 668 500 668 500 643.5 c 128,-1,28
 500 619 500 619 493 598 c 1,29,-1
 252 598 l 2,30,31
 212 598 212 598 189 599 c 1,32,-1
 190 534 l 1,33,-1
 190 386 l 1,0,-1
410 737 m 1,34,-1
 298 812 l 1,35,-1
 184 730 l 1,36,37
 171 735 171 735 158 747.5 c 128,-1,38
 145 760 145 760 141 774 c 1,39,-1
 255 885 l 1,40,41
 276 890 276 890 298 890 c 128,-1,42
 320 890 320 890 342 885 c 1,43,-1
 453 780 l 1,44,45
 448 765 448 765 435.5 753 c 128,-1,46
 423 741 423 741 410 737 c 1,34,-1
EndSplineSet
EndChar

StartChar: Edieresis
Encoding: 203 203 140
Width: 565
GlyphClass: 2
Flags: W
LayerCount: 2
Fore
SplineSet
190 386 m 1,0,-1
 252 387 l 1,1,-1
 444 387 l 1,2,3
 449 364 449 364 449 345 c 128,-1,4
 449 326 449 326 444 303 c 1,5,-1
 252 303 l 2,6,7
 213 303 213 303 190 304 c 1,8,-1
 190 130 l 2,9,10
 190 122 190 122 189.5 106.5 c 128,-1,11
 189 91 189 91 189 82 c 1,12,13
 217 85 217 85 254 85 c 2,14,-1
 516 85 l 1,15,16
 516 59 516 59 514 46 c 0,17,18
 505 -1 505 -1 450 -1 c 2,19,-1
 149 -1 l 2,20,21
 123 -1 123 -1 107.5 15.5 c 128,-1,22
 92 32 92 32 92 61 c 2,23,-1
 92 677 l 1,24,-1
 98 683 l 1,25,-1
 497 683 l 1,26,27
 500 668 500 668 500 643.5 c 128,-1,28
 500 619 500 619 493 598 c 1,29,-1
 252 598 l 2,30,31
 212 598 212 598 189 599 c 1,32,-1
 190 534 l 1,33,-1
 190 386 l 1,0,-1
403 839 m 128,-1,35
 430 839 430 839 450 828 c 1,36,37
 458 811 458 811 458 787.5 c 128,-1,38
 458 764 458 764 450 747 c 1,39,40
 433 736 433 736 403 736 c 128,-1,41
 373 736 373 736 356 747 c 1,42,43
 347 764 347 764 347 787.5 c 128,-1,44
 347 811 347 811 356 828 c 1,45,34
 376 839 376 839 403 839 c 128,-1,35
195 839 m 128,-1,47
 222 839 222 839 242 828 c 1,48,49
 251 811 251 811 251 787.5 c 128,-1,50
 251 764 251 764 242 747 c 1,51,52
 225 736 225 736 195 736 c 128,-1,53
 165 736 165 736 148 747 c 1,54,55
 140 764 140 764 140 787.5 c 128,-1,56
 140 811 140 811 148 828 c 1,57,46
 168 839 168 839 195 839 c 128,-1,47
EndSplineSet
EndChar

StartChar: Igrave
Encoding: 204 204 141
Width: 292
GlyphClass: 2
Flags: W
LayerCount: 2
Fore
SplineSet
96 0 m 1,0,-1
 96 683 l 1,1,2
 115 687 115 687 145.5 687 c 128,-1,3
 176 687 176 687 196 683 c 1,4,-1
 196 0 l 1,5,6
 176 -4 176 -4 145.5 -4 c 128,-1,7
 115 -4 115 -4 96 0 c 1,0,-1
57 898 m 1,8,-1
 257 779 l 1,9,10
 251 743 251 743 228 728 c 1,11,-1
 13 817 l 1,12,13
 16 841 16 841 29 864 c 128,-1,14
 42 887 42 887 57 898 c 1,8,-1
EndSplineSet
EndChar

StartChar: Iacute
Encoding: 205 205 142
Width: 292
GlyphClass: 2
Flags: W
LayerCount: 2
Fore
SplineSet
96 0 m 1,0,-1
 96 683 l 1,1,2
 115 687 115 687 145.5 687 c 128,-1,3
 176 687 176 687 196 683 c 1,4,-1
 196 0 l 1,5,6
 176 -4 176 -4 145.5 -4 c 128,-1,7
 115 -4 115 -4 96 0 c 1,0,-1
48 779 m 1,8,-1
 248 898 l 1,9,10
 263 887 263 887 276 864 c 128,-1,11
 289 841 289 841 292 817 c 1,12,-1
 77 728 l 1,13,14
 52 745 52 745 48 779 c 1,8,-1
EndSplineSet
EndChar

StartChar: Icircumflex
Encoding: 206 206 143
Width: 292
GlyphClass: 2
Flags: W
LayerCount: 2
Fore
SplineSet
96 0 m 1,0,-1
 96 683 l 1,1,2
 115 687 115 687 145.5 687 c 128,-1,3
 176 687 176 687 196 683 c 1,4,-1
 196 0 l 1,5,6
 176 -4 176 -4 145.5 -4 c 128,-1,7
 115 -4 115 -4 96 0 c 1,0,-1
257 737 m 1,8,-1
 145 812 l 1,9,-1
 31 730 l 1,10,11
 18 735 18 735 5 747.5 c 128,-1,12
 -8 760 -8 760 -12 774 c 1,13,-1
 102 885 l 1,14,15
 124 890 124 890 146 890 c 128,-1,16
 168 890 168 890 189 885 c 1,17,-1
 300 780 l 1,18,19
 295 765 295 765 282.5 753 c 128,-1,20
 270 741 270 741 257 737 c 1,8,-1
EndSplineSet
EndChar

StartChar: Idieresis
Encoding: 207 207 144
Width: 292
GlyphClass: 2
Flags: W
LayerCount: 2
Fore
SplineSet
96 0 m 1,0,-1
 96 683 l 1,1,2
 115 687 115 687 145.5 687 c 128,-1,3
 176 687 176 687 196 683 c 1,4,-1
 196 0 l 1,5,6
 176 -4 176 -4 145.5 -4 c 128,-1,7
 115 -4 115 -4 96 0 c 1,0,-1
250 839 m 128,-1,9
 277 839 277 839 297 828 c 1,10,11
 305 811 305 811 305 787.5 c 128,-1,12
 305 764 305 764 297 747 c 1,13,14
 280 736 280 736 250 736 c 128,-1,15
 220 736 220 736 203 747 c 1,16,17
 194 764 194 764 194 787.5 c 128,-1,18
 194 811 194 811 203 828 c 1,19,8
 223 839 223 839 250 839 c 128,-1,9
42 839 m 128,-1,21
 69 839 69 839 89 828 c 1,22,23
 98 811 98 811 98 787.5 c 128,-1,24
 98 764 98 764 89 747 c 1,25,26
 72 736 72 736 42 736 c 128,-1,27
 12 736 12 736 -5 747 c 1,28,29
 -13 764 -13 764 -13 787.5 c 128,-1,30
 -13 811 -13 811 -5 828 c 1,31,20
 15 839 15 839 42 839 c 128,-1,21
EndSplineSet
EndChar

StartChar: Eth
Encoding: 208 208 145
Width: 662
GlyphClass: 2
Flags: W
LayerCount: 2
Fore
SplineSet
587 513 m 128,-1,1
 609 441 609 441 609 341 c 128,-1,2
 609 241 609 241 587.5 169 c 128,-1,3
 566 97 566 97 504 46 c 0,4,5
 474 21 474 21 424.5 8 c 128,-1,6
 375 -5 375 -5 331.5 -5 c 128,-1,7
 288 -5 288 -5 114 -1 c 1,8,-1
 108 6 l 1,9,-1
 108 305 l 1,10,-1
 30 305 l 1,11,12
 26 321 26 321 26 345 c 128,-1,13
 26 369 26 369 30 388 c 1,14,-1
 108 388 l 1,15,-1
 108 677 l 1,16,-1
 114 684 l 1,17,18
 201 687 201 687 331 687 c 0,19,20
 375 687 375 687 424.5 674 c 128,-1,21
 474 661 474 661 504 636 c 0,22,0
 565 585 565 585 587 513 c 128,-1,1
330 606 m 2,23,-1
 207 607 l 1,24,-1
 207 388 l 1,25,-1
 364 388 l 1,26,27
 369 365 369 365 369 345 c 128,-1,28
 369 325 369 325 364 305 c 1,29,-1
 207 305 l 1,30,-1
 207 77 l 1,31,-1
 330 76 l 2,32,33
 439 76 439 76 475 165 c 0,34,35
 505 239 505 239 505 342 c 256,36,37
 505 445 505 445 475 518 c 0,38,39
 439 606 439 606 330 606 c 2,23,-1
EndSplineSet
EndChar

StartChar: Ntilde
Encoding: 209 209 146
Width: 678
GlyphClass: 2
Flags: W
LayerCount: 2
Fore
SplineSet
181 565 m 1,0,-1
 177 565 l 1,1,2
 185 429 185 429 185 326 c 2,3,-1
 185 0 l 1,4,5
 162 -4 162 -4 138.5 -4 c 128,-1,6
 115 -4 115 -4 92 0 c 1,7,-1
 92 682 l 1,8,9
 120 687 120 687 153.5 687 c 128,-1,10
 187 687 187 687 212 683 c 1,11,-1
 430 256 l 2,12,13
 445 227 445 227 468 176.5 c 128,-1,14
 491 126 491 126 498 113 c 1,15,-1
 498 112 l 1,16,-1
 501 113 l 1,17,18
 493 239 493 239 493 360 c 2,19,-1
 493 624 l 2,20,21
 493 658 493 658 504.5 672.5 c 128,-1,22
 516 687 516 687 547 687 c 2,23,-1
 579 687 l 1,24,-1
 586 682 l 1,25,-1
 586 1 l 1,26,27
 558 -4 558 -4 524 -4 c 128,-1,28
 490 -4 490 -4 465 0 c 1,29,-1
 246 427 l 2,30,31
 216 486 216 486 181 565 c 1,0,-1
354 756 m 2,32,-1
 297 783 l 2,33,34
 277 792 277 792 259.5 792 c 128,-1,35
 242 792 242 792 224 767 c 1,36,-1
 212 753 l 1,37,38
 197 753 197 753 183 761.5 c 128,-1,39
 169 770 169 770 164 782 c 1,40,-1
 172 802 l 2,41,42
 186 835 186 835 213 854 c 128,-1,43
 240 873 240 873 270 873 c 128,-1,44
 300 873 300 873 330 858 c 2,45,-1
 387 831 l 1,46,47
 403 822 403 822 422 822 c 128,-1,48
 441 822 441 822 460 847 c 1,49,-1
 472 861 l 1,50,51
 486 861 486 861 500 852.5 c 128,-1,52
 514 844 514 844 520 831 c 1,53,-1
 512 812 l 1,54,55
 496 778 496 778 469.5 759.5 c 128,-1,56
 443 741 443 741 415.5 741 c 128,-1,57
 388 741 388 741 354 756 c 2,32,-1
EndSplineSet
EndChar

StartChar: Ograve
Encoding: 210 210 147
Width: 657
GlyphClass: 2
Flags: W
LayerCount: 2
Fore
SplineSet
156 342 m 128,-1,1
 156 290 156 290 163.5 246 c 128,-1,2
 171 202 171 202 188.5 159.5 c 128,-1,3
 206 117 206 117 241.5 92.5 c 128,-1,4
 277 68 277 68 323 68 c 128,-1,5
 369 68 369 68 400.5 85 c 128,-1,6
 432 102 432 102 450.5 128.5 c 128,-1,7
 469 155 469 155 480 192 c 0,8,9
 500 256 500 256 500 325 c 128,-1,10
 500 394 500 394 493 437.5 c 128,-1,11
 486 481 486 481 468.5 523.5 c 128,-1,12
 451 566 451 566 415 590.5 c 128,-1,13
 379 615 379 615 328 615 c 128,-1,14
 277 615 277 615 241.5 590.5 c 128,-1,15
 206 566 206 566 188.5 523.5 c 128,-1,16
 171 481 171 481 163.5 437.5 c 128,-1,0
 156 394 156 394 156 342 c 128,-1,1
157 47 m 0,17,18
 51 139 51 139 51 341.5 c 128,-1,19
 51 544 51 544 157 636 c 0,20,21
 225 696 225 696 328 696 c 128,-1,22
 431 696 431 696 499 636 c 1,23,24
 606 544 606 544 606 341.5 c 128,-1,25
 606 139 606 139 499 47 c 1,26,27
 431 -13 431 -13 328 -13 c 128,-1,28
 225 -13 225 -13 157 47 c 0,17,18
239 898 m 1,29,-1
 439 779 l 1,30,31
 433 743 433 743 410 728 c 1,32,-1
 195 817 l 1,33,34
 198 841 198 841 211 864 c 128,-1,35
 224 887 224 887 239 898 c 1,29,-1
EndSplineSet
EndChar

StartChar: Oacute
Encoding: 211 211 148
Width: 657
GlyphClass: 2
Flags: W
LayerCount: 2
Fore
SplineSet
156 342 m 128,-1,1
 156 290 156 290 163.5 246 c 128,-1,2
 171 202 171 202 188.5 159.5 c 128,-1,3
 206 117 206 117 241.5 92.5 c 128,-1,4
 277 68 277 68 323 68 c 128,-1,5
 369 68 369 68 400.5 85 c 128,-1,6
 432 102 432 102 450.5 128.5 c 128,-1,7
 469 155 469 155 480 192 c 0,8,9
 500 256 500 256 500 325 c 128,-1,10
 500 394 500 394 493 437.5 c 128,-1,11
 486 481 486 481 468.5 523.5 c 128,-1,12
 451 566 451 566 415 590.5 c 128,-1,13
 379 615 379 615 328 615 c 128,-1,14
 277 615 277 615 241.5 590.5 c 128,-1,15
 206 566 206 566 188.5 523.5 c 128,-1,16
 171 481 171 481 163.5 437.5 c 128,-1,0
 156 394 156 394 156 342 c 128,-1,1
157 47 m 0,17,18
 51 139 51 139 51 341.5 c 128,-1,19
 51 544 51 544 157 636 c 0,20,21
 225 696 225 696 328 696 c 128,-1,22
 431 696 431 696 499 636 c 1,23,24
 606 544 606 544 606 341.5 c 128,-1,25
 606 139 606 139 499 47 c 1,26,27
 431 -13 431 -13 328 -13 c 128,-1,28
 225 -13 225 -13 157 47 c 0,17,18
230 779 m 1,29,-1
 430 898 l 1,30,31
 445 887 445 887 458 864 c 128,-1,32
 471 841 471 841 474 817 c 1,33,-1
 259 728 l 1,34,35
 234 745 234 745 230 779 c 1,29,-1
EndSplineSet
EndChar

StartChar: Ocircumflex
Encoding: 212 212 149
Width: 657
GlyphClass: 2
Flags: W
LayerCount: 2
Fore
SplineSet
156 342 m 128,-1,1
 156 290 156 290 163.5 246 c 128,-1,2
 171 202 171 202 188.5 159.5 c 128,-1,3
 206 117 206 117 241.5 92.5 c 128,-1,4
 277 68 277 68 323 68 c 128,-1,5
 369 68 369 68 400.5 85 c 128,-1,6
 432 102 432 102 450.5 128.5 c 128,-1,7
 469 155 469 155 480 192 c 0,8,9
 500 256 500 256 500 325 c 128,-1,10
 500 394 500 394 493 437.5 c 128,-1,11
 486 481 486 481 468.5 523.5 c 128,-1,12
 451 566 451 566 415 590.5 c 128,-1,13
 379 615 379 615 328 615 c 128,-1,14
 277 615 277 615 241.5 590.5 c 128,-1,15
 206 566 206 566 188.5 523.5 c 128,-1,16
 171 481 171 481 163.5 437.5 c 128,-1,0
 156 394 156 394 156 342 c 128,-1,1
157 47 m 0,17,18
 51 139 51 139 51 341.5 c 128,-1,19
 51 544 51 544 157 636 c 0,20,21
 225 696 225 696 328 696 c 128,-1,22
 431 696 431 696 499 636 c 1,23,24
 606 544 606 544 606 341.5 c 128,-1,25
 606 139 606 139 499 47 c 1,26,27
 431 -13 431 -13 328 -13 c 128,-1,28
 225 -13 225 -13 157 47 c 0,17,18
439 737 m 1,29,-1
 327 812 l 1,30,-1
 213 730 l 1,31,32
 200 735 200 735 187 747.5 c 128,-1,33
 174 760 174 760 170 774 c 1,34,-1
 284 885 l 1,35,36
 306 890 306 890 327.5 890 c 128,-1,37
 349 890 349 890 371 885 c 1,38,-1
 482 780 l 1,39,40
 477 765 477 765 464.5 753 c 128,-1,41
 452 741 452 741 439 737 c 1,29,-1
EndSplineSet
EndChar

StartChar: Otilde
Encoding: 213 213 150
Width: 657
GlyphClass: 2
Flags: W
LayerCount: 2
Fore
SplineSet
156 342 m 128,-1,1
 156 290 156 290 163.5 246 c 128,-1,2
 171 202 171 202 188.5 159.5 c 128,-1,3
 206 117 206 117 241.5 92.5 c 128,-1,4
 277 68 277 68 323 68 c 128,-1,5
 369 68 369 68 400.5 85 c 128,-1,6
 432 102 432 102 450.5 128.5 c 128,-1,7
 469 155 469 155 480 192 c 0,8,9
 500 256 500 256 500 325 c 128,-1,10
 500 394 500 394 493 437.5 c 128,-1,11
 486 481 486 481 468.5 523.5 c 128,-1,12
 451 566 451 566 415 590.5 c 128,-1,13
 379 615 379 615 328 615 c 128,-1,14
 277 615 277 615 241.5 590.5 c 128,-1,15
 206 566 206 566 188.5 523.5 c 128,-1,16
 171 481 171 481 163.5 437.5 c 128,-1,0
 156 394 156 394 156 342 c 128,-1,1
157 47 m 0,17,18
 51 139 51 139 51 341.5 c 128,-1,19
 51 544 51 544 157 636 c 0,20,21
 225 696 225 696 328 696 c 128,-1,22
 431 696 431 696 499 636 c 1,23,24
 606 544 606 544 606 341.5 c 128,-1,25
 606 139 606 139 499 47 c 1,26,27
 431 -13 431 -13 328 -13 c 128,-1,28
 225 -13 225 -13 157 47 c 0,17,18
339 762 m 2,29,-1
 283 790 l 1,30,31
 259 798 259 798 251 798 c 0,32,33
 230 798 230 798 211 774 c 1,34,-1
 200 759 l 1,35,36
 185 759 185 759 171 767.5 c 128,-1,37
 157 776 157 776 152 789 c 1,38,-1
 161 808 l 1,39,40
 192 879 192 879 258 879 c 0,41,42
 283 879 283 879 315 863 c 1,43,-1
 371 837 l 1,44,45
 387 828 387 828 405 828 c 128,-1,46
 423 828 423 828 443 853 c 2,47,-1
 454 867 l 1,48,49
 490 865 490 865 502 837 c 1,50,-1
 493 818 l 2,51,52
 478 784 478 784 452 765.5 c 128,-1,53
 426 747 426 747 398.5 747 c 128,-1,54
 371 747 371 747 339 762 c 2,29,-1
EndSplineSet
EndChar

StartChar: Odieresis
Encoding: 214 214 151
Width: 657
GlyphClass: 2
Flags: W
LayerCount: 2
Fore
SplineSet
156 342 m 128,-1,1
 156 290 156 290 163.5 246 c 128,-1,2
 171 202 171 202 188.5 159.5 c 128,-1,3
 206 117 206 117 241.5 92.5 c 128,-1,4
 277 68 277 68 323 68 c 128,-1,5
 369 68 369 68 400.5 85 c 128,-1,6
 432 102 432 102 450.5 128.5 c 128,-1,7
 469 155 469 155 480 192 c 0,8,9
 500 256 500 256 500 325 c 128,-1,10
 500 394 500 394 493 437.5 c 128,-1,11
 486 481 486 481 468.5 523.5 c 128,-1,12
 451 566 451 566 415 590.5 c 128,-1,13
 379 615 379 615 328 615 c 128,-1,14
 277 615 277 615 241.5 590.5 c 128,-1,15
 206 566 206 566 188.5 523.5 c 128,-1,16
 171 481 171 481 163.5 437.5 c 128,-1,0
 156 394 156 394 156 342 c 128,-1,1
157 47 m 0,17,18
 51 139 51 139 51 341.5 c 128,-1,19
 51 544 51 544 157 636 c 0,20,21
 225 696 225 696 328 696 c 128,-1,22
 431 696 431 696 499 636 c 1,23,24
 606 544 606 544 606 341.5 c 128,-1,25
 606 139 606 139 499 47 c 1,26,27
 431 -13 431 -13 328 -13 c 128,-1,28
 225 -13 225 -13 157 47 c 0,17,18
432 839 m 128,-1,30
 459 839 459 839 479 828 c 1,31,32
 487 811 487 811 487 787.5 c 128,-1,33
 487 764 487 764 479 747 c 1,34,35
 462 736 462 736 432 736 c 128,-1,36
 402 736 402 736 385 747 c 1,37,38
 376 764 376 764 376 787.5 c 128,-1,39
 376 811 376 811 385 828 c 1,40,29
 405 839 405 839 432 839 c 128,-1,30
224 839 m 128,-1,42
 251 839 251 839 271 828 c 1,43,44
 280 811 280 811 280 787.5 c 128,-1,45
 280 764 280 764 271 747 c 1,46,47
 254 736 254 736 224 736 c 128,-1,48
 194 736 194 736 177 747 c 1,49,50
 169 764 169 764 169 787.5 c 128,-1,51
 169 811 169 811 177 828 c 1,52,41
 197 839 197 839 224 839 c 128,-1,42
EndSplineSet
EndChar

StartChar: multiply
Encoding: 215 215 152
Width: 530
GlyphClass: 2
Flags: W
LayerCount: 2
Fore
SplineSet
236 204 m 2,0,-1
 135 101 l 1,1,2
 118 109 118 109 101 125 c 128,-1,3
 84 141 84 141 73 163 c 1,4,-1
 176 264 l 2,5,6
 189 278 189 278 205 293 c 1,7,8
 189 307 189 307 176 322 c 1,9,-1
 73 423 l 1,10,11
 99 471 99 471 135 484 c 1,12,-1
 236 382 l 2,13,14
 246 373 246 373 265 352 c 1,15,-1
 293 382 l 1,16,-1
 395 484 l 1,17,18
 413 477 413 477 430 460 c 1,19,20
 447 445 447 445 456 423 c 1,21,-1
 325 293 l 1,22,-1
 456 163 l 1,23,24
 447 142 447 142 430.5 125.5 c 128,-1,25
 414 109 414 109 395 102 c 1,26,-1
 265 233 l 1,27,28
 250 217 250 217 236 204 c 2,0,-1
EndSplineSet
EndChar

StartChar: Oslash
Encoding: 216 216 153
Width: 658
GlyphClass: 2
Flags: W
LayerCount: 2
Fore
SplineSet
51 342 m 0,0,1
 51 431 51 431 77 509.5 c 128,-1,2
 103 588 103 588 158 636 c 0,3,4
 226 696 226 696 329 696 c 0,5,6
 403 696 403 696 457 666 c 1,7,-1
 496 734 l 1,8,9
 538 728 538 728 562 698 c 1,10,-1
 518 618 l 1,11,12
 607 522 607 522 607 342 c 0,13,14
 607 140 607 140 500 47 c 0,15,16
 432 -13 432 -13 329 -13 c 0,17,18
 255 -13 255 -13 200 16 c 1,19,-1
 162 -50 l 1,20,21
 120 -44 120 -44 96 -14 c 1,22,-1
 140 64 l 1,23,24
 51 160 51 160 51 342 c 0,0,1
189 155 m 1,25,-1
 416 591 l 1,26,27
 379 617 379 617 328.5 617 c 128,-1,28
 278 617 278 617 241.5 592 c 128,-1,29
 205 567 205 567 187 524 c 0,30,31
 153 444 153 444 153 334 c 128,-1,32
 153 224 153 224 189 155 c 1,25,-1
469 527 m 1,33,-1
 241 92 l 1,34,35
 278 66 278 66 329 66 c 128,-1,36
 380 66 380 66 416 91 c 128,-1,37
 452 116 452 116 470 159 c 0,38,39
 504 237 504 237 504 346.5 c 128,-1,40
 504 456 504 456 469 527 c 1,33,-1
EndSplineSet
EndChar

StartChar: Ugrave
Encoding: 217 217 154
Width: 668
GlyphClass: 2
Flags: W
LayerCount: 2
Fore
SplineSet
584 683 m 1,0,-1
 584 238 l 2,1,2
 584 117 584 117 516.5 52 c 128,-1,3
 449 -13 449 -13 334 -13 c 128,-1,4
 219 -13 219 -13 151.5 52 c 128,-1,5
 84 117 84 117 84 238 c 2,6,-1
 84 681 l 1,7,-1
 90 687 l 1,8,-1
 128 687 l 2,9,10
 159 687 159 687 171.5 672 c 128,-1,11
 184 657 184 657 184 623 c 2,12,-1
 184 239 l 2,13,14
 184 155 184 155 222 111.5 c 128,-1,15
 260 68 260 68 334 68 c 128,-1,16
 408 68 408 68 446.5 111.5 c 128,-1,17
 485 155 485 155 485 239 c 2,18,-1
 485 683 l 1,19,20
 504 687 504 687 534.5 687 c 128,-1,21
 565 687 565 687 584 683 c 1,0,-1
244 898 m 1,22,-1
 444 779 l 1,23,24
 438 743 438 743 415 728 c 1,25,-1
 200 817 l 1,26,27
 203 841 203 841 216 864 c 128,-1,28
 229 887 229 887 244 898 c 1,22,-1
EndSplineSet
EndChar

StartChar: Uacute
Encoding: 218 218 155
Width: 668
GlyphClass: 2
Flags: W
LayerCount: 2
Fore
SplineSet
584 683 m 1,0,-1
 584 238 l 2,1,2
 584 117 584 117 516.5 52 c 128,-1,3
 449 -13 449 -13 334 -13 c 128,-1,4
 219 -13 219 -13 151.5 52 c 128,-1,5
 84 117 84 117 84 238 c 2,6,-1
 84 681 l 1,7,-1
 90 687 l 1,8,-1
 128 687 l 2,9,10
 159 687 159 687 171.5 672 c 128,-1,11
 184 657 184 657 184 623 c 2,12,-1
 184 239 l 2,13,14
 184 155 184 155 222 111.5 c 128,-1,15
 260 68 260 68 334 68 c 128,-1,16
 408 68 408 68 446.5 111.5 c 128,-1,17
 485 155 485 155 485 239 c 2,18,-1
 485 683 l 1,19,20
 504 687 504 687 534.5 687 c 128,-1,21
 565 687 565 687 584 683 c 1,0,-1
235 779 m 1,22,-1
 435 898 l 1,23,24
 450 887 450 887 463 864 c 128,-1,25
 476 841 476 841 479 817 c 1,26,-1
 264 728 l 1,27,28
 239 745 239 745 235 779 c 1,22,-1
EndSplineSet
EndChar

StartChar: Ucircumflex
Encoding: 219 219 156
Width: 668
GlyphClass: 2
Flags: W
LayerCount: 2
Fore
SplineSet
584 683 m 1,0,-1
 584 238 l 2,1,2
 584 117 584 117 516.5 52 c 128,-1,3
 449 -13 449 -13 334 -13 c 128,-1,4
 219 -13 219 -13 151.5 52 c 128,-1,5
 84 117 84 117 84 238 c 2,6,-1
 84 681 l 1,7,-1
 90 687 l 1,8,-1
 128 687 l 2,9,10
 159 687 159 687 171.5 672 c 128,-1,11
 184 657 184 657 184 623 c 2,12,-1
 184 239 l 2,13,14
 184 155 184 155 222 111.5 c 128,-1,15
 260 68 260 68 334 68 c 128,-1,16
 408 68 408 68 446.5 111.5 c 128,-1,17
 485 155 485 155 485 239 c 2,18,-1
 485 683 l 1,19,20
 504 687 504 687 534.5 687 c 128,-1,21
 565 687 565 687 584 683 c 1,0,-1
444 737 m 1,22,-1
 332 812 l 1,23,-1
 218 730 l 1,24,25
 205 735 205 735 192 747.5 c 128,-1,26
 179 760 179 760 175 774 c 1,27,-1
 289 885 l 1,28,29
 311 890 311 890 332.5 890 c 128,-1,30
 354 890 354 890 376 885 c 1,31,-1
 487 780 l 1,32,33
 482 765 482 765 469.5 753 c 128,-1,34
 457 741 457 741 444 737 c 1,22,-1
EndSplineSet
EndChar

StartChar: Udieresis
Encoding: 220 220 157
Width: 668
GlyphClass: 2
Flags: W
LayerCount: 2
Fore
SplineSet
584 683 m 1,0,-1
 584 238 l 2,1,2
 584 117 584 117 516.5 52 c 128,-1,3
 449 -13 449 -13 334 -13 c 128,-1,4
 219 -13 219 -13 151.5 52 c 128,-1,5
 84 117 84 117 84 238 c 2,6,-1
 84 681 l 1,7,-1
 90 687 l 1,8,-1
 128 687 l 2,9,10
 159 687 159 687 171.5 672 c 128,-1,11
 184 657 184 657 184 623 c 2,12,-1
 184 239 l 2,13,14
 184 155 184 155 222 111.5 c 128,-1,15
 260 68 260 68 334 68 c 128,-1,16
 408 68 408 68 446.5 111.5 c 128,-1,17
 485 155 485 155 485 239 c 2,18,-1
 485 683 l 1,19,20
 504 687 504 687 534.5 687 c 128,-1,21
 565 687 565 687 584 683 c 1,0,-1
437 839 m 128,-1,23
 464 839 464 839 484 828 c 1,24,25
 492 811 492 811 492 787.5 c 128,-1,26
 492 764 492 764 484 747 c 1,27,28
 467 736 467 736 437 736 c 128,-1,29
 407 736 407 736 390 747 c 1,30,31
 381 764 381 764 381 787.5 c 128,-1,32
 381 811 381 811 390 828 c 1,33,22
 410 839 410 839 437 839 c 128,-1,23
229 839 m 128,-1,35
 256 839 256 839 276 828 c 1,36,37
 285 811 285 811 285 787.5 c 128,-1,38
 285 764 285 764 276 747 c 1,39,40
 259 736 259 736 229 736 c 128,-1,41
 199 736 199 736 182 747 c 1,42,43
 174 764 174 764 174 787.5 c 128,-1,44
 174 811 174 811 182 828 c 1,45,34
 202 839 202 839 229 839 c 128,-1,35
EndSplineSet
EndChar

StartChar: Yacute
Encoding: 221 221 158
Width: 495
GlyphClass: 2
Flags: W
LayerCount: 2
Fore
SplineSet
299 447 m 2,0,-1
 392 683 l 1,1,2
 410 688 410 688 434 688 c 128,-1,3
 458 688 458 688 483 681 c 1,4,-1
 488 674 l 1,5,-1
 298 220 l 1,6,-1
 298 0 l 1,7,8
 278 -4 278 -4 247.5 -4 c 128,-1,9
 217 -4 217 -4 198 0 c 1,10,-1
 198 222 l 1,11,-1
 8 672 l 1,12,13
 40 690 40 690 65.5 690 c 128,-1,14
 91 690 91 690 103.5 679.5 c 128,-1,15
 116 669 116 669 125 646 c 2,16,-1
 208 445 l 2,17,18
 224 405 224 405 250 322 c 1,19,-1
 255 322 l 1,20,21
 271 377 271 377 299 447 c 2,0,-1
153 779 m 1,22,-1
 353 898 l 1,23,24
 368 887 368 887 381 864 c 128,-1,25
 394 841 394 841 397 817 c 1,26,-1
 182 728 l 1,27,28
 157 745 157 745 153 779 c 1,22,-1
EndSplineSet
EndChar

StartChar: Thorn
Encoding: 222 222 159
Width: 568
GlyphClass: 2
Flags: W
LayerCount: 2
Fore
SplineSet
92 0 m 1,0,-1
 92 683 l 1,1,2
 112 687 112 687 142 687 c 128,-1,3
 172 687 172 687 192 683 c 1,4,-1
 192 580 l 1,5,6
 262 582 262 582 299 582 c 0,7,8
 402 582 402 582 464.5 526.5 c 128,-1,9
 527 471 527 471 527 364.5 c 128,-1,10
 527 258 527 258 464.5 202 c 128,-1,11
 402 146 402 146 299 146 c 2,12,-1
 192 146 l 1,13,-1
 192 0 l 1,14,15
 172 -4 172 -4 142 -4 c 128,-1,16
 112 -4 112 -4 92 0 c 1,0,-1
297 501 m 2,17,-1
 192 502 l 1,18,-1
 192 226 l 1,19,20
 231 227 231 227 298.5 227 c 128,-1,21
 366 227 366 227 394.5 267.5 c 128,-1,22
 423 308 423 308 423 364.5 c 128,-1,23
 423 421 423 421 394.5 461 c 128,-1,24
 366 501 366 501 297 501 c 2,17,-1
EndSplineSet
EndChar

StartChar: germandbls
Encoding: 223 223 160
Width: 623
GlyphClass: 2
Flags: W
LayerCount: 2
Fore
SplineSet
106 0 m 1,0,-1
 106 395 l 1,1,-1
 20 393 l 1,2,3
 16 409 16 409 16 432.5 c 128,-1,4
 16 456 16 456 20 473 c 1,5,-1
 106 471 l 1,6,-1
 106 507 l 2,7,8
 106 598 106 598 165 648.5 c 128,-1,9
 224 699 224 699 322 699 c 128,-1,10
 420 699 420 699 479 645 c 128,-1,11
 538 591 538 591 538 501 c 0,12,13
 538 464 538 464 523 423 c 1,14,-1
 521 423 l 1,15,-1
 523 422 l 1,16,17
 481 412 481 412 460 390.5 c 128,-1,18
 439 369 439 369 439 344.5 c 128,-1,19
 439 320 439 320 478 288 c 1,20,-1
 515 255 l 2,21,22
 589 189 589 189 589 127 c 128,-1,23
 589 65 589 65 539 26 c 128,-1,24
 489 -13 489 -13 414.5 -13 c 128,-1,25
 340 -13 340 -13 282 16 c 1,26,27
 283 33 283 33 292.5 54 c 128,-1,28
 302 75 302 75 315 86 c 1,29,30
 358 63 358 63 398.5 63 c 128,-1,31
 439 63 439 63 462.5 80 c 128,-1,32
 486 97 486 97 486 127.5 c 128,-1,33
 486 158 486 158 444 195 c 2,34,-1
 404 230 l 2,35,36
 337 288 337 288 337 340 c 0,37,38
 337 377 337 377 364 409.5 c 128,-1,39
 391 442 391 442 436 459 c 1,40,41
 440 483 440 483 440 496 c 0,42,43
 440 551 440 551 409.5 587.5 c 128,-1,44
 379 624 379 624 320.5 624 c 128,-1,45
 262 624 262 624 233 590.5 c 128,-1,46
 204 557 204 557 204 497 c 2,47,-1
 204 0 l 1,48,49
 185 -4 185 -4 155 -4 c 128,-1,50
 125 -4 125 -4 106 0 c 1,0,-1
EndSplineSet
EndChar

StartChar: aacute
Encoding: 225 225 162
Width: 506
GlyphClass: 2
Flags: W
LayerCount: 2
Fore
SplineSet
458 43 m 1,0,1
 448 8 448 8 420 -7 c 1,2,3
 365 4 365 4 344 57 c 1,4,5
 272 -13 272 -13 197 -13 c 128,-1,6
 122 -13 122 -13 83.5 31 c 128,-1,7
 45 75 45 75 45 134 c 0,8,9
 45 216 45 216 97.5 257.5 c 128,-1,10
 150 299 150 299 236 299 c 0,11,12
 287 299 287 299 335 292 c 1,13,-1
 335 333 l 2,14,15
 335 424 335 424 251 424 c 0,16,17
 186 424 186 424 92 385 c 1,18,19
 65 412 65 412 63 457 c 1,20,21
 168 503 168 503 268 503 c 0,22,23
 345 503 345 503 387.5 461 c 128,-1,24
 430 419 430 419 430 336 c 2,25,-1
 430 131 l 2,26,27
 430 67 430 67 458 43 c 1,0,1
212 65 m 0,28,29
 279 65 279 65 335 130 c 1,30,-1
 335 226 l 1,31,32
 296 231 296 231 245 231 c 128,-1,33
 194 231 194 231 168 207 c 128,-1,34
 142 183 142 183 142 145 c 128,-1,35
 142 107 142 107 160.5 86 c 128,-1,36
 179 65 179 65 212 65 c 0,28,29
171 577 m 1,37,-1
 313 735 l 1,38,39
 335 728 335 728 355 709.5 c 128,-1,40
 375 691 375 691 383 670 c 1,41,-1
 214 537 l 1,42,43
 182 548 182 548 171 577 c 1,37,-1
EndSplineSet
EndChar

StartChar: adieresis
Encoding: 228 228 165
Width: 506
GlyphClass: 2
Flags: W
LayerCount: 2
Fore
SplineSet
458 43 m 1,0,1
 448 8 448 8 420 -7 c 1,2,3
 365 4 365 4 344 57 c 1,4,5
 272 -13 272 -13 197 -13 c 128,-1,6
 122 -13 122 -13 83.5 31 c 128,-1,7
 45 75 45 75 45 134 c 0,8,9
 45 216 45 216 97.5 257.5 c 128,-1,10
 150 299 150 299 236 299 c 0,11,12
 287 299 287 299 335 292 c 1,13,-1
 335 333 l 2,14,15
 335 424 335 424 251 424 c 0,16,17
 186 424 186 424 92 385 c 1,18,19
 65 412 65 412 63 457 c 1,20,21
 168 503 168 503 268 503 c 0,22,23
 345 503 345 503 387.5 461 c 128,-1,24
 430 419 430 419 430 336 c 2,25,-1
 430 131 l 2,26,27
 430 67 430 67 458 43 c 1,0,1
212 65 m 0,28,29
 279 65 279 65 335 130 c 1,30,-1
 335 226 l 1,31,32
 296 231 296 231 245 231 c 128,-1,33
 194 231 194 231 168 207 c 128,-1,34
 142 183 142 183 142 145 c 128,-1,35
 142 107 142 107 160.5 86 c 128,-1,36
 179 65 179 65 212 65 c 0,28,29
282 611 m 128,-1,38
 282 631 282 631 290 649 c 1,39,40
 307 660 307 660 336.5 660 c 128,-1,41
 366 660 366 660 383 649 c 1,42,43
 390 630 390 630 390 610 c 128,-1,44
 390 590 390 590 383 573 c 1,45,46
 364 561 364 561 335.5 561 c 128,-1,47
 307 561 307 561 290 573 c 1,48,37
 282 591 282 591 282 611 c 128,-1,38
98 611 m 128,-1,50
 98 630 98 630 105 649 c 1,51,52
 122 660 122 660 151.5 660 c 128,-1,53
 181 660 181 660 198 649 c 1,54,55
 206 631 206 631 206 610 c 128,-1,56
 206 589 206 589 198 573 c 1,57,58
 181 561 181 561 152.5 561 c 128,-1,59
 124 561 124 561 105 573 c 1,60,49
 98 592 98 592 98 611 c 128,-1,50
EndSplineSet
EndChar

StartChar: aring
Encoding: 229 229 166
Width: 506
GlyphClass: 2
Flags: W
LayerCount: 2
Fore
SplineSet
458 43 m 1,0,1
 448 8 448 8 420 -7 c 1,2,3
 365 4 365 4 344 57 c 1,4,5
 272 -13 272 -13 197 -13 c 128,-1,6
 122 -13 122 -13 83.5 31 c 128,-1,7
 45 75 45 75 45 134 c 0,8,9
 45 216 45 216 97.5 257.5 c 128,-1,10
 150 299 150 299 236 299 c 0,11,12
 287 299 287 299 335 292 c 1,13,-1
 335 333 l 2,14,15
 335 424 335 424 251 424 c 0,16,17
 186 424 186 424 92 385 c 1,18,19
 65 412 65 412 63 457 c 1,20,21
 168 503 168 503 268 503 c 0,22,23
 345 503 345 503 387.5 461 c 128,-1,24
 430 419 430 419 430 336 c 2,25,-1
 430 131 l 2,26,27
 430 67 430 67 458 43 c 1,0,1
212 65 m 0,28,29
 279 65 279 65 335 130 c 1,30,-1
 335 226 l 1,31,32
 296 231 296 231 245 231 c 128,-1,33
 194 231 194 231 168 207 c 128,-1,34
 142 183 142 183 142 145 c 128,-1,35
 142 107 142 107 160.5 86 c 128,-1,36
 179 65 179 65 212 65 c 0,28,29
126 650 m 128,-1,38
 126 697 126 697 159 729 c 128,-1,39
 192 761 192 761 244 761 c 128,-1,40
 296 761 296 761 329 729 c 128,-1,41
 362 697 362 697 362 650 c 128,-1,42
 362 603 362 603 329 570.5 c 128,-1,43
 296 538 296 538 244 538 c 128,-1,44
 192 538 192 538 159 570.5 c 128,-1,37
 126 603 126 603 126 650 c 128,-1,38
208 689 m 128,-1,46
 194 673 194 673 194 649.5 c 128,-1,47
 194 626 194 626 208 610.5 c 128,-1,48
 222 595 222 595 244 595 c 128,-1,49
 266 595 266 595 280 610.5 c 128,-1,50
 294 626 294 626 294 649.5 c 128,-1,51
 294 673 294 673 280 689 c 128,-1,52
 266 705 266 705 244 705 c 128,-1,45
 222 705 222 705 208 689 c 128,-1,46
EndSplineSet
EndChar

StartChar: ae
Encoding: 230 230 167
Width: 785
GlyphClass: 2
Flags: W
LayerCount: 2
Fore
SplineSet
728 216 m 1,0,-1
 432 216 l 1,1,2
 435 145 435 145 462 106 c 128,-1,3
 489 67 489 67 552 67 c 128,-1,4
 615 67 615 67 690 107 c 1,5,6
 715 82 715 82 721 43 c 1,7,8
 641 -13 641 -13 531.5 -13 c 128,-1,9
 422 -13 422 -13 372 73 c 1,10,11
 296 -13 296 -13 192 -13 c 0,12,13
 122 -13 122 -13 83.5 31 c 128,-1,14
 45 75 45 75 45 135 c 0,15,16
 45 216 45 216 97 257.5 c 128,-1,17
 149 299 149 299 236 299 c 0,18,19
 282 299 282 299 335 291 c 1,20,-1
 335 333 l 2,21,22
 335 424 335 424 251 424 c 0,23,24
 186 424 186 424 92 385 c 1,25,26
 65 412 65 412 63 457 c 1,27,28
 168 503 168 503 262.5 503 c 128,-1,29
 357 503 357 503 397 440 c 1,30,31
 453 506 453 506 542 506 c 128,-1,32
 631 506 631 506 683 445.5 c 128,-1,33
 735 385 735 385 735 292 c 0,34,35
 735 254 735 254 728 216 c 1,0,-1
160.5 86.5 m 128,-1,37
 179 65 179 65 212.5 65 c 128,-1,38
 246 65 246 65 282.5 84 c 128,-1,39
 319 103 319 103 346 139 c 1,40,41
 337 177 337 177 334 224 c 1,42,43
 281 231 281 231 237.5 231 c 128,-1,44
 194 231 194 231 168 207.5 c 128,-1,45
 142 184 142 184 142 146 c 128,-1,36
 142 108 142 108 160.5 86.5 c 128,-1,37
538 434 m 0,46,47
 440 434 440 434 432 287 c 1,48,-1
 640 287 l 1,49,-1
 640 299 l 2,50,51
 640 359 640 359 615 396.5 c 128,-1,52
 590 434 590 434 538 434 c 0,46,47
EndSplineSet
EndChar

StartChar: ccedilla
Encoding: 231 231 168
Width: 471
GlyphClass: 2
Flags: W
LayerCount: 2
Fore
SplineSet
196 -74 m 1,0,1
 202 -48 202 -48 217 -11 c 1,2,3
 131 0 131 0 88.5 71 c 128,-1,4
 46 142 46 142 46 243 c 0,5,6
 46 373 46 373 106 439.5 c 128,-1,7
 166 506 166 506 252 506 c 128,-1,8
 338 506 338 506 385.5 459.5 c 128,-1,9
 433 413 433 413 433 357.5 c 128,-1,10
 433 302 433 302 383 302 c 0,11,12
 360 302 360 302 343 306 c 1,13,14
 343 311 343 311 343 316 c 0,15,16
 343 431 343 431 251 431 c 0,17,18
 201 431 201 431 173.5 383 c 128,-1,19
 146 335 146 335 146 243 c 0,20,21
 146 67 146 67 262 67 c 0,22,23
 315 67 315 67 385 119 c 1,24,25
 399 111 399 111 411 94 c 128,-1,26
 423 77 423 77 427 61 c 1,27,28
 365 -1 365 -1 279 -11 c 1,29,30
 270 -29 270 -29 268 -37 c 1,31,32
 309 -40 309 -40 334.5 -64 c 128,-1,33
 360 -88 360 -88 360 -128 c 128,-1,34
 360 -168 360 -168 326.5 -195 c 128,-1,35
 293 -222 293 -222 244.5 -222 c 128,-1,36
 196 -222 196 -222 164 -203 c 1,37,38
 165 -176 165 -176 184 -152 c 1,39,40
 207 -166 207 -166 232.5 -166 c 128,-1,41
 258 -166 258 -166 269 -154.5 c 128,-1,42
 280 -143 280 -143 280 -126 c 128,-1,43
 280 -109 280 -109 269 -97.5 c 128,-1,44
 258 -86 258 -86 241.5 -86 c 128,-1,45
 225 -86 225 -86 213 -91 c 1,46,47
 199 -86 199 -86 196 -74 c 1,0,1
EndSplineSet
EndChar

StartChar: eacute
Encoding: 233 233 170
Width: 501
GlyphClass: 2
Flags: W
LayerCount: 2
Fore
SplineSet
443 216 m 1,0,-1
 146 216 l 1,1,2
 149 145 149 145 176 106 c 128,-1,3
 203 67 203 67 266 67 c 128,-1,4
 329 67 329 67 405 106 c 1,5,6
 430 82 430 82 436 43 c 1,7,8
 356 -13 356 -13 248.5 -13 c 128,-1,9
 141 -13 141 -13 93.5 59 c 128,-1,10
 46 131 46 131 46 246.5 c 128,-1,11
 46 362 46 362 99.5 434 c 128,-1,12
 153 506 153 506 249.5 506 c 128,-1,13
 346 506 346 506 398 445.5 c 128,-1,14
 450 385 450 385 450 292 c 0,15,16
 450 254 450 254 443 216 c 1,0,-1
330.5 396.5 m 128,-1,18
 305 434 305 434 254 434 c 128,-1,19
 203 434 203 434 176 395.5 c 128,-1,20
 149 357 149 357 146 287 c 1,21,-1
 356 287 l 1,22,-1
 356 300 l 2,23,17
 356 359 356 359 330.5 396.5 c 128,-1,18
183 577 m 1,24,-1
 325 735 l 1,25,26
 347 728 347 728 367 709.5 c 128,-1,27
 387 691 387 691 395 670 c 1,28,-1
 226 537 l 1,29,30
 194 548 194 548 183 577 c 1,24,-1
EndSplineSet
EndChar

StartChar: edieresis
Encoding: 235 235 172
Width: 501
GlyphClass: 2
Flags: W
LayerCount: 2
Fore
SplineSet
443 216 m 1,0,-1
 146 216 l 1,1,2
 149 145 149 145 176 106 c 128,-1,3
 203 67 203 67 266 67 c 128,-1,4
 329 67 329 67 405 106 c 1,5,6
 430 82 430 82 436 43 c 1,7,8
 356 -13 356 -13 248.5 -13 c 128,-1,9
 141 -13 141 -13 93.5 59 c 128,-1,10
 46 131 46 131 46 246.5 c 128,-1,11
 46 362 46 362 99.5 434 c 128,-1,12
 153 506 153 506 249.5 506 c 128,-1,13
 346 506 346 506 398 445.5 c 128,-1,14
 450 385 450 385 450 292 c 0,15,16
 450 254 450 254 443 216 c 1,0,-1
330.5 396.5 m 128,-1,18
 305 434 305 434 254 434 c 128,-1,19
 203 434 203 434 176 395.5 c 128,-1,20
 149 357 149 357 146 287 c 1,21,-1
 356 287 l 1,22,-1
 356 300 l 2,23,17
 356 359 356 359 330.5 396.5 c 128,-1,18
293 611 m 128,-1,25
 293 631 293 631 301 649 c 1,26,27
 318 660 318 660 347.5 660 c 128,-1,28
 377 660 377 660 394 649 c 1,29,30
 401 630 401 630 401 610 c 128,-1,31
 401 590 401 590 394 573 c 1,32,33
 375 561 375 561 346.5 561 c 128,-1,34
 318 561 318 561 301 573 c 1,35,24
 293 591 293 591 293 611 c 128,-1,25
109 611 m 128,-1,37
 109 630 109 630 116 649 c 1,38,39
 133 660 133 660 162.5 660 c 128,-1,40
 192 660 192 660 209 649 c 1,41,42
 217 631 217 631 217 610 c 128,-1,43
 217 589 217 589 209 573 c 1,44,45
 192 561 192 561 163.5 561 c 128,-1,46
 135 561 135 561 116 573 c 1,47,36
 109 592 109 592 109 611 c 128,-1,37
EndSplineSet
EndChar

StartChar: igrave
Encoding: 236 236 173
Width: 265
GlyphClass: 2
Flags: W
LayerCount: 2
Fore
SplineSet
187 411 m 2,0,-1
 187 0 l 1,1,2
 170 -4 170 -4 139 -4 c 128,-1,3
 108 -4 108 -4 91 0 c 1,4,-1
 91 371 l 2,5,6
 91 398 91 398 81.5 410 c 128,-1,7
 72 422 72 422 48 422 c 2,8,-1
 37 422 l 1,9,10
 33 437 33 437 33 456 c 128,-1,11
 33 475 33 475 37 492 c 1,12,13
 69 496 69 496 97 496 c 2,14,-1
 110 496 l 2,15,16
 146 496 146 496 166.5 473.5 c 128,-1,17
 187 451 187 451 187 411 c 2,0,-1
59 735 m 1,18,-1
 201 577 l 1,19,20
 190 548 190 548 158 537 c 1,21,-1
 -11 670 l 1,22,23
 -3 691 -3 691 17 709.5 c 128,-1,24
 37 728 37 728 59 735 c 1,18,-1
EndSplineSet
EndChar

StartChar: iacute
Encoding: 237 237 174
Width: 265
GlyphClass: 2
Flags: W
LayerCount: 2
Fore
SplineSet
187 411 m 2,0,-1
 187 0 l 1,1,2
 170 -4 170 -4 139 -4 c 128,-1,3
 108 -4 108 -4 91 0 c 1,4,-1
 91 371 l 2,5,6
 91 398 91 398 81.5 410 c 128,-1,7
 72 422 72 422 48 422 c 2,8,-1
 37 422 l 1,9,10
 33 437 33 437 33 456 c 128,-1,11
 33 475 33 475 37 492 c 1,12,13
 69 496 69 496 97 496 c 2,14,-1
 110 496 l 2,15,16
 146 496 146 496 166.5 473.5 c 128,-1,17
 187 451 187 451 187 411 c 2,0,-1
47 577 m 1,18,-1
 189 735 l 1,19,20
 211 728 211 728 231 709.5 c 128,-1,21
 251 691 251 691 259 670 c 1,22,-1
 90 537 l 1,23,24
 58 548 58 548 47 577 c 1,18,-1
EndSplineSet
EndChar

StartChar: icircumflex
Encoding: 238 238 175
Width: 265
GlyphClass: 2
Flags: W
LayerCount: 2
Fore
SplineSet
187 411 m 2,0,-1
 187 0 l 1,1,2
 170 -4 170 -4 139 -4 c 128,-1,3
 108 -4 108 -4 91 0 c 1,4,-1
 91 371 l 2,5,6
 91 398 91 398 81.5 410 c 128,-1,7
 72 422 72 422 48 422 c 2,8,-1
 37 422 l 1,9,10
 33 437 33 437 33 456 c 128,-1,11
 33 475 33 475 37 492 c 1,12,13
 69 496 69 496 97 496 c 2,14,-1
 110 496 l 2,15,16
 146 496 146 496 166.5 473.5 c 128,-1,17
 187 451 187 451 187 411 c 2,0,-1
215 546 m 1,18,-1
 121 637 l 1,19,-1
 21 540 l 1,20,21
 -8 552 -8 552 -24 581 c 1,22,-1
 82 715 l 1,23,24
 98 720 98 720 119 720 c 128,-1,25
 140 720 140 720 165 715 c 1,26,-1
 263 589 l 1,27,28
 248 556 248 556 215 546 c 1,18,-1
EndSplineSet
EndChar

StartChar: idieresis
Encoding: 239 239 176
Width: 265
GlyphClass: 2
Flags: W
LayerCount: 2
Fore
SplineSet
187 411 m 2,0,-1
 187 0 l 1,1,2
 170 -4 170 -4 139 -4 c 128,-1,3
 108 -4 108 -4 91 0 c 1,4,-1
 91 371 l 2,5,6
 91 398 91 398 81.5 410 c 128,-1,7
 72 422 72 422 48 422 c 2,8,-1
 37 422 l 1,9,10
 33 437 33 437 33 456 c 128,-1,11
 33 475 33 475 37 492 c 1,12,13
 69 496 69 496 97 496 c 2,14,-1
 110 496 l 2,15,16
 146 496 146 496 166.5 473.5 c 128,-1,17
 187 451 187 451 187 411 c 2,0,-1
158 611 m 128,-1,19
 158 631 158 631 166 649 c 1,20,21
 183 660 183 660 212.5 660 c 128,-1,22
 242 660 242 660 259 649 c 1,23,24
 266 630 266 630 266 610 c 128,-1,25
 266 590 266 590 259 573 c 1,26,27
 240 561 240 561 211.5 561 c 128,-1,28
 183 561 183 561 166 573 c 1,29,18
 158 591 158 591 158 611 c 128,-1,19
-26 611 m 128,-1,31
 -26 630 -26 630 -19 649 c 1,32,33
 -2 660 -2 660 27.5 660 c 128,-1,34
 57 660 57 660 74 649 c 1,35,36
 82 631 82 631 82 610 c 128,-1,37
 82 589 82 589 74 573 c 1,38,39
 57 561 57 561 28.5 561 c 128,-1,40
 0 561 0 561 -19 573 c 1,41,30
 -26 592 -26 592 -26 611 c 128,-1,31
EndSplineSet
EndChar

StartChar: eth
Encoding: 240 240 177
Width: 517
GlyphClass: 2
Flags: W
LayerCount: 2
Fore
SplineSet
115 572 m 1,0,-1
 203 632 l 1,1,2
 162 664 162 664 120 685 c 1,3,4
 128 730 128 730 159 747 c 1,5,6
 219 721 219 721 273 680 c 1,7,-1
 360 741 l 1,8,9
 371 733 371 733 382.5 717.5 c 128,-1,10
 394 702 394 702 396 689 c 1,11,-1
 322 638 l 1,12,13
 472 486 472 486 472 244 c 0,14,15
 472 113 472 113 402 42 c 0,16,17
 347 -13 347 -13 258 -13 c 128,-1,18
 169 -13 169 -13 114 42 c 0,19,20
 44 113 44 113 44 238 c 128,-1,21
 44 363 44 363 115 434 c 1,22,23
 170 487 170 487 254 487 c 0,24,25
 290 487 290 487 331 468 c 1,26,27
 309 529 309 529 251 589 c 1,28,-1
 151 520 l 1,29,30
 139 528 139 528 127.5 543.5 c 128,-1,31
 116 559 116 559 115 572 c 1,0,-1
363.5 154.5 m 128,-1,33
 373 193 373 193 373 257.5 c 128,-1,34
 373 322 373 322 356 383 c 1,35,36
 312 414 312 414 259 414 c 0,37,38
 144 414 144 414 144 240 c 0,39,40
 144 162 144 162 170.5 111.5 c 128,-1,41
 197 61 197 61 258 61 c 0,42,43
 300 61 300 61 327 88.5 c 128,-1,32
 354 116 354 116 363.5 154.5 c 128,-1,33
EndSplineSet
EndChar

StartChar: ntilde
Encoding: 241 241 178
Width: 546
GlyphClass: 2
Flags: W
LayerCount: 2
Fore
SplineSet
470 340 m 2,0,-1
 470 103 l 2,1,2
 470 43 470 43 485 14 c 1,3,4
 460 -7 460 -7 425 -7 c 0,5,6
 373 -7 373 -7 373 55 c 2,7,-1
 373 315 l 2,8,9
 373 369 373 369 359.5 391.5 c 128,-1,10
 346 414 346 414 311.5 414 c 128,-1,11
 277 414 277 414 240.5 396 c 128,-1,12
 204 378 204 378 177 349 c 1,13,-1
 177 0 l 1,14,15
 160 -4 160 -4 129.5 -4 c 128,-1,16
 99 -4 99 -4 80 0 c 1,17,-1
 80 491 l 1,18,-1
 87 497 l 1,19,-1
 123 497 l 2,20,21
 174 497 174 497 177 434 c 1,22,23
 252 502 252 502 338 502 c 0,24,25
 405 502 405 502 437.5 457 c 128,-1,26
 470 412 470 412 470 340 c 2,0,-1
290 571 m 2,27,-1
 234 599 l 2,28,29
 214 608 214 608 198 608 c 128,-1,30
 182 608 182 608 162 583 c 1,31,-1
 151 568 l 1,32,33
 136 568 136 568 122 576.5 c 128,-1,34
 108 585 108 585 103 598 c 1,35,-1
 112 618 l 2,36,37
 126 651 126 651 152 670.5 c 128,-1,38
 178 690 178 690 206 690 c 128,-1,39
 234 690 234 690 266 674 c 2,40,-1
 322 647 l 1,41,42
 338 638 338 638 356 638 c 128,-1,43
 374 638 374 638 394 663 c 1,44,-1
 405 678 l 1,45,46
 420 677 420 677 434 668.5 c 128,-1,47
 448 660 448 660 453 647 c 1,48,-1
 444 628 l 2,49,50
 429 594 429 594 403 575 c 128,-1,51
 377 556 377 556 349.5 556 c 128,-1,52
 322 556 322 556 290 571 c 2,27,-1
EndSplineSet
EndChar

StartChar: oacute
Encoding: 243 243 180
Width: 520
GlyphClass: 2
Flags: W
LayerCount: 2
Fore
SplineSet
404 451 m 0,0,1
 474 380 474 380 474 246.5 c 128,-1,2
 474 113 474 113 404 42 c 0,3,4
 349 -13 349 -13 260 -13 c 128,-1,5
 171 -13 171 -13 116 42 c 0,6,7
 46 113 46 113 46 246.5 c 128,-1,8
 46 380 46 380 116 451 c 0,9,10
 171 506 171 506 260 506 c 128,-1,11
 349 506 349 506 404 451 c 0,0,1
146 246 m 0,12,13
 146 62 146 62 260 62 c 128,-1,14
 374 62 374 62 374 246 c 0,15,16
 374 298 374 298 364.5 337 c 128,-1,17
 355 376 355 376 328.5 404 c 128,-1,18
 302 432 302 432 260 432 c 128,-1,19
 218 432 218 432 191.5 404 c 128,-1,20
 165 376 165 376 155.5 337 c 128,-1,21
 146 298 146 298 146 246 c 0,12,13
187 577 m 1,22,-1
 329 735 l 1,23,24
 351 728 351 728 371 709.5 c 128,-1,25
 391 691 391 691 399 670 c 1,26,-1
 230 537 l 1,27,28
 198 548 198 548 187 577 c 1,22,-1
EndSplineSet
EndChar

StartChar: otilde
Encoding: 245 245 182
Width: 520
GlyphClass: 2
Flags: W
LayerCount: 2
Fore
SplineSet
404 451 m 0,0,1
 474 380 474 380 474 246.5 c 128,-1,2
 474 113 474 113 404 42 c 0,3,4
 349 -13 349 -13 260 -13 c 128,-1,5
 171 -13 171 -13 116 42 c 0,6,7
 46 113 46 113 46 246.5 c 128,-1,8
 46 380 46 380 116 451 c 0,9,10
 171 506 171 506 260 506 c 128,-1,11
 349 506 349 506 404 451 c 0,0,1
146 246 m 0,12,13
 146 62 146 62 260 62 c 128,-1,14
 374 62 374 62 374 246 c 0,15,16
 374 298 374 298 364.5 337 c 128,-1,17
 355 376 355 376 328.5 404 c 128,-1,18
 302 432 302 432 260 432 c 128,-1,19
 218 432 218 432 191.5 404 c 128,-1,20
 165 376 165 376 155.5 337 c 128,-1,21
 146 298 146 298 146 246 c 0,12,13
272 571 m 2,22,-1
 216 599 l 2,23,24
 196 608 196 608 180 608 c 128,-1,25
 164 608 164 608 144 583 c 1,26,-1
 133 568 l 1,27,28
 118 568 118 568 104 576.5 c 128,-1,29
 90 585 90 585 85 598 c 1,30,-1
 94 618 l 2,31,32
 108 651 108 651 134 670.5 c 128,-1,33
 160 690 160 690 188 690 c 128,-1,34
 216 690 216 690 248 674 c 2,35,-1
 304 647 l 1,36,37
 320 638 320 638 338 638 c 128,-1,38
 356 638 356 638 376 663 c 1,39,-1
 387 678 l 1,40,41
 402 677 402 677 416 668.5 c 128,-1,42
 430 660 430 660 435 647 c 1,43,-1
 426 628 l 2,44,45
 411 594 411 594 385 575 c 128,-1,46
 359 556 359 556 331.5 556 c 128,-1,47
 304 556 304 556 272 571 c 2,22,-1
EndSplineSet
EndChar

StartChar: divide
Encoding: 247 247 184
Width: 530
GlyphClass: 2
Flags: W
LayerCount: 2
Fore
SplineSet
214 429 m 1,0,1
 206 449 206 449 206 470.5 c 128,-1,2
 206 492 206 492 214 512 c 1,3,4
 233 523 233 523 266 523 c 128,-1,5
 299 523 299 523 315 512 c 1,6,7
 324 494 324 494 324 470.5 c 128,-1,8
 324 447 324 447 315 429 c 1,9,10
 301 418 301 418 266 418 c 128,-1,11
 231 418 231 418 214 429 c 1,0,1
206 114 m 128,-1,13
 206 135 206 135 214 155 c 1,14,15
 235 167 235 167 266.5 167 c 128,-1,16
 298 167 298 167 315 155 c 1,17,18
 324 137 324 137 324 114 c 128,-1,19
 324 91 324 91 315 73 c 1,20,21
 300 61 300 61 266.5 61 c 128,-1,22
 233 61 233 61 214 73 c 1,23,12
 206 93 206 93 206 114 c 128,-1,13
473 251 m 1,24,-1
 57 251 l 1,25,26
 53 268 53 268 53 292.5 c 128,-1,27
 53 317 53 317 57 336 c 1,28,-1
 473 336 l 1,29,30
 477 317 477 317 477 292.5 c 128,-1,31
 477 268 477 268 473 251 c 1,24,-1
EndSplineSet
EndChar

StartChar: oslash
Encoding: 248 248 185
Width: 521
GlyphClass: 2
Flags: W
LayerCount: 2
Fore
SplineSet
405 449 m 1,0,1
 475 379 475 379 475 245.5 c 128,-1,2
 475 112 475 112 404 42 c 0,3,4
 349 -13 349 -13 260 -13 c 0,5,6
 206 -13 206 -13 167 6 c 1,7,-1
 132 -55 l 1,8,9
 117 -53 117 -53 100 -44 c 128,-1,10
 83 -35 83 -35 75 -23 c 1,11,-1
 114 45 l 1,12,13
 46 114 46 114 46 247.5 c 128,-1,14
 46 381 46 381 117 451 c 0,15,16
 172 506 172 506 260 506 c 0,17,18
 310 506 310 506 351 488 c 1,19,-1
 386 549 l 1,20,21
 422 544 422 544 444 517 c 1,22,-1
 405 449 l 1,0,1
360 368 m 1,23,-1
 205 73 l 1,24,25
 228 59 228 59 261.5 59 c 128,-1,26
 295 59 295 59 319.5 75 c 128,-1,27
 344 91 344 91 357 118 c 0,28,29
 382 171 382 171 382 246 c 128,-1,30
 382 321 382 321 360 368 c 1,23,-1
167.5 381.5 m 128,-1,32
 139 328 139 328 139 250 c 128,-1,33
 139 172 139 172 159 127 c 1,34,-1
 314 421 l 1,35,36
 291 435 291 435 261 435 c 0,37,31
 196 435 196 435 167.5 381.5 c 128,-1,32
EndSplineSet
EndChar

StartChar: uacute
Encoding: 250 250 187
Width: 547
GlyphClass: 2
Flags: W
LayerCount: 2
Fore
SplineSet
76 153 m 2,0,-1
 76 390 l 2,1,2
 76 448 76 448 60 479 c 1,3,4
 83 499 83 499 116 499 c 128,-1,5
 149 499 149 499 160.5 484 c 128,-1,6
 172 469 172 469 172 437 c 2,7,-1
 172 178 l 2,8,9
 172 124 172 124 186 101 c 128,-1,10
 200 78 200 78 234.5 78 c 128,-1,11
 269 78 269 78 305 96 c 128,-1,12
 341 114 341 114 369 144 c 1,13,-1
 369 493 l 1,14,15
 395 497 395 497 417 497 c 128,-1,16
 439 497 439 497 465 493 c 1,17,-1
 465 139 l 2,18,19
 465 67 465 67 493 42 c 1,20,21
 484 9 484 9 456 -7 c 1,22,23
 395 6 395 6 377 66 c 1,24,25
 302 -9 302 -9 207 -9 c 0,26,27
 141 -9 141 -9 108.5 36 c 128,-1,28
 76 81 76 81 76 153 c 2,0,-1
195 577 m 1,29,-1
 337 735 l 1,30,31
 359 728 359 728 379 709.5 c 128,-1,32
 399 691 399 691 407 670 c 1,33,-1
 238 537 l 1,34,35
 206 548 206 548 195 577 c 1,29,-1
EndSplineSet
EndChar

StartChar: udieresis
Encoding: 252 252 189
Width: 547
GlyphClass: 2
Flags: W
LayerCount: 2
Fore
SplineSet
76 153 m 2,0,-1
 76 390 l 2,1,2
 76 448 76 448 60 479 c 1,3,4
 83 499 83 499 116 499 c 128,-1,5
 149 499 149 499 160.5 484 c 128,-1,6
 172 469 172 469 172 437 c 2,7,-1
 172 178 l 2,8,9
 172 124 172 124 186 101 c 128,-1,10
 200 78 200 78 234.5 78 c 128,-1,11
 269 78 269 78 305 96 c 128,-1,12
 341 114 341 114 369 144 c 1,13,-1
 369 493 l 1,14,15
 395 497 395 497 417 497 c 128,-1,16
 439 497 439 497 465 493 c 1,17,-1
 465 139 l 2,18,19
 465 67 465 67 493 42 c 1,20,21
 484 9 484 9 456 -7 c 1,22,23
 395 6 395 6 377 66 c 1,24,25
 302 -9 302 -9 207 -9 c 0,26,27
 141 -9 141 -9 108.5 36 c 128,-1,28
 76 81 76 81 76 153 c 2,0,-1
306 611 m 128,-1,30
 306 631 306 631 314 649 c 1,31,32
 331 660 331 660 360.5 660 c 128,-1,33
 390 660 390 660 407 649 c 1,34,35
 414 630 414 630 414 610 c 128,-1,36
 414 590 414 590 407 573 c 1,37,38
 388 561 388 561 359.5 561 c 128,-1,39
 331 561 331 561 314 573 c 1,40,29
 306 591 306 591 306 611 c 128,-1,30
122 611 m 128,-1,42
 122 630 122 630 129 649 c 1,43,44
 146 660 146 660 175.5 660 c 128,-1,45
 205 660 205 660 222 649 c 1,46,47
 230 631 230 631 230 610 c 128,-1,48
 230 589 230 589 222 573 c 1,49,50
 205 561 205 561 176.5 561 c 128,-1,51
 148 561 148 561 129 573 c 1,52,41
 122 592 122 592 122 611 c 128,-1,42
EndSplineSet
EndChar

StartChar: thorn
Encoding: 254 254 191
Width: 527
GlyphClass: 2
Flags: W
LayerCount: 2
Fore
SplineSet
437 433.5 m 128,-1,1
 482 366 482 366 482 246 c 128,-1,2
 482 126 482 126 425 58.5 c 128,-1,3
 368 -9 368 -9 293 -9 c 0,4,5
 234 -9 234 -9 174 26 c 1,6,-1
 174 -153 l 2,7,8
 174 -186 174 -186 163 -200.5 c 128,-1,9
 152 -215 152 -215 122 -215 c 2,10,-1
 87 -215 l 1,11,-1
 80 -209 l 1,12,-1
 80 729 l 1,13,-1
 87 735 l 1,14,-1
 122 735 l 2,15,16
 152 735 152 735 163 720.5 c 128,-1,17
 174 706 174 706 174 673 c 2,18,-1
 174 443 l 1,19,20
 230 501 230 501 311 501 c 128,-1,0
 392 501 392 501 437 433.5 c 128,-1,1
289 420 m 0,21,22
 220 420 220 420 174 353 c 1,23,-1
 174 108 l 1,24,25
 232 70 232 70 278 70 c 128,-1,26
 324 70 324 70 353.5 116 c 128,-1,27
 383 162 383 162 383 249 c 128,-1,28
 383 336 383 336 356.5 378 c 128,-1,29
 330 420 330 420 289 420 c 0,21,22
EndSplineSet
EndChar

StartChar: ydieresis
Encoding: 255 255 192
Width: 464
GlyphClass: 2
Flags: W
LayerCount: 2
Fore
SplineSet
452 485 m 1,0,-1
 318 16 l 2,1,2
 282 -109 282 -109 236 -163.5 c 128,-1,3
 190 -218 190 -218 98 -218 c 0,4,5
 49 -218 49 -218 6 -203 c 1,6,7
 6 -199 6 -199 6 -194 c 0,8,9
 6 -160 6 -160 27 -133 c 1,10,11
 59 -145 59 -145 103.5 -145 c 128,-1,12
 148 -145 148 -145 175 -113 c 128,-1,13
 202 -81 202 -81 222 -16 c 1,14,-1
 225 -5 l 1,15,16
 194 -3 194 -3 177 8 c 128,-1,17
 160 19 160 19 151 48 c 2,18,-1
 18 486 l 1,19,20
 49 500 49 500 76 500 c 0,21,22
 113 500 113 500 126 457 c 2,23,-1
 196 222 l 2,24,25
 202 203 202 203 235 73 c 0,26,27
 237 66 237 66 244 66 c 1,28,-1
 357 493 l 1,29,30
 373 497 373 497 400 497 c 128,-1,31
 427 497 427 497 448 490 c 1,32,-1
 452 485 l 1,0,-1
269 611 m 128,-1,34
 269 631 269 631 277 649 c 1,35,36
 294 660 294 660 323.5 660 c 128,-1,37
 353 660 353 660 370 649 c 1,38,39
 377 630 377 630 377 610 c 128,-1,40
 377 590 377 590 370 573 c 1,41,42
 351 561 351 561 322.5 561 c 128,-1,43
 294 561 294 561 277 573 c 1,44,33
 269 591 269 591 269 611 c 128,-1,34
85 611 m 128,-1,46
 85 630 85 630 92 649 c 1,47,48
 109 660 109 660 138.5 660 c 128,-1,49
 168 660 168 660 185 649 c 1,50,51
 193 631 193 631 193 610 c 128,-1,52
 193 589 193 589 185 573 c 1,53,54
 168 561 168 561 139.5 561 c 128,-1,55
 111 561 111 561 92 573 c 1,56,45
 85 592 85 592 85 611 c 128,-1,46
EndSplineSet
EndChar

StartChar: Aogonek
Encoding: 260 260 193
Width: 608
GlyphClass: 2
Flags: W
LayerCount: 2
Fore
SplineSet
231 168 m 1,0,-1
 170 169 l 1,1,-1
 116 -1 l 1,2,3
 100 -5 100 -5 74.5 -5 c 128,-1,4
 49 -5 49 -5 24 2 c 1,5,-1
 21 7 l 1,6,-1
 248 683 l 1,7,8
 268 687 268 687 306 687 c 128,-1,9
 344 687 344 687 361 683 c 1,10,-1
 587 6 l 1,11,12
 498 -50 498 -50 498 -105 c 0,13,14
 498 -127 498 -127 511.5 -139 c 128,-1,15
 525 -151 525 -151 552 -151 c 128,-1,16
 579 -151 579 -151 607 -134 c 1,17,18
 629 -154 629 -154 630 -183 c 1,19,20
 589 -217 589 -217 533.5 -217 c 128,-1,21
 478 -217 478 -217 448.5 -192 c 128,-1,22
 419 -167 419 -167 419 -124 c 0,23,24
 419 -55 419 -55 492 3 c 1,25,26
 478 14 478 14 469 46 c 1,27,-1
 429 169 l 1,28,-1
 368 168 l 1,29,-1
 231 168 l 1,0,-1
196 250 m 1,30,-1
 249 251 l 1,31,-1
 352 251 l 2,32,33
 354 251 354 251 374 250.5 c 128,-1,34
 394 250 394 250 403 250 c 1,35,-1
 354 405 l 1,36,37
 324 496 324 496 302 583 c 1,38,-1
 296 583 l 1,39,40
 280 511 280 511 258 444 c 2,41,-1
 196 250 l 1,30,-1
EndSplineSet
EndChar

StartChar: aogonek
Encoding: 261 261 194
Width: 536
GlyphClass: 2
Flags: W
LayerCount: 2
Fore
SplineSet
465 -134 m 1,0,1
 487 -154 487 -154 487 -183 c 1,2,3
 446 -217 446 -217 391 -217 c 128,-1,4
 336 -217 336 -217 306.5 -192 c 128,-1,5
 277 -167 277 -167 277 -124 c 0,6,7
 277 -46 277 -46 371 20 c 1,8,9
 354 35 354 35 345 58 c 1,10,11
 274 -13 274 -13 198 -13 c 128,-1,12
 122 -13 122 -13 83.5 31 c 128,-1,13
 45 75 45 75 45 134 c 0,14,15
 45 216 45 216 97.5 257.5 c 128,-1,16
 150 299 150 299 236 299 c 0,17,18
 287 299 287 299 335 292 c 1,19,-1
 335 333 l 2,20,21
 335 424 335 424 251 424 c 0,22,23
 186 424 186 424 92 385 c 1,24,25
 65 412 65 412 63 457 c 1,26,27
 168 503 168 503 268 503 c 0,28,29
 345 503 345 503 387.5 461 c 128,-1,30
 430 419 430 419 430 336 c 2,31,-1
 430 131 l 2,32,33
 430 73 430 73 462 45 c 1,34,35
 452 19 452 19 419 -10 c 1,36,37
 356 -62 356 -62 356 -105 c 0,38,39
 356 -127 356 -127 369.5 -139 c 128,-1,40
 383 -151 383 -151 409 -151 c 128,-1,41
 435 -151 435 -151 465 -134 c 1,0,1
212 65 m 0,42,43
 279 65 279 65 335 130 c 1,44,-1
 335 226 l 1,45,46
 296 231 296 231 245 231 c 128,-1,47
 194 231 194 231 168 207 c 128,-1,48
 142 183 142 183 142 145 c 128,-1,49
 142 107 142 107 160.5 86 c 128,-1,50
 179 65 179 65 212 65 c 0,42,43
EndSplineSet
EndChar

StartChar: Cacute
Encoding: 262 262 195
Width: 603
GlyphClass: 2
Flags: W
LayerCount: 2
Fore
SplineSet
464 451 m 1,0,1
 464 454 464 454 464 474.5 c 128,-1,2
 464 495 464 495 452.5 528.5 c 128,-1,3
 441 562 441 562 407 588 c 128,-1,4
 373 614 373 614 321 614 c 0,5,6
 240 614 240 614 198 544 c 128,-1,7
 156 474 156 474 156 343.5 c 128,-1,8
 156 213 156 213 201 143.5 c 128,-1,9
 246 74 246 74 329 74 c 128,-1,10
 412 74 412 74 505 151 c 1,11,12
 545 125 545 125 555 86 c 1,13,14
 512 42 512 42 447 14.5 c 128,-1,15
 382 -13 382 -13 311.5 -13 c 128,-1,16
 241 -13 241 -13 189.5 16.5 c 128,-1,17
 138 46 138 46 108 96 c 1,18,19
 51 195 51 195 51 338 c 0,20,21
 51 515 51 515 128 605.5 c 128,-1,22
 205 696 205 696 317 696 c 128,-1,23
 429 696 429 696 495.5 638 c 128,-1,24
 562 580 562 580 562 502 c 0,25,26
 562 445 562 445 505 445 c 0,27,28
 487 445 487 445 464 451 c 1,0,1
223 780 m 1,29,-1
 423 899 l 1,30,31
 438 888 438 888 451 865 c 128,-1,32
 464 842 464 842 467 818 c 1,33,-1
 252 729 l 1,34,35
 227 746 227 746 223 780 c 1,29,-1
EndSplineSet
EndChar

StartChar: Ccaron
Encoding: 268 268 197
Width: 603
GlyphClass: 2
Flags: W
LayerCount: 2
Fore
SplineSet
464 451 m 1,0,1
 464 454 464 454 464 474.5 c 128,-1,2
 464 495 464 495 452.5 528.5 c 128,-1,3
 441 562 441 562 407 588 c 128,-1,4
 373 614 373 614 321 614 c 0,5,6
 240 614 240 614 198 544 c 128,-1,7
 156 474 156 474 156 343.5 c 128,-1,8
 156 213 156 213 201 143.5 c 128,-1,9
 246 74 246 74 329 74 c 128,-1,10
 412 74 412 74 505 151 c 1,11,12
 545 125 545 125 555 86 c 1,13,14
 512 42 512 42 447 14.5 c 128,-1,15
 382 -13 382 -13 311.5 -13 c 128,-1,16
 241 -13 241 -13 189.5 16.5 c 128,-1,17
 138 46 138 46 108 96 c 1,18,19
 51 195 51 195 51 338 c 0,20,21
 51 515 51 515 128 605.5 c 128,-1,22
 205 696 205 696 317 696 c 128,-1,23
 429 696 429 696 495.5 638 c 128,-1,24
 562 580 562 580 562 502 c 0,25,26
 562 445 562 445 505 445 c 0,27,28
 487 445 487 445 464 451 c 1,0,1
208 890 m 1,29,-1
 319 815 l 1,30,-1
 434 897 l 1,31,32
 447 892 447 892 460 879.5 c 128,-1,33
 473 867 473 867 477 854 c 1,34,-1
 363 742 l 1,35,36
 339 738 339 738 317.5 738 c 128,-1,37
 296 738 296 738 276 742 c 1,38,-1
 164 847 l 1,39,40
 174 879 174 879 208 890 c 1,29,-1
EndSplineSet
EndChar

StartChar: ccaron
Encoding: 269 269 198
Width: 471
GlyphClass: 2
Flags: W
LayerCount: 2
Fore
SplineSet
343 306 m 1,0,1
 343 311 343 311 343 316 c 0,2,3
 343 431 343 431 251 431 c 0,4,5
 201 431 201 431 173.5 383 c 128,-1,6
 146 335 146 335 146 243 c 0,7,8
 146 67 146 67 262 67 c 0,9,10
 315 67 315 67 385 119 c 1,11,12
 399 111 399 111 411 94 c 128,-1,13
 423 77 423 77 427 61 c 1,14,15
 353 -13 353 -13 250 -13 c 128,-1,16
 147 -13 147 -13 96.5 60 c 128,-1,17
 46 133 46 133 46 253 c 128,-1,18
 46 373 46 373 106 439.5 c 128,-1,19
 166 506 166 506 252 506 c 128,-1,20
 338 506 338 506 385.5 459.5 c 128,-1,21
 433 413 433 413 433 357.5 c 128,-1,22
 433 302 433 302 383 302 c 0,23,24
 360 302 360 302 343 306 c 1,0,1
157 724 m 1,25,-1
 251 632 l 1,26,-1
 352 730 l 1,27,28
 381 718 381 718 397 689 c 1,29,-1
 290 555 l 1,30,31
 274 549 274 549 253 549 c 128,-1,32
 232 549 232 549 208 554 c 1,33,-1
 110 680 l 1,34,35
 126 714 126 714 157 724 c 1,25,-1
EndSplineSet
EndChar

StartChar: Dcaron
Encoding: 270 270 199
Width: 646
GlyphClass: 2
Flags: W
LayerCount: 2
Fore
SplineSet
571 513 m 128,-1,1
 593 441 593 441 593 340.5 c 128,-1,2
 593 240 593 240 571.5 168.5 c 128,-1,3
 550 97 550 97 488 46 c 0,4,5
 458 21 458 21 408.5 8 c 128,-1,6
 359 -5 359 -5 316 -5 c 128,-1,7
 273 -5 273 -5 99 -1 c 1,8,-1
 92 6 l 1,9,-1
 92 677 l 1,10,-1
 99 684 l 1,11,12
 185 687 185 687 315 687 c 0,13,14
 359 687 359 687 408.5 674 c 128,-1,15
 458 661 458 661 488 636 c 0,16,0
 549 585 549 585 571 513 c 128,-1,1
192 77 m 1,17,-1
 314 76 l 2,18,19
 358 76 358 76 390.5 92.5 c 128,-1,20
 423 109 423 109 441.5 134 c 128,-1,21
 460 159 460 159 471 196 c 128,-1,22
 482 233 482 233 485.5 266.5 c 128,-1,23
 489 300 489 300 489 341 c 128,-1,24
 489 382 489 382 485.5 415.5 c 128,-1,25
 482 449 482 449 471 486 c 128,-1,26
 460 523 460 523 441.5 548 c 128,-1,27
 423 573 423 573 390.5 589.5 c 128,-1,28
 358 606 358 606 314 606 c 2,29,-1
 192 607 l 1,30,-1
 192 77 l 1,17,-1
194 889 m 1,31,-1
 305 814 l 1,32,-1
 420 896 l 1,33,34
 433 891 433 891 446 878.5 c 128,-1,35
 459 866 459 866 463 853 c 1,36,-1
 349 741 l 1,37,38
 325 737 325 737 303.5 737 c 128,-1,39
 282 737 282 737 262 741 c 1,40,-1
 150 846 l 1,41,42
 160 878 160 878 194 889 c 1,31,-1
EndSplineSet
EndChar

StartChar: dcaron
Encoding: 271 271 200
Width: 588
GlyphClass: 2
Flags: W
LayerCount: 2
Fore
SplineSet
90 56 m 128,-1,1
 46 125 46 125 46 245.5 c 128,-1,2
 46 366 46 366 102.5 433.5 c 128,-1,3
 159 501 159 501 236 501 c 0,4,5
 292 501 292 501 352 467 c 1,6,-1
 352 729 l 1,7,-1
 358 735 l 1,8,-1
 395 735 l 2,9,10
 425 735 425 735 436 720.5 c 128,-1,11
 447 706 447 706 447 673 c 2,12,-1
 447 140 l 2,13,14
 447 68 447 68 475 43 c 1,15,16
 465 8 465 8 437 -7 c 1,17,18
 383 4 383 4 363 56 c 1,19,20
 303 -13 303 -13 218.5 -13 c 128,-1,0
 134 -13 134 -13 90 56 c 128,-1,1
238 68 m 0,21,22
 304 68 304 68 352 134 c 1,23,-1
 352 385 l 1,24,25
 296 423 296 423 249.5 423 c 128,-1,26
 203 423 203 423 173.5 376.5 c 128,-1,27
 144 330 144 330 144 242 c 128,-1,28
 144 154 144 154 170.5 111 c 128,-1,29
 197 68 197 68 238 68 c 0,21,22
509 565 m 1,30,-1
 521 776 l 1,31,32
 533 779 533 779 545 779 c 0,33,34
 588 779 588 779 613 763 c 1,35,-1
 566 561 l 1,36,37
 553 556 553 556 538.5 556 c 128,-1,38
 524 556 524 556 509 565 c 1,30,-1
EndSplineSet
EndChar

StartChar: Eogonek
Encoding: 280 280 201
Width: 570
GlyphClass: 2
Flags: W
LayerCount: 2
Fore
SplineSet
190 386 m 1,0,-1
 252 387 l 1,1,-1
 444 387 l 1,2,3
 449 364 449 364 449 345 c 128,-1,4
 449 326 449 326 444 303 c 1,5,-1
 252 303 l 2,6,7
 213 303 213 303 190 304 c 1,8,-1
 190 130 l 2,9,10
 190 122 190 122 189.5 106.5 c 128,-1,11
 189 91 189 91 189 82 c 1,12,13
 217 85 217 85 254 85 c 2,14,-1
 516 85 l 1,15,16
 516 59 516 59 514 46 c 0,17,18
 508 14 508 14 481 4 c 0,19,20
 480 4 480 4 480 3.5 c 128,-1,21
 480 3 480 3 479 3 c 0,22,23
 436 -15 436 -15 410.5 -45 c 128,-1,24
 385 -75 385 -75 385 -101 c 128,-1,25
 385 -127 385 -127 398.5 -139 c 128,-1,26
 412 -151 412 -151 438 -151 c 128,-1,27
 464 -151 464 -151 494 -134 c 1,28,29
 516 -154 516 -154 516 -183 c 1,30,31
 475 -217 475 -217 420 -217 c 128,-1,32
 365 -217 365 -217 335.5 -192 c 128,-1,33
 306 -167 306 -167 306 -124 c 0,34,35
 306 -54 306 -54 378 -1 c 1,36,-1
 149 -1 l 2,37,38
 123 -1 123 -1 107.5 15.5 c 128,-1,39
 92 32 92 32 92 61 c 2,40,-1
 92 677 l 1,41,-1
 98 683 l 1,42,-1
 497 683 l 1,43,44
 500 668 500 668 500 643.5 c 128,-1,45
 500 619 500 619 493 598 c 1,46,-1
 252 598 l 2,47,48
 212 598 212 598 189 599 c 1,49,-1
 190 534 l 1,50,-1
 190 386 l 1,0,-1
EndSplineSet
EndChar

StartChar: eogonek
Encoding: 281 281 202
Width: 501
GlyphClass: 2
Flags: W
LayerCount: 2
Fore
SplineSet
274 -12 m 1,0,-1
 250 -13 l 1,1,2
 141 -13 141 -13 93.5 59 c 128,-1,3
 46 131 46 131 46 246.5 c 128,-1,4
 46 362 46 362 99.5 434 c 128,-1,5
 153 506 153 506 249.5 506 c 128,-1,6
 346 506 346 506 398 445.5 c 128,-1,7
 450 385 450 385 450 292 c 0,8,9
 450 254 450 254 443 216 c 1,10,-1
 146 216 l 1,11,12
 149 145 149 145 176 106 c 128,-1,13
 203 67 203 67 266 67 c 128,-1,14
 329 67 329 67 405 106 c 1,15,16
 430 82 430 82 436 43 c 1,17,18
 404 20 404 20 365 7 c 1,19,20
 295 -49 295 -49 295 -105 c 0,21,22
 295 -127 295 -127 308.5 -139 c 128,-1,23
 322 -151 322 -151 349 -151 c 128,-1,24
 376 -151 376 -151 404 -134 c 1,25,26
 426 -154 426 -154 427 -183 c 1,27,28
 386 -217 386 -217 330.5 -217 c 128,-1,29
 275 -217 275 -217 245.5 -192 c 128,-1,30
 216 -167 216 -167 216 -123 c 0,31,32
 216 -65 216 -65 274 -12 c 1,0,-1
330.5 396.5 m 128,-1,34
 305 434 305 434 254 434 c 128,-1,35
 203 434 203 434 176 395.5 c 128,-1,36
 149 357 149 357 146 287 c 1,37,-1
 356 287 l 1,38,-1
 356 300 l 2,39,33
 356 359 356 359 330.5 396.5 c 128,-1,34
EndSplineSet
EndChar

StartChar: Ecaron
Encoding: 282 282 203
Width: 565
GlyphClass: 2
Flags: W
LayerCount: 2
Fore
SplineSet
190 386 m 1,0,-1
 252 387 l 1,1,-1
 444 387 l 1,2,3
 449 364 449 364 449 345 c 128,-1,4
 449 326 449 326 444 303 c 1,5,-1
 252 303 l 2,6,7
 213 303 213 303 190 304 c 1,8,-1
 190 130 l 2,9,10
 190 122 190 122 189.5 106.5 c 128,-1,11
 189 91 189 91 189 82 c 1,12,13
 217 85 217 85 254 85 c 2,14,-1
 516 85 l 1,15,16
 516 59 516 59 514 46 c 0,17,18
 505 -1 505 -1 450 -1 c 2,19,-1
 149 -1 l 2,20,21
 123 -1 123 -1 107.5 15.5 c 128,-1,22
 92 32 92 32 92 61 c 2,23,-1
 92 677 l 1,24,-1
 98 683 l 1,25,-1
 497 683 l 1,26,27
 500 668 500 668 500 643.5 c 128,-1,28
 500 619 500 619 493 598 c 1,29,-1
 252 598 l 2,30,31
 212 598 212 598 189 599 c 1,32,-1
 190 534 l 1,33,-1
 190 386 l 1,0,-1
186 889 m 1,34,-1
 297 814 l 1,35,-1
 412 896 l 1,36,37
 425 891 425 891 438 878.5 c 128,-1,38
 451 866 451 866 455 853 c 1,39,-1
 341 741 l 1,40,41
 317 737 317 737 295.5 737 c 128,-1,42
 274 737 274 737 254 741 c 1,43,-1
 142 846 l 1,44,45
 152 878 152 878 186 889 c 1,34,-1
EndSplineSet
EndChar

StartChar: Hbar
Encoding: 294 294 205
Width: 683
GlyphClass: 2
Flags: W
LayerCount: 2
Fore
SplineSet
196 310 m 1,0,-1
 197 236 l 1,1,-1
 197 0 l 1,2,3
 177 -4 177 -4 146.5 -4 c 128,-1,4
 116 -4 116 -4 97 0 c 1,5,-1
 97 495 l 1,6,-1
 25 495 l 1,7,8
 21 511 21 511 21 533 c 128,-1,9
 21 555 21 555 25 574 c 1,10,-1
 97 574 l 1,11,-1
 97 683 l 1,12,13
 116 687 116 687 146.5 687 c 128,-1,14
 177 687 177 687 197 683 c 1,15,-1
 197 574 l 1,16,-1
 485 574 l 1,17,-1
 485 683 l 1,18,19
 505 687 505 687 535 687 c 128,-1,20
 565 687 565 687 585 683 c 1,21,-1
 585 574 l 1,22,-1
 657 574 l 1,23,24
 662 551 662 551 662 533 c 128,-1,25
 662 515 662 515 657 495 c 1,26,-1
 585 495 l 1,27,-1
 585 0 l 1,28,29
 565 -4 565 -4 535 -4 c 128,-1,30
 505 -4 505 -4 485 0 c 1,31,-1
 485 236 l 1,32,-1
 486 310 l 1,33,-1
 429 309 l 1,34,-1
 254 309 l 1,35,-1
 196 310 l 1,0,-1
196 393 m 1,36,-1
 254 394 l 1,37,-1
 429 394 l 1,38,-1
 486 393 l 1,39,-1
 485 468 l 1,40,-1
 485 495 l 1,41,-1
 197 495 l 1,42,-1
 197 468 l 1,43,-1
 196 393 l 1,36,-1
EndSplineSet
EndChar

StartChar: hbar
Encoding: 295 295 206
Width: 547
GlyphClass: 2
Flags: W
LayerCount: 2
Fore
SplineSet
178 673 m 2,0,-1
 178 635 l 1,1,-1
 339 637 l 1,2,3
 343 621 343 621 343 603 c 128,-1,4
 343 585 343 585 339 569 c 1,5,-1
 178 571 l 1,6,-1
 178 434 l 1,7,8
 252 501 252 501 339 501 c 0,9,10
 406 501 406 501 438.5 456 c 128,-1,11
 471 411 471 411 471 339 c 2,12,-1
 471 103 l 2,13,14
 471 45 471 45 487 14 c 1,15,16
 461 -7 461 -7 426 -7 c 0,17,18
 375 -7 375 -7 375 55 c 2,19,-1
 375 314 l 2,20,21
 375 368 375 368 361 391 c 128,-1,22
 347 414 347 414 312.5 414 c 128,-1,23
 278 414 278 414 241.5 396 c 128,-1,24
 205 378 205 378 178 349 c 1,25,-1
 178 0 l 1,26,27
 161 -4 161 -4 131.5 -4 c 128,-1,28
 102 -4 102 -4 83 0 c 1,29,-1
 83 570 l 1,30,-1
 13 569 l 1,31,32
 9 585 9 585 9 603 c 128,-1,33
 9 621 9 621 13 637 c 1,34,-1
 83 636 l 1,35,-1
 83 729 l 1,36,-1
 90 735 l 1,37,-1
 126 735 l 2,38,39
 156 735 156 735 167 720.5 c 128,-1,40
 178 706 178 706 178 673 c 2,0,-1
EndSplineSet
EndChar

StartChar: Itilde
Encoding: 296 296 207
Width: 292
GlyphClass: 2
Flags: W
LayerCount: 2
Fore
SplineSet
96 0 m 1,0,-1
 96 683 l 1,1,2
 115 687 115 687 145.5 687 c 128,-1,3
 176 687 176 687 196 683 c 1,4,-1
 196 0 l 1,5,6
 176 -4 176 -4 145.5 -4 c 128,-1,7
 115 -4 115 -4 96 0 c 1,0,-1
158 756 m 2,8,-1
 101 783 l 2,9,10
 81 792 81 792 63.5 792 c 128,-1,11
 46 792 46 792 28 767 c 1,12,-1
 16 753 l 1,13,14
 1 753 1 753 -13 761.5 c 128,-1,15
 -27 770 -27 770 -32 782 c 1,16,-1
 -24 802 l 2,17,18
 -10 835 -10 835 17 854 c 128,-1,19
 44 873 44 873 74 873 c 128,-1,20
 104 873 104 873 134 858 c 2,21,-1
 191 831 l 1,22,23
 207 822 207 822 226 822 c 128,-1,24
 245 822 245 822 264 847 c 1,25,-1
 276 861 l 1,26,27
 290 861 290 861 304 852.5 c 128,-1,28
 318 844 318 844 324 831 c 1,29,-1
 316 812 l 1,30,31
 300 778 300 778 273.5 759.5 c 128,-1,32
 247 741 247 741 219.5 741 c 128,-1,33
 192 741 192 741 158 756 c 2,8,-1
EndSplineSet
EndChar

StartChar: itilde
Encoding: 297 297 208
Width: 265
GlyphClass: 2
Flags: W
LayerCount: 2
Fore
SplineSet
187 411 m 2,0,-1
 187 0 l 1,1,2
 170 -4 170 -4 139 -4 c 128,-1,3
 108 -4 108 -4 91 0 c 1,4,-1
 91 371 l 2,5,6
 91 398 91 398 81.5 410 c 128,-1,7
 72 422 72 422 48 422 c 2,8,-1
 37 422 l 1,9,10
 33 437 33 437 33 456 c 128,-1,11
 33 475 33 475 37 492 c 1,12,13
 69 496 69 496 97 496 c 2,14,-1
 110 496 l 2,15,16
 146 496 146 496 166.5 473.5 c 128,-1,17
 187 451 187 451 187 411 c 2,0,-1
132 571 m 2,18,-1
 76 599 l 2,19,20
 56 608 56 608 40 608 c 128,-1,21
 24 608 24 608 4 583 c 1,22,-1
 -7 568 l 1,23,24
 -22 568 -22 568 -36 576.5 c 128,-1,25
 -50 585 -50 585 -55 598 c 1,26,-1
 -46 618 l 2,27,28
 -32 651 -32 651 -6 670.5 c 128,-1,29
 20 690 20 690 48 690 c 128,-1,30
 76 690 76 690 108 674 c 2,31,-1
 164 647 l 1,32,33
 180 638 180 638 198 638 c 128,-1,34
 216 638 216 638 236 663 c 1,35,-1
 247 678 l 1,36,37
 262 677 262 677 276 668.5 c 128,-1,38
 290 660 290 660 295 647 c 1,39,-1
 286 628 l 2,40,41
 271 594 271 594 245 575 c 128,-1,42
 219 556 219 556 191.5 556 c 128,-1,43
 164 556 164 556 132 571 c 2,18,-1
EndSplineSet
EndChar

StartChar: dotlessi
Encoding: 305 305 209
Width: 268
GlyphClass: 2
Flags: W
LayerCount: 2
Fore
SplineSet
189 411 m 2,0,-1
 189 0 l 1,1,2
 172 -4 172 -4 141 -4 c 128,-1,3
 110 -4 110 -4 93 0 c 1,4,-1
 93 371 l 2,5,6
 93 398 93 398 83.5 410 c 128,-1,7
 74 422 74 422 50 422 c 2,8,-1
 39 422 l 1,9,10
 35 437 35 437 35 456 c 128,-1,11
 35 475 35 475 39 492 c 1,12,13
 71 496 71 496 99 496 c 2,14,-1
 112 496 l 2,15,16
 148 496 148 496 168.5 473.5 c 128,-1,17
 189 451 189 451 189 411 c 2,0,-1
EndSplineSet
EndChar

StartChar: IJ
Encoding: 306 306 210
Width: 735
GlyphClass: 2
Flags: W
LayerCount: 2
Fore
SplineSet
96 0 m 1,0,-1
 96 683 l 1,1,2
 115 687 115 687 145.5 687 c 128,-1,3
 176 687 176 687 196 683 c 1,4,-1
 196 0 l 1,5,6
 176 -4 176 -4 145.5 -4 c 128,-1,7
 115 -4 115 -4 96 0 c 1,0,-1
337 107 m 1,8,9
 392 74 392 74 449.5 74 c 128,-1,10
 507 74 507 74 531 110.5 c 128,-1,11
 555 147 555 147 555 232 c 2,12,-1
 555 683 l 1,13,14
 575 687 575 687 605.5 687 c 128,-1,15
 636 687 636 687 655 683 c 1,16,-1
 655 247 l 2,17,18
 655 187 655 187 647.5 144.5 c 128,-1,19
 640 102 640 102 619 65 c 0,20,21
 576 -10 576 -10 454 -10 c 0,22,23
 366 -10 366 -10 299 32 c 1,24,25
 307 75 307 75 337 107 c 1,8,9
EndSplineSet
EndChar

StartChar: ij
Encoding: 307 307 211
Width: 540
GlyphClass: 2
Flags: W
LayerCount: 2
Fore
SplineSet
189 411 m 2,0,-1
 189 0 l 1,1,2
 172 -4 172 -4 141 -4 c 128,-1,3
 110 -4 110 -4 93 0 c 1,4,-1
 93 371 l 2,5,6
 93 398 93 398 83.5 410 c 128,-1,7
 74 422 74 422 50 422 c 2,8,-1
 39 422 l 1,9,10
 35 437 35 437 35 456 c 128,-1,11
 35 475 35 475 39 492 c 1,12,13
 71 496 71 496 99 496 c 2,14,-1
 112 496 l 2,15,16
 148 496 148 496 168.5 473.5 c 128,-1,17
 189 451 189 451 189 411 c 2,0,-1
62 630 m 128,-1,19
 62 655 62 655 70 673 c 1,20,21
 91 685 91 685 125 685 c 128,-1,22
 159 685 159 685 176 673 c 1,23,24
 184 655 184 655 184 630 c 128,-1,25
 184 605 184 605 176 587 c 1,26,27
 159 575 159 575 124 575 c 128,-1,28
 89 575 89 575 70 587 c 1,29,18
 62 605 62 605 62 630 c 128,-1,19
461 411 m 2,30,-1
 461 17 l 2,31,32
 461 -69 461 -69 452 -105.5 c 128,-1,33
 443 -142 443 -142 428 -160 c 0,34,35
 395 -200 395 -200 322 -219 c 1,36,37
 299 -198 299 -198 293 -159 c 1,38,39
 335 -138 335 -138 350 -112 c 128,-1,40
 365 -86 365 -86 365 -36 c 2,41,-1
 365 371 l 2,42,43
 365 399 365 399 355.5 410.5 c 128,-1,44
 346 422 346 422 322 422 c 2,45,-1
 302 422 l 1,46,47
 298 444 298 444 298 455 c 128,-1,48
 298 466 298 466 302 492 c 1,49,50
 338 496 338 496 373 496 c 2,51,-1
 385 496 l 2,52,53
 420 496 420 496 440.5 473.5 c 128,-1,54
 461 451 461 451 461 411 c 2,30,-1
333 630 m 128,-1,56
 333 655 333 655 341 673 c 1,57,58
 362 685 362 685 396 685 c 128,-1,59
 430 685 430 685 447 673 c 1,60,61
 455 655 455 655 455 630 c 128,-1,62
 455 605 455 605 447 587 c 1,63,64
 430 575 430 575 395 575 c 128,-1,65
 360 575 360 575 341 587 c 1,66,55
 333 605 333 605 333 630 c 128,-1,56
EndSplineSet
EndChar

StartChar: Jcircumflex
Encoding: 308 308 212
Width: 446
GlyphClass: 2
Flags: W
LayerCount: 2
Fore
SplineSet
48 107 m 1,0,1
 103 74 103 74 160.5 74 c 128,-1,2
 218 74 218 74 242 110.5 c 128,-1,3
 266 147 266 147 266 232 c 2,4,-1
 266 683 l 1,5,6
 286 687 286 687 316.5 687 c 128,-1,7
 347 687 347 687 366 683 c 1,8,-1
 366 247 l 2,9,10
 366 187 366 187 358.5 144.5 c 128,-1,11
 351 102 351 102 330 65 c 0,12,13
 287 -10 287 -10 165 -10 c 0,14,15
 77 -10 77 -10 10 32 c 1,16,17
 18 75 18 75 48 107 c 1,0,1
428 737 m 1,18,-1
 316 812 l 1,19,-1
 202 730 l 1,20,21
 189 735 189 735 176 747.5 c 128,-1,22
 163 760 163 760 159 774 c 1,23,-1
 273 885 l 1,24,25
 294 890 294 890 316 890 c 128,-1,26
 338 890 338 890 360 885 c 1,27,-1
 471 780 l 1,28,29
 466 765 466 765 453.5 753 c 128,-1,30
 441 741 441 741 428 737 c 1,18,-1
EndSplineSet
EndChar

StartChar: jcircumflex
Encoding: 309 309 213
Width: 271
GlyphClass: 2
Flags: W
LayerCount: 2
Fore
SplineSet
193 411 m 2,0,-1
 193 17 l 2,1,2
 193 -69 193 -69 184 -105.5 c 128,-1,3
 175 -142 175 -142 160 -160 c 0,4,5
 127 -200 127 -200 54 -219 c 1,6,7
 31 -198 31 -198 25 -159 c 1,8,9
 67 -138 67 -138 82 -112 c 128,-1,10
 97 -86 97 -86 97 -36 c 2,11,-1
 97 371 l 2,12,13
 97 399 97 399 87.5 410.5 c 128,-1,14
 78 422 78 422 54 422 c 2,15,-1
 34 422 l 1,16,17
 30 444 30 444 30 455 c 128,-1,18
 30 466 30 466 34 492 c 1,19,20
 70 496 70 496 105 496 c 2,21,-1
 117 496 l 2,22,23
 152 496 152 496 172.5 473.5 c 128,-1,24
 193 451 193 451 193 411 c 2,0,-1
220 546 m 1,25,-1
 126 637 l 1,26,-1
 26 540 l 1,27,28
 -3 552 -3 552 -19 581 c 1,29,-1
 87 715 l 1,30,31
 103 720 103 720 123.5 720 c 128,-1,32
 144 720 144 720 170 715 c 1,33,-1
 268 589 l 1,34,35
 253 556 253 556 220 546 c 1,25,-1
EndSplineSet
EndChar

StartChar: Kcommaaccent
Encoding: 310 310 214
Width: 594
GlyphClass: 2
Flags: W
LayerCount: 2
Fore
SplineSet
576 26 m 1,0,1
 555 -6 555 -6 508 -6 c 0,2,3
 480 -6 480 -6 466 8 c 128,-1,4
 452 22 452 22 441 56 c 1,5,-1
 385 205 l 2,6,7
 363 263 363 263 336 286.5 c 128,-1,8
 309 310 309 310 263 310 c 0,9,10
 242 310 242 310 192 307 c 1,11,-1
 192 0 l 1,12,13
 172 -4 172 -4 142 -4 c 128,-1,14
 112 -4 112 -4 92 0 c 1,15,-1
 92 683 l 1,16,17
 112 687 112 687 142 687 c 128,-1,18
 172 687 172 687 192 683 c 1,19,-1
 192 394 l 1,20,-1
 252 395 l 2,21,22
 274 395 274 395 289 423 c 1,23,-1
 422 644 l 1,24,25
 434 667 434 667 446.5 676.5 c 128,-1,26
 459 686 459 686 484.5 686 c 128,-1,27
 510 686 510 686 540 683 c 1,28,-1
 546 674 l 1,29,-1
 391 414 l 2,30,31
 373 384 373 384 353 367 c 1,32,33
 401 359 401 359 427.5 329.5 c 128,-1,34
 454 300 454 300 476 243 c 2,35,-1
 532 96 l 2,36,37
 551 47 551 47 576 26 c 1,0,1
267 -70 m 1,38,39
 293 -53 293 -53 321.5 -53 c 128,-1,40
 350 -53 350 -53 364 -58 c 1,41,42
 373 -78 373 -78 373 -118 c 128,-1,43
 373 -158 373 -158 341 -197.5 c 128,-1,44
 309 -237 309 -237 253 -260 c 1,45,46
 228 -251 228 -251 221 -218 c 1,47,48
 280 -180 280 -180 280 -123 c 0,49,50
 280 -94 280 -94 267 -70 c 1,38,39
EndSplineSet
EndChar

StartChar: kcommaaccent
Encoding: 311 311 215
Width: 499
GlyphClass: 2
Flags: W
LayerCount: 2
Fore
SplineSet
398 185 m 1,0,-1
 433 101 l 2,1,2
 457 41 457 41 481 23 c 1,3,4
 457 -7 457 -7 416 -7 c 0,5,6
 391 -7 391 -7 378.5 6 c 128,-1,7
 366 19 366 19 353 50 c 2,8,-1
 311 149 l 2,9,10
 294 189 294 189 276.5 203 c 128,-1,11
 259 217 259 217 229.5 217 c 128,-1,12
 200 217 200 217 175 214 c 1,13,-1
 175 0 l 1,14,15
 158 -4 158 -4 128.5 -4 c 128,-1,16
 99 -4 99 -4 80 0 c 1,17,-1
 80 729 l 1,18,-1
 87 735 l 1,19,-1
 123 735 l 2,20,21
 153 735 153 735 164 720.5 c 128,-1,22
 175 706 175 706 175 673 c 2,23,-1
 175 295 l 1,24,-1
 211 297 l 2,25,26
 224 297 224 297 235 312 c 1,27,-1
 327 454 l 1,28,29
 340 476 340 476 354 486 c 128,-1,30
 368 496 368 496 396.5 496 c 128,-1,31
 425 496 425 496 443 495 c 1,32,-1
 449 487 l 1,33,-1
 336 311 l 2,34,35
 323 290 323 290 305 275 c 1,36,37
 366 259 366 259 398 185 c 1,0,-1
224 -70 m 1,38,39
 250 -53 250 -53 278.5 -53 c 128,-1,40
 307 -53 307 -53 321 -58 c 1,41,42
 330 -78 330 -78 330 -118 c 128,-1,43
 330 -158 330 -158 298 -197.5 c 128,-1,44
 266 -237 266 -237 210 -260 c 1,45,46
 185 -251 185 -251 178 -218 c 1,47,48
 237 -180 237 -180 237 -123 c 0,49,50
 237 -94 237 -94 224 -70 c 1,38,39
EndSplineSet
EndChar

StartChar: kgreenlandic
Encoding: 312 312 216
Width: 499
GlyphClass: 2
Flags: W
LayerCount: 2
Fore
SplineSet
398 185 m 1,0,-1
 433 101 l 2,1,2
 457 41 457 41 481 23 c 1,3,4
 457 -7 457 -7 416 -7 c 0,5,6
 391 -7 391 -7 378.5 6 c 128,-1,7
 366 19 366 19 353 50 c 2,8,-1
 311 149 l 2,9,10
 294 189 294 189 276.5 203 c 128,-1,11
 259 217 259 217 229.5 217 c 128,-1,12
 200 217 200 217 175 214 c 1,13,-1
 175 0 l 1,14,15
 158 -4 158 -4 128.5 -4 c 128,-1,16
 99 -4 99 -4 80 0 c 1,17,-1
 80 491 l 1,18,-1
 87 497 l 1,19,-1
 123 497 l 2,20,21
 153 497 153 497 164 482.5 c 128,-1,22
 175 468 175 468 175 435 c 2,23,-1
 175 295 l 1,24,-1
 211 297 l 2,25,26
 224 297 224 297 235 312 c 1,27,-1
 327 454 l 1,28,29
 340 476 340 476 354 486 c 128,-1,30
 368 496 368 496 396.5 496 c 128,-1,31
 425 496 425 496 443 495 c 1,32,-1
 449 487 l 1,33,-1
 336 311 l 2,34,35
 323 290 323 290 305 275 c 1,36,37
 366 259 366 259 398 185 c 1,0,-1
EndSplineSet
EndChar

StartChar: Ldot
Encoding: 319 319 217
Width: 511
GlyphClass: 2
Flags: W
LayerCount: 2
Fore
SplineSet
280 86 m 2,0,-1
 482 86 l 1,1,2
 482 59 482 59 480 46 c 0,3,4
 471 -1 471 -1 415 -1 c 2,5,-1
 150 -1 l 2,6,7
 124 -1 124 -1 108 15.5 c 128,-1,8
 92 32 92 32 92 62 c 2,9,-1
 92 681 l 1,10,-1
 98 687 l 1,11,-1
 137 687 l 2,12,13
 167 687 167 687 179.5 672 c 128,-1,14
 192 657 192 657 192 623 c 2,15,-1
 192 83 l 1,16,17
 239 86 239 86 280 86 c 2,0,-1
336 353 m 128,-1,19
 336 381 336 381 344 399 c 1,20,21
 361 410 361 410 394.5 410 c 128,-1,22
 428 410 428 410 444 399 c 1,23,24
 451 384 451 384 451 353 c 128,-1,25
 451 322 451 322 444 307 c 1,26,27
 429 295 429 295 396 295 c 128,-1,28
 363 295 363 295 344 307 c 1,29,18
 336 325 336 325 336 353 c 128,-1,19
EndSplineSet
EndChar

StartChar: ldot
Encoding: 320 320 218
Width: 343
GlyphClass: 2
Flags: W
LayerCount: 2
Fore
SplineSet
212 73 m 2,0,-1
 251 73 l 1,1,2
 259 51 259 51 259 33 c 128,-1,3
 259 15 259 15 257 3 c 1,4,5
 217 -4 217 -4 174 -4 c 0,6,7
 79 -4 79 -4 79 94 c 2,8,-1
 79 729 l 1,9,-1
 85 735 l 1,10,-1
 121 735 l 2,11,12
 151 735 151 735 162 721 c 128,-1,13
 173 707 173 707 173 673 c 2,14,-1
 173 117 l 2,15,16
 173 73 173 73 212 73 c 2,0,-1
239 353 m 128,-1,18
 239 381 239 381 247 399 c 1,19,20
 264 410 264 410 297.5 410 c 128,-1,21
 331 410 331 410 347 399 c 1,22,23
 354 384 354 384 354 353 c 128,-1,24
 354 322 354 322 347 307 c 1,25,26
 332 295 332 295 299 295 c 128,-1,27
 266 295 266 295 247 307 c 1,28,17
 239 325 239 325 239 353 c 128,-1,18
EndSplineSet
EndChar

StartChar: Lslash
Encoding: 321 321 219
Width: 517
GlyphClass: 2
Flags: W
LayerCount: 2
Fore
SplineSet
198 623 m 2,0,-1
 198 400 l 1,1,-1
 377 460 l 1,2,-1
 384 456 l 1,3,4
 390 436 390 436 390 417 c 128,-1,5
 390 398 390 398 385 379 c 1,6,-1
 198 318 l 1,7,-1
 198 83 l 1,8,9
 245 86 245 86 286 86 c 2,10,-1
 488 86 l 1,11,12
 488 59 488 59 486 46 c 0,13,14
 477 -1 477 -1 421 -1 c 2,15,-1
 156 -1 l 2,16,17
 130 -1 130 -1 114 15.5 c 128,-1,18
 98 32 98 32 98 62 c 2,19,-1
 98 288 l 1,20,-1
 30 264 l 1,21,-1
 23 268 l 1,22,23
 17 286 17 286 17 305.5 c 128,-1,24
 17 325 17 325 21 345 c 1,25,-1
 98 370 l 1,26,-1
 98 681 l 1,27,-1
 104 687 l 1,28,-1
 143 687 l 2,29,30
 173 687 173 687 185.5 672 c 128,-1,31
 198 657 198 657 198 623 c 2,0,-1
EndSplineSet
EndChar

StartChar: lslash
Encoding: 322 322 220
Width: 327
GlyphClass: 2
Flags: W
LayerCount: 2
Fore
SplineSet
240 73 m 2,0,-1
 278 73 l 1,1,2
 286 51 286 51 286 30 c 128,-1,3
 286 9 286 9 284 3 c 1,4,5
 246 -4 246 -4 202 -4 c 0,6,7
 107 -4 107 -4 107 94 c 2,8,-1
 107 311 l 1,9,-1
 37 274 l 1,10,-1
 30 278 l 1,11,12
 24 296 24 296 24 314.5 c 128,-1,13
 24 333 24 333 28 351 c 1,14,-1
 107 392 l 1,15,-1
 107 729 l 1,16,-1
 113 735 l 1,17,-1
 149 735 l 2,18,19
 179 735 179 735 190 720.5 c 128,-1,20
 201 706 201 706 201 673 c 2,21,-1
 201 442 l 1,22,-1
 281 484 l 1,23,-1
 288 481 l 1,24,25
 293 464 293 464 293 445 c 128,-1,26
 293 426 293 426 289 407 c 1,27,-1
 201 360 l 1,28,-1
 201 117 l 2,29,30
 201 73 201 73 240 73 c 2,0,-1
EndSplineSet
EndChar

StartChar: Nacute
Encoding: 323 323 221
Width: 678
GlyphClass: 2
Flags: W
LayerCount: 2
Fore
SplineSet
181 565 m 1,0,-1
 177 565 l 1,1,2
 185 429 185 429 185 326 c 2,3,-1
 185 0 l 1,4,5
 162 -4 162 -4 138.5 -4 c 128,-1,6
 115 -4 115 -4 92 0 c 1,7,-1
 92 682 l 1,8,9
 120 687 120 687 153.5 687 c 128,-1,10
 187 687 187 687 212 683 c 1,11,-1
 430 256 l 2,12,13
 445 227 445 227 468 176.5 c 128,-1,14
 491 126 491 126 498 113 c 1,15,-1
 498 112 l 1,16,-1
 501 113 l 1,17,18
 493 239 493 239 493 360 c 2,19,-1
 493 624 l 2,20,21
 493 658 493 658 504.5 672.5 c 128,-1,22
 516 687 516 687 547 687 c 2,23,-1
 579 687 l 1,24,-1
 586 682 l 1,25,-1
 586 1 l 1,26,27
 558 -4 558 -4 524 -4 c 128,-1,28
 490 -4 490 -4 465 0 c 1,29,-1
 246 427 l 2,30,31
 216 486 216 486 181 565 c 1,0,-1
244 779 m 1,32,-1
 444 898 l 1,33,34
 459 887 459 887 472 864 c 128,-1,35
 485 841 485 841 488 817 c 1,36,-1
 273 728 l 1,37,38
 248 745 248 745 244 779 c 1,32,-1
EndSplineSet
EndChar

StartChar: Ncaron
Encoding: 327 327 223
Width: 678
GlyphClass: 2
Flags: W
LayerCount: 2
Fore
SplineSet
181 565 m 1,0,-1
 177 565 l 1,1,2
 185 429 185 429 185 326 c 2,3,-1
 185 0 l 1,4,5
 162 -4 162 -4 138.5 -4 c 128,-1,6
 115 -4 115 -4 92 0 c 1,7,-1
 92 682 l 1,8,9
 120 687 120 687 153.5 687 c 128,-1,10
 187 687 187 687 212 683 c 1,11,-1
 430 256 l 2,12,13
 445 227 445 227 468 176.5 c 128,-1,14
 491 126 491 126 498 113 c 1,15,-1
 498 112 l 1,16,-1
 501 113 l 1,17,18
 493 239 493 239 493 360 c 2,19,-1
 493 624 l 2,20,21
 493 658 493 658 504.5 672.5 c 128,-1,22
 516 687 516 687 547 687 c 2,23,-1
 579 687 l 1,24,-1
 586 682 l 1,25,-1
 586 1 l 1,26,27
 558 -4 558 -4 524 -4 c 128,-1,28
 490 -4 490 -4 465 0 c 1,29,-1
 246 427 l 2,30,31
 216 486 216 486 181 565 c 1,0,-1
229 889 m 1,32,-1
 340 814 l 1,33,-1
 455 896 l 1,34,35
 468 891 468 891 481 878.5 c 128,-1,36
 494 866 494 866 498 853 c 1,37,-1
 384 741 l 1,38,39
 360 737 360 737 338 737 c 128,-1,40
 316 737 316 737 297 741 c 1,41,-1
 185 846 l 1,42,43
 195 878 195 878 229 889 c 1,32,-1
EndSplineSet
EndChar

StartChar: ncaron
Encoding: 328 328 224
Width: 546
GlyphClass: 2
Flags: W
LayerCount: 2
Fore
SplineSet
470 340 m 2,0,-1
 470 103 l 2,1,2
 470 43 470 43 485 14 c 1,3,4
 460 -7 460 -7 425 -7 c 0,5,6
 373 -7 373 -7 373 55 c 2,7,-1
 373 315 l 2,8,9
 373 369 373 369 359.5 391.5 c 128,-1,10
 346 414 346 414 311.5 414 c 128,-1,11
 277 414 277 414 240.5 396 c 128,-1,12
 204 378 204 378 177 349 c 1,13,-1
 177 0 l 1,14,15
 160 -4 160 -4 129.5 -4 c 128,-1,16
 99 -4 99 -4 80 0 c 1,17,-1
 80 491 l 1,18,-1
 87 497 l 1,19,-1
 123 497 l 2,20,21
 174 497 174 497 177 434 c 1,22,23
 252 502 252 502 338 502 c 0,24,25
 405 502 405 502 437.5 457 c 128,-1,26
 470 412 470 412 470 340 c 2,0,-1
184 724 m 1,27,-1
 278 632 l 1,28,-1
 379 730 l 1,29,30
 408 718 408 718 424 689 c 1,31,-1
 317 555 l 1,32,33
 301 549 301 549 280 549 c 128,-1,34
 259 549 259 549 235 554 c 1,35,-1
 137 680 l 1,36,37
 153 714 153 714 184 724 c 1,27,-1
EndSplineSet
EndChar

StartChar: OE
Encoding: 338 338 225
Width: 894
GlyphClass: 2
Flags: W
LayerCount: 2
Fore
SplineSet
521 130 m 1,0,-1
 520 83 l 1,1,2
 558 85 558 85 586 85 c 2,3,-1
 848 85 l 1,4,5
 848 59 848 59 845 46 c 0,6,7
 837 -1 837 -1 782 -1 c 2,8,-1
 453 -1 l 1,9,10
 367 -13 367 -13 330 -13 c 0,11,12
 226 -13 226 -13 158 47 c 0,13,14
 51 140 51 140 51 342 c 0,15,16
 51 431 51 431 77 509.5 c 128,-1,17
 103 588 103 588 158 636 c 0,18,19
 226 696 226 696 330 696 c 0,20,21
 357 696 357 696 456 683 c 1,22,-1
 829 683 l 1,23,24
 832 668 832 668 832 643 c 128,-1,25
 832 618 832 618 824 598 c 1,26,-1
 583 598 l 2,27,28
 543 598 543 598 520 599 c 1,29,-1
 521 534 l 1,30,-1
 521 386 l 1,31,-1
 583 387 l 1,32,-1
 775 387 l 1,33,34
 780 369 780 369 780 344.5 c 128,-1,35
 780 320 780 320 775 303 c 1,36,-1
 583 303 l 2,37,38
 544 303 544 303 521 304 c 1,39,-1
 521 130 l 1,0,-1
242 92.5 m 128,-1,41
 278 68 278 68 325.5 68 c 128,-1,42
 373 68 373 68 424 80 c 1,43,-1
 424 602 l 1,44,45
 368 615 368 615 323.5 615 c 128,-1,46
 279 615 279 615 242.5 590.5 c 128,-1,47
 206 566 206 566 188 523.5 c 128,-1,48
 170 481 170 481 162.5 437 c 128,-1,49
 155 393 155 393 155 342 c 128,-1,50
 155 291 155 291 162.5 246.5 c 128,-1,51
 170 202 170 202 188 159.5 c 128,-1,40
 206 117 206 117 242 92.5 c 128,-1,41
EndSplineSet
EndChar

StartChar: oe
Encoding: 339 339 226
Width: 832
GlyphClass: 2
Flags: W
LayerCount: 2
Fore
SplineSet
776 216 m 1,0,-1
 480 216 l 1,1,2
 483 145 483 145 510 106 c 128,-1,3
 537 67 537 67 599.5 67 c 128,-1,4
 662 67 662 67 738 106 c 1,5,6
 763 83 763 83 769 44 c 1,7,8
 689 -13 689 -13 580 -13 c 128,-1,9
 471 -13 471 -13 424 72 c 1,10,11
 372 -13 372 -13 260 -13 c 0,12,13
 171 -13 171 -13 116 42 c 0,14,15
 46 112 46 112 46 246.5 c 128,-1,16
 46 381 46 381 116 451 c 0,17,18
 171 506 171 506 260 506 c 0,19,20
 373 506 373 506 426 417 c 1,21,22
 478 506 478 506 586 506 c 0,23,24
 679 506 679 506 730.5 445.5 c 128,-1,25
 782 385 782 385 782 292 c 0,26,27
 782 248 782 248 776 216 c 1,0,-1
155.5 337 m 128,-1,29
 146 298 146 298 146 246.5 c 128,-1,30
 146 195 146 195 155.5 156 c 128,-1,31
 165 117 165 117 191.5 89.5 c 128,-1,32
 218 62 218 62 260 62 c 128,-1,33
 302 62 302 62 328.5 89.5 c 128,-1,34
 355 117 355 117 364.5 156 c 128,-1,35
 374 195 374 195 374 246.5 c 128,-1,36
 374 298 374 298 364.5 337 c 128,-1,37
 355 376 355 376 328.5 404 c 128,-1,38
 302 432 302 432 260 432 c 128,-1,39
 218 432 218 432 191.5 404 c 128,-1,28
 165 376 165 376 155.5 337 c 128,-1,29
586 434 m 0,40,41
 488 434 488 434 480 287 c 1,42,-1
 688 287 l 1,43,-1
 688 299 l 2,44,45
 688 359 688 359 663 396.5 c 128,-1,46
 638 434 638 434 586 434 c 0,40,41
EndSplineSet
EndChar

StartChar: Racute
Encoding: 340 340 227
Width: 599
GlyphClass: 2
Flags: W
LayerCount: 2
Fore
SplineSet
99 684 m 1,0,-1
 311 687 l 1,1,2
 416 687 416 687 476 633.5 c 128,-1,3
 536 580 536 580 536 483 c 0,4,5
 536 416 536 416 500 368 c 128,-1,6
 464 320 464 320 407 301 c 1,7,8
 452 285 452 285 477 217 c 2,9,-1
 523 96 l 2,10,11
 543 43 543 43 567 24 c 1,12,13
 547 -7 547 -7 500 -7 c 0,14,15
 473 -7 473 -7 459 7.5 c 128,-1,16
 445 22 445 22 433 55 c 2,17,-1
 381 194 l 2,18,19
 366 235 366 235 343.5 256 c 128,-1,20
 321 277 321 277 278 277 c 2,21,-1
 192 277 l 1,22,-1
 192 0 l 1,23,24
 172 -4 172 -4 142 -4 c 128,-1,25
 112 -4 112 -4 92 0 c 1,26,-1
 92 677 l 1,27,-1
 99 684 l 1,0,-1
192 608 m 1,28,-1
 192 357 l 1,29,30
 251 360 251 360 313.5 360 c 128,-1,31
 376 360 376 360 404 395 c 128,-1,32
 432 430 432 430 432 483 c 0,33,34
 432 607 432 607 307 607 c 0,35,36
 226 607 226 607 192 608 c 1,28,-1
200 779 m 1,37,-1
 400 898 l 1,38,39
 415 887 415 887 428 864 c 128,-1,40
 441 841 441 841 444 817 c 1,41,-1
 229 728 l 1,42,43
 204 745 204 745 200 779 c 1,37,-1
EndSplineSet
EndChar

StartChar: Rcommaaccent
Encoding: 342 342 229
Width: 599
GlyphClass: 2
Flags: W
LayerCount: 2
Fore
SplineSet
99 684 m 1,0,-1
 311 687 l 1,1,2
 416 687 416 687 476 633.5 c 128,-1,3
 536 580 536 580 536 483 c 0,4,5
 536 416 536 416 500 368 c 128,-1,6
 464 320 464 320 407 301 c 1,7,8
 452 285 452 285 477 217 c 2,9,-1
 523 96 l 2,10,11
 543 43 543 43 567 24 c 1,12,13
 547 -7 547 -7 500 -7 c 0,14,15
 473 -7 473 -7 459 7.5 c 128,-1,16
 445 22 445 22 433 55 c 2,17,-1
 381 194 l 2,18,19
 366 235 366 235 343.5 256 c 128,-1,20
 321 277 321 277 278 277 c 2,21,-1
 192 277 l 1,22,-1
 192 0 l 1,23,24
 172 -4 172 -4 142 -4 c 128,-1,25
 112 -4 112 -4 92 0 c 1,26,-1
 92 677 l 1,27,-1
 99 684 l 1,0,-1
192 608 m 1,28,-1
 192 357 l 1,29,30
 251 360 251 360 313.5 360 c 128,-1,31
 376 360 376 360 404 395 c 128,-1,32
 432 430 432 430 432 483 c 0,33,34
 432 607 432 607 307 607 c 0,35,36
 226 607 226 607 192 608 c 1,28,-1
266 -70 m 1,37,38
 292 -53 292 -53 320.5 -53 c 128,-1,39
 349 -53 349 -53 363 -58 c 1,40,41
 372 -78 372 -78 372 -118 c 128,-1,42
 372 -158 372 -158 340 -197.5 c 128,-1,43
 308 -237 308 -237 252 -260 c 1,44,45
 227 -251 227 -251 220 -218 c 1,46,47
 279 -180 279 -180 279 -123 c 0,48,49
 279 -94 279 -94 266 -70 c 1,37,38
EndSplineSet
EndChar

StartChar: rcommaaccent
Encoding: 343 343 230
Width: 365
GlyphClass: 2
Flags: W
LayerCount: 2
Fore
SplineSet
53 448 m 1,0,1
 61 482 61 482 89 500 c 1,2,3
 155 484 155 484 176 411 c 1,4,5
 217 500 217 500 307 500 c 0,6,7
 331 500 331 500 359 494 c 1,8,9
 359 440 359 440 336 403 c 1,10,11
 330 404 330 404 296 407 c 1,12,13
 226 407 226 407 186 329 c 1,14,-1
 186 0 l 1,15,16
 169 -4 169 -4 137.5 -4 c 128,-1,17
 106 -4 106 -4 89 0 c 1,18,-1
 89 346 l 2,19,20
 89 414 89 414 53 448 c 1,0,1
94 -70 m 1,21,22
 120 -53 120 -53 148.5 -53 c 128,-1,23
 177 -53 177 -53 191 -58 c 1,24,25
 200 -78 200 -78 200 -118 c 128,-1,26
 200 -158 200 -158 168 -197.5 c 128,-1,27
 136 -237 136 -237 80 -260 c 1,28,29
 55 -251 55 -251 48 -218 c 1,30,31
 107 -180 107 -180 107 -123 c 0,32,33
 107 -94 107 -94 94 -70 c 1,21,22
EndSplineSet
EndChar

StartChar: Rcaron
Encoding: 344 344 231
Width: 599
GlyphClass: 2
Flags: W
LayerCount: 2
Fore
SplineSet
99 684 m 1,0,-1
 311 687 l 1,1,2
 416 687 416 687 476 633.5 c 128,-1,3
 536 580 536 580 536 483 c 0,4,5
 536 416 536 416 500 368 c 128,-1,6
 464 320 464 320 407 301 c 1,7,8
 452 285 452 285 477 217 c 2,9,-1
 523 96 l 2,10,11
 543 43 543 43 567 24 c 1,12,13
 547 -7 547 -7 500 -7 c 0,14,15
 473 -7 473 -7 459 7.5 c 128,-1,16
 445 22 445 22 433 55 c 2,17,-1
 381 194 l 2,18,19
 366 235 366 235 343.5 256 c 128,-1,20
 321 277 321 277 278 277 c 2,21,-1
 192 277 l 1,22,-1
 192 0 l 1,23,24
 172 -4 172 -4 142 -4 c 128,-1,25
 112 -4 112 -4 92 0 c 1,26,-1
 92 677 l 1,27,-1
 99 684 l 1,0,-1
192 608 m 1,28,-1
 192 357 l 1,29,30
 251 360 251 360 313.5 360 c 128,-1,31
 376 360 376 360 404 395 c 128,-1,32
 432 430 432 430 432 483 c 0,33,34
 432 607 432 607 307 607 c 0,35,36
 226 607 226 607 192 608 c 1,28,-1
185 889 m 1,37,-1
 296 814 l 1,38,-1
 411 896 l 1,39,40
 424 891 424 891 437 878.5 c 128,-1,41
 450 866 450 866 454 853 c 1,42,-1
 340 741 l 1,43,44
 316 737 316 737 294 737 c 128,-1,45
 272 737 272 737 253 741 c 1,46,-1
 141 846 l 1,47,48
 151 878 151 878 185 889 c 1,37,-1
EndSplineSet
EndChar

StartChar: Sacute
Encoding: 346 346 233
Width: 556
GlyphClass: 2
Flags: W
LayerCount: 2
Fore
SplineSet
32 62 m 1,0,1
 37 110 37 110 75 139 c 1,2,3
 179 71 179 71 276 71 c 0,4,5
 337 71 337 71 373 98.5 c 128,-1,6
 409 126 409 126 409 170 c 0,7,8
 409 239 409 239 314 281 c 1,9,-1
 197 331 l 1,10,11
 60 391 60 391 60 504 c 0,12,13
 60 586 60 586 122.5 641 c 128,-1,14
 185 696 185 696 288 696 c 128,-1,15
 391 696 391 696 493 645 c 1,16,17
 491 597 491 597 456 566 c 1,18,19
 362 613 362 613 296 613 c 128,-1,20
 230 613 230 613 196 585.5 c 128,-1,21
 162 558 162 558 162 520.5 c 128,-1,22
 162 483 162 483 184 461 c 128,-1,23
 206 439 206 439 248 421 c 2,24,-1
 364 372 l 1,25,26
 513 306 513 306 513 186 c 0,27,28
 513 97 513 97 451 42 c 128,-1,29
 389 -13 389 -13 264.5 -13 c 128,-1,30
 140 -13 140 -13 32 62 c 1,0,1
189 779 m 1,31,-1
 389 898 l 1,32,33
 404 887 404 887 417 864 c 128,-1,34
 430 841 430 841 433 817 c 1,35,-1
 218 728 l 1,36,37
 193 745 193 745 189 779 c 1,31,-1
EndSplineSet
EndChar

StartChar: sacute
Encoding: 347 347 234
Width: 437
GlyphClass: 2
Flags: W
LayerCount: 2
Fore
SplineSet
32 37 m 1,0,1
 33 54 33 54 42.5 74 c 128,-1,2
 52 94 52 94 65 105 c 1,3,4
 147 60 147 60 197.5 60 c 128,-1,5
 248 60 248 60 273 78.5 c 128,-1,6
 298 97 298 97 299 126 c 1,7,8
 299 172 299 172 234 197 c 2,9,-1
 178 219 l 1,10,11
 50 267 50 267 50 360 c 0,12,13
 50 427 50 427 99.5 466.5 c 128,-1,14
 149 506 149 506 229.5 506 c 128,-1,15
 310 506 310 506 386 471 c 1,16,17
 387 452 387 452 378.5 431 c 128,-1,18
 370 410 370 410 357 399 c 1,19,20
 284 431 284 431 224 431 c 0,21,22
 190 431 190 431 169 414.5 c 128,-1,23
 148 398 148 398 148 373 c 128,-1,24
 148 348 148 348 163.5 333.5 c 128,-1,25
 179 319 179 319 213 306 c 2,26,-1
 273 284 l 1,27,28
 399 235 399 235 399 134 c 0,29,30
 399 67 399 67 346.5 27 c 128,-1,31
 294 -13 294 -13 204.5 -13 c 128,-1,32
 115 -13 115 -13 32 37 c 1,0,1
147 577 m 1,33,-1
 289 735 l 1,34,35
 311 728 311 728 331 709.5 c 128,-1,36
 351 691 351 691 359 670 c 1,37,-1
 190 537 l 1,38,39
 158 548 158 548 147 577 c 1,33,-1
EndSplineSet
EndChar

StartChar: Scaron
Encoding: 352 352 235
Width: 556
GlyphClass: 2
Flags: W
LayerCount: 2
Fore
SplineSet
32 62 m 1,0,1
 37 110 37 110 75 139 c 1,2,3
 179 71 179 71 276 71 c 0,4,5
 337 71 337 71 373 98.5 c 128,-1,6
 409 126 409 126 409 170 c 0,7,8
 409 239 409 239 314 281 c 1,9,-1
 197 331 l 1,10,11
 60 391 60 391 60 504 c 0,12,13
 60 586 60 586 122.5 641 c 128,-1,14
 185 696 185 696 288 696 c 128,-1,15
 391 696 391 696 493 645 c 1,16,17
 491 597 491 597 456 566 c 1,18,19
 362 613 362 613 296 613 c 128,-1,20
 230 613 230 613 196 585.5 c 128,-1,21
 162 558 162 558 162 520.5 c 128,-1,22
 162 483 162 483 184 461 c 128,-1,23
 206 439 206 439 248 421 c 2,24,-1
 364 372 l 1,25,26
 513 306 513 306 513 186 c 0,27,28
 513 97 513 97 451 42 c 128,-1,29
 389 -13 389 -13 264.5 -13 c 128,-1,30
 140 -13 140 -13 32 62 c 1,0,1
174 889 m 1,31,-1
 285 814 l 1,32,-1
 400 896 l 1,33,34
 413 891 413 891 426 878.5 c 128,-1,35
 439 866 439 866 443 853 c 1,36,-1
 329 741 l 1,37,38
 305 737 305 737 283.5 737 c 128,-1,39
 262 737 262 737 242 741 c 1,40,-1
 130 846 l 1,41,42
 140 878 140 878 174 889 c 1,31,-1
EndSplineSet
EndChar

StartChar: scaron
Encoding: 353 353 236
Width: 437
GlyphClass: 2
Flags: W
LayerCount: 2
Fore
SplineSet
32 37 m 1,0,1
 33 54 33 54 42.5 74 c 128,-1,2
 52 94 52 94 65 105 c 1,3,4
 147 60 147 60 197.5 60 c 128,-1,5
 248 60 248 60 273 78.5 c 128,-1,6
 298 97 298 97 299 126 c 1,7,8
 299 172 299 172 234 197 c 2,9,-1
 178 219 l 1,10,11
 50 267 50 267 50 360 c 0,12,13
 50 427 50 427 99.5 466.5 c 128,-1,14
 149 506 149 506 229.5 506 c 128,-1,15
 310 506 310 506 386 471 c 1,16,17
 387 452 387 452 378.5 431 c 128,-1,18
 370 410 370 410 357 399 c 1,19,20
 284 431 284 431 224 431 c 0,21,22
 190 431 190 431 169 414.5 c 128,-1,23
 148 398 148 398 148 373 c 128,-1,24
 148 348 148 348 163.5 333.5 c 128,-1,25
 179 319 179 319 213 306 c 2,26,-1
 273 284 l 1,27,28
 399 235 399 235 399 134 c 0,29,30
 399 67 399 67 346.5 27 c 128,-1,31
 294 -13 294 -13 204.5 -13 c 128,-1,32
 115 -13 115 -13 32 37 c 1,0,1
125 724 m 1,33,-1
 219 632 l 1,34,-1
 320 730 l 1,35,36
 349 718 349 718 365 689 c 1,37,-1
 258 555 l 1,38,39
 242 549 242 549 221 549 c 128,-1,40
 200 549 200 549 176 554 c 1,41,-1
 78 680 l 1,42,43
 94 714 94 714 125 724 c 1,33,-1
EndSplineSet
EndChar

StartChar: Tcaron
Encoding: 356 356 237
Width: 490
GlyphClass: 2
Flags: W
LayerCount: 2
Fore
SplineSet
295 600 m 1,0,-1
 296 526 l 1,1,-1
 296 0 l 1,2,3
 275 -4 275 -4 245.5 -4 c 128,-1,4
 216 -4 216 -4 196 0 c 1,5,-1
 196 600 l 1,6,-1
 139 599 l 1,7,-1
 18 599 l 1,8,9
 14 618 14 618 14 640.5 c 128,-1,10
 14 663 14 663 18 683 c 1,11,-1
 473 683 l 1,12,13
 479 666 479 666 479 643 c 0,14,15
 479 599 479 599 423 599 c 2,16,-1
 353 599 l 1,17,-1
 296 600 l 1,18,-1
 295 600 l 1,0,-1
132 889 m 1,19,-1
 243 814 l 1,20,-1
 358 896 l 1,21,22
 371 891 371 891 384 878.5 c 128,-1,23
 397 866 397 866 401 853 c 1,24,-1
 287 741 l 1,25,26
 263 737 263 737 241.5 737 c 128,-1,27
 220 737 220 737 200 741 c 1,28,-1
 88 846 l 1,29,30
 98 878 98 878 132 889 c 1,19,-1
EndSplineSet
EndChar

StartChar: tcaron
Encoding: 357 357 238
Width: 359
GlyphClass: 2
Flags: W
LayerCount: 2
Fore
SplineSet
318 494 m 1,0,1
 322 477 322 477 322 457.5 c 128,-1,2
 322 438 322 438 318 422 c 1,3,-1
 193 423 l 1,4,-1
 193 116 l 2,5,6
 193 73 193 73 234 73 c 2,7,-1
 304 73 l 1,8,9
 312 54 312 54 312 31.5 c 128,-1,10
 312 9 312 9 311 3 c 1,11,12
 253 -4 253 -4 201 -4 c 0,13,14
 99 -4 99 -4 99 94 c 2,15,-1
 99 423 l 1,16,-1
 26 422 l 1,17,18
 22 438 22 438 22 457.5 c 128,-1,19
 22 477 22 477 26 494 c 1,20,-1
 99 493 l 1,21,-1
 99 584 l 2,22,23
 99 618 99 618 110 632 c 128,-1,24
 121 646 121 646 151 646 c 2,25,-1
 187 646 l 1,26,-1
 193 640 l 1,27,-1
 193 492 l 1,28,-1
 318 494 l 1,0,1
256 565 m 1,29,-1
 268 776 l 1,30,31
 280 779 280 779 292 779 c 0,32,33
 335 779 335 779 360 763 c 1,34,-1
 313 561 l 1,35,36
 300 556 300 556 285.5 556 c 128,-1,37
 271 556 271 556 256 565 c 1,29,-1
EndSplineSet
EndChar

